<svg xmlns="http://www.w3.org/2000/svg" xmlns:xlink="http://www.w3.org/1999/xlink" viewBox="0 0 3058.88 2400"><defs><style>.cls-1,.cls-56{fill:none;}.cls-2{isolation:isolate;}.cls-3{clip-path:url(#clip-path);}.cls-4{fill:#097ea8;}.cls-5{fill:#479ebe;}.cls-6{fill:#bf965a;}.cls-7{fill:#daae6e;}.cls-8{fill:#e7bd7c;}.cls-9{fill:#ed7425;}.cls-10{fill:#e05d14;}.cls-11{fill:#ffa04a;}.cls-12{opacity:0.4;}.cls-13{clip-path:url(#clip-path-3);}.cls-14{fill:#fcbe6d;}.cls-15{fill:#dc3d13;}.cls-16{clip-path:url(#clip-path-4);}.cls-17{clip-path:url(#clip-path-5);}.cls-18{clip-path:url(#clip-path-6);}.cls-19{clip-path:url(#clip-path-7);}.cls-20{clip-path:url(#clip-path-8);}.cls-21{clip-path:url(#clip-path-9);}.cls-22{fill:#dba763;}.cls-23{fill:#e8b679;}.cls-24{fill:#fff;}.cls-25{fill:#354252;}.cls-26{fill:#1a2a3a;}.cls-27{fill:#ffdbd4;}.cls-28{clip-path:url(#clip-path-10);}.cls-29{fill:url(#linear-gradient);}.cls-30{fill:#3797da;}.cls-31{fill:#2d2c37;}.cls-32{fill:#36b7ff;}.cls-33{fill:#fec7c6;}.cls-34{fill:#ffbcb3;}.cls-35{fill:#61cfff;}.cls-36{fill:#f9af7d;}.cls-37{fill:#754554;}.cls-38{fill:#375a64;}.cls-39{fill:#1a2e35;}.cls-40{fill:#415d6b;}.cls-41{opacity:0.54;}.cls-42{clip-path:url(#clip-path-12);}.cls-43{fill:#a8d7e7;}.cls-44{fill:#2e6aa5;}.cls-45{fill:#869741;}.cls-46{mix-blend-mode:color-dodge;}.cls-47{clip-path:url(#clip-path-13);}.cls-48{fill:#131517;}.cls-49{opacity:0.24;}.cls-50{clip-path:url(#clip-path-14);}.cls-51{mix-blend-mode:screen;}.cls-52{clip-path:url(#clip-path-15);}.cls-53{fill:#7dd171;}.cls-54{mix-blend-mode:multiply;}.cls-55{clip-path:url(#clip-path-16);}.cls-56{stroke:#d1e89b;stroke-miterlimit:10;}.cls-57{fill:#87623f;}.cls-58{opacity:0.25;}.cls-59{clip-path:url(#clip-path-17);}.cls-60{clip-path:url(#clip-path-18);}.cls-61{opacity:0.12;}.cls-62{clip-path:url(#clip-path-19);}.cls-63{clip-path:url(#clip-path-20);}</style><clipPath id="clip-path" transform="translate(-810.56 -360)"><rect class="cls-1" width="4680" height="3120"/></clipPath><clipPath id="clip-path-3" transform="translate(-810.56 -360)"><rect class="cls-1" x="1741.76" y="1072.43" width="175.96" height="101.6"/></clipPath><clipPath id="clip-path-4" transform="translate(-810.56 -360)"><rect class="cls-1" x="1521.83" y="1180.37" width="175.97" height="101.6"/></clipPath><clipPath id="clip-path-5" transform="translate(-810.56 -360)"><rect class="cls-1" x="1335.97" y="1388.28" width="128.93" height="74.44"/></clipPath><clipPath id="clip-path-6" transform="translate(-810.56 -360)"><rect class="cls-1" x="1459.91" y="900.13" width="160.01" height="89.25"/></clipPath><clipPath id="clip-path-7" transform="translate(-810.56 -360)"><rect class="cls-1" x="1247.96" y="1027.5" width="142.61" height="79.55"/></clipPath><clipPath id="clip-path-8" transform="translate(-810.56 -360)"><rect class="cls-1" x="1723.59" y="401.17" width="212.96" height="122.95"/></clipPath><clipPath id="clip-path-9" transform="translate(-810.56 -360)"><rect class="cls-1" x="1561.58" y="540.9" width="172.2" height="99.41"/></clipPath><clipPath id="clip-path-10" transform="translate(-810.56 -360)"><path class="cls-1" d="M2990.41,726.75c-7,18.46-16.93,72.46-27.31,114.4,6.1,9.61,18.92,25.17,18.92,25.17v41.95c0,2.9-1.22,8.39-3.05,14.8-3.36,10.52-9,23.49-15.56,30.35-10.68,11.59-61.48,64.06-61.48,64.06s-8.85-3-7,0,3.66,12.36,3.66,12.36c1.22-5.34,6.1-11.29,23.34-25.78,21.51-18,66.66-60.4,70.77-79,.31-1.68.76-3.21,1.07-4.73a24.18,24.18,0,0,0,10.68-10.07c16.63-29.59,24.71-213.71,24.71-213.71s-27.46,1.22-38.74,30.21"/></clipPath><linearGradient id="linear-gradient" y1="3120.01" x2="1" y2="3120.01" gradientTransform="translate(2950.37 765258.87) rotate(180) scale(245)" gradientUnits="userSpaceOnUse"><stop offset="0" stop-color="#fca4b5"/><stop offset="0.12" stop-color="#fca4b5"/><stop offset="0.99" stop-color="#ffadb7"/><stop offset="1" stop-color="#ffadb7"/></linearGradient><clipPath id="clip-path-12" transform="translate(-810.56 -360)"><rect class="cls-1" x="1996.22" y="1782.79" width="590.15" height="340.72"/></clipPath><clipPath id="clip-path-13" transform="translate(-810.56 -360)"><rect class="cls-1" x="2068.04" y="1468.53" width="537.79" height="537.31"/></clipPath><clipPath id="clip-path-14" transform="translate(-810.56 -360)"><rect class="cls-1" x="2155.27" y="1475.11" width="422.84" height="404.42"/></clipPath><clipPath id="clip-path-15" transform="translate(-810.56 -360)"><rect class="cls-1" x="2391.06" y="1512.75" width="122.54" height="107.72"/></clipPath><clipPath id="clip-path-16" transform="translate(-810.56 -360)"><rect class="cls-1" x="2024.63" y="1465.45" width="591.88" height="591.88"/></clipPath><clipPath id="clip-path-17" transform="translate(-810.56 -360)"><rect class="cls-1" x="896.88" y="629.16" width="2972.56" height="1730.63"/></clipPath><clipPath id="clip-path-18" transform="translate(-810.56 -360)"><rect class="cls-1" x="2247.21" y="629.16" width="442.11" height="1730.63"/></clipPath><clipPath id="clip-path-19" transform="translate(-810.56 -360)"><rect class="cls-1" x="2565.18" y="673.9" width="743.86" height="1619.74"/></clipPath><clipPath id="clip-path-20" transform="translate(-810.56 -360)"><rect class="cls-1" x="1499.3" y="675.15" width="682.02" height="1528.75"/></clipPath></defs><title>PMT_M134_010 [SVG]</title><g class="cls-2"><g id="Layer_1" data-name="Layer 1"><g class="cls-3"><g class="cls-3"><path class="cls-4" d="M3869.44,1889.21c0,87.64-22.68,172.25-64.89,252q-8.32,15.73-17.65,31.2c-150.16,249.31-493.08,447.47-927.15,536.49-161.14,33-334.85,51.05-515.93,51.05-415.35,0-791.92-94.75-1067-248.43q-50.28-28.06-95.93-58.72-43.44-29.17-82.35-60.5c-.71-.56-1.41-1.13-2.12-1.71-175.24-141.76-278.18-314.73-278.18-501.43,0-97.92,28.31-192.07,80.54-279.92q8-13.47,16.77-26.76l2.25-3.39q2.38-3.56,4.8-7.09a757,757,0,0,1,47.64-62.18c1.25-1.48,2.52-3,3.79-4.44q12-14,24.91-27.63,3.85-4.11,7.79-8.19s0,0,0,0q11.81-12.23,24.27-24.2,29.94-28.82,63.61-56.15l3.89-3.15a0,0,0,0,0,0,0h0l1.33-1.05q6-4.86,12.2-9.65h0q1.65-1.31,3.33-2.59c1.4-1.1,2.82-2.18,4.24-3.27l.81-.62c1.83-1.4,3.68-2.8,5.52-4.19h0a.91.91,0,0,1,.19-.15q10.91-8.23,22.12-16.3l4.14-3h0l5.11-3.63c2.33-1.65,4.67-3.27,7-4.9q5.75-4,11.59-8l2.8-1.89q17.06-11.51,34.79-22.65,9.36-5.9,18.92-11.68c.87-.54,1.75-1.07,2.64-1.59q4.44-2.69,8.93-5.35c2.63-1.56,5.28-3.13,7.94-4.68l2.21-1.28s0,0,0,0q27-15.67,55.24-30.58,4-2.12,8-4.21,32.74-17,67.2-32.91h0c1.79-.82,3.58-1.66,5.4-2.47q5.94-2.74,11.95-5.41c2.51-1.13,5-2.25,7.53-3.36q31.19-13.81,63.63-26.69,14.92-5.93,30.12-11.65l1.81-.69h0c163.47-61.51,348.91-105.54,548.13-127.44a2656.46,2656.46,0,0,1,290.36-15.76c842.58,0,1525.61,389.86,1525.61,870.79" transform="translate(-810.56 -360)"/><path class="cls-5" d="M3861.79,1705.46c0,87.64-22.68,172.26-64.89,252q-8.32,15.73-17.65,31.2C3629.1,2238,3286.18,2436.17,2852.1,2525.2c-161.14,33-334.85,51.05-515.93,51.05-415.35,0-791.92-94.75-1067-248.43q-50.28-28.06-95.93-58.72-43.44-29.17-82.35-60.5c-.71-.56-1.41-1.13-2.12-1.71-175.24-141.76-278.18-314.73-278.18-501.43,0-97.92,28.31-192.07,80.54-279.92q8-13.47,16.77-26.76l2.25-3.39q2.38-3.56,4.8-7.09a757,757,0,0,1,47.64-62.18c1.25-1.48,2.52-3,3.79-4.44q12-14,24.91-27.63,3.85-4.11,7.79-8.19l0,0q11.81-12.23,24.27-24.2,29.94-28.82,63.61-56.15l3.89-3.15h0l1.33-1.05q6-4.86,12.2-9.65h0q1.65-1.31,3.33-2.59c1.4-1.1,2.82-2.18,4.24-3.27l.82-.62c1.83-1.4,3.68-2.8,5.52-4.19h0a.87.87,0,0,1,.19-.15q10.91-8.23,22.12-16.3l4.14-3h0l5.11-3.63c2.33-1.65,4.67-3.27,7-4.9q5.75-4,11.59-8l2.8-1.89q17.06-11.51,34.79-22.65,9.36-5.9,18.92-11.68,1.31-.81,2.64-1.59,4.44-2.69,8.93-5.35c2.63-1.56,5.28-3.13,7.94-4.68l2.21-1.28,0,0q27-15.67,55.24-30.58,4-2.12,8-4.21,32.74-17,67.2-32.91h0c1.79-.82,3.58-1.66,5.4-2.48,4-1.83,8-3.63,11.95-5.41,2.51-1.13,5-2.25,7.53-3.36q31.19-13.81,63.63-26.69,14.92-5.93,30.12-11.65l1.81-.69h0c163.47-61.51,348.91-105.54,548.13-127.44a2656.46,2656.46,0,0,1,290.36-15.76c842.58,0,1525.61,389.86,1525.61,870.79" transform="translate(-810.56 -360)"/><polygon class="cls-4" points="509.96 1505.66 227.83 1342.79 1017.34 886.51 1299.48 1049.39 509.96 1505.66"/><polygon class="cls-6" points="1068.23 80.5 1068.23 435.38 1046.66 447.84 1046.66 92.96 1068.23 80.5"/><polygon class="cls-7" points="1046.66 92.96 1046.66 447.84 1029.19 437.75 1029.19 82.86 1046.66 92.96"/><polygon class="cls-8" points="1046.69 92.97 1029.19 82.87 1050.76 70.38 1068.26 80.48 1046.69 92.97"/><polygon class="cls-6" points="1274.52 199.63 1274.52 554.52 1252.95 566.97 1252.95 212.09 1274.52 199.63"/><polygon class="cls-7" points="1252.95 212.09 1252.95 566.97 1235.48 556.88 1235.48 202 1252.95 212.09"/><polygon class="cls-8" points="1252.98 212.1 1235.48 202 1257.05 189.52 1274.55 199.62 1252.98 212.1"/><polygon class="cls-6" points="1274.55 178.01 1274.55 199.62 1252.98 212.07 1252.98 190.47 1274.55 178.01"/><polygon class="cls-7" points="1252.98 190.47 1252.98 212.07 1029.19 82.87 1029.19 61.27 1252.98 190.47"/><polygon class="cls-8" points="1253.01 190.48 1029.19 61.27 1050.76 48.79 1274.58 178 1253.01 190.48"/><polygon class="cls-6" points="1068.23 833.53 1068.23 947.46 1046.66 959.92 1046.66 845.99 1068.23 833.53"/><polygon class="cls-7" points="1046.66 845.99 1046.66 959.92 1029.19 949.82 1029.19 835.9 1046.66 845.99"/><polygon class="cls-8" points="1046.69 846 1029.19 835.91 1050.76 823.42 1068.26 833.52 1046.69 846"/><polygon class="cls-6" points="1274.52 952.67 1274.52 1066.59 1252.95 1079.05 1252.95 965.13 1274.52 952.67"/><polygon class="cls-7" points="1252.95 965.13 1252.95 1079.05 1235.48 1068.96 1235.48 955.03 1252.95 965.13"/><polygon class="cls-8" points="1252.98 965.14 1235.48 955.04 1257.05 942.55 1274.55 952.65 1252.98 965.14"/><polygon class="cls-6" points="1274.55 931.05 1274.55 952.65 1252.98 965.11 1252.98 943.51 1274.55 931.05"/><polygon class="cls-7" points="1252.98 943.51 1252.98 965.11 1029.19 835.9 1029.19 814.3 1252.98 943.51"/><polygon class="cls-8" points="1253.01 943.52 1029.19 814.31 1050.76 801.83 1274.58 931.03 1253.01 943.52"/><polygon class="cls-6" points="1253.01 943.52 1253.01 965.12 542.87 1375.5 542.87 1353.9 1253.01 943.52"/><polygon class="cls-7" points="542.87 1353.9 542.87 1375.5 319.08 1246.29 319.08 1224.69 542.87 1353.9"/><polygon class="cls-8" points="542.9 1353.91 319.08 1224.7 1029.22 814.29 1253.04 943.51 542.9 1353.91"/><polygon class="cls-6" points="336.52 1256.39 336.52 1370.32 314.96 1382.77 314.96 1268.85 336.52 1256.39"/><polygon class="cls-7" points="314.96 1268.85 314.96 1382.77 297.48 1372.68 297.48 1258.76 314.96 1268.85"/><polygon class="cls-8" points="314.98 1268.86 297.48 1258.76 319.05 1246.28 336.55 1256.38 314.98 1268.86"/><polygon class="cls-6" points="542.81 1375.53 542.81 1489.45 521.25 1501.91 521.25 1387.98 542.81 1375.53"/><polygon class="cls-7" points="521.25 1387.98 521.25 1501.91 503.77 1491.82 503.77 1377.89 521.25 1387.98"/><polygon class="cls-8" points="521.27 1388 503.77 1377.9 525.34 1365.41 542.84 1375.51 521.27 1388"/><polygon class="cls-6" points="542.84 1353.91 542.84 1375.51 521.28 1387.97 521.28 1366.37 542.84 1353.91"/><polygon class="cls-7" points="521.28 1366.37 521.28 1387.97 297.48 1258.76 297.48 1237.16 521.28 1366.37"/><polygon class="cls-8" points="521.3 1366.38 297.48 1237.17 319.05 1224.68 542.87 1353.89 521.3 1366.38"/><polygon class="cls-6" points="1068.23 457.01 1068.23 811.9 1046.66 824.36 1046.66 469.47 1068.23 457.01"/><polygon class="cls-7" points="1046.66 469.47 1046.66 824.36 1029.19 814.26 1029.19 459.38 1046.66 469.47"/><polygon class="cls-8" points="1046.69 469.49 1029.19 459.39 1050.76 446.9 1068.26 457 1046.69 469.49"/><polygon class="cls-6" points="1274.52 576.15 1274.52 931.03 1252.95 943.49 1252.95 588.61 1274.52 576.15"/><polygon class="cls-7" points="1252.95 588.61 1252.95 943.49 1235.48 933.4 1235.48 578.51 1252.95 588.61"/><polygon class="cls-8" points="1252.98 588.62 1235.48 578.52 1257.05 566.04 1274.55 576.13 1252.98 588.62"/><polygon class="cls-6" points="1274.55 554.53 1274.55 576.13 1252.98 588.59 1252.98 566.99 1274.55 554.53"/><polygon class="cls-7" points="1252.98 566.99 1252.98 588.59 1029.19 459.39 1029.19 437.79 1252.98 566.99"/><polygon class="cls-8" points="1253.01 567 1029.19 437.79 1050.76 425.31 1274.58 554.52 1253.01 567"/><path class="cls-7" d="M1975.29,1274.16c10.75,6.2,70.75,19.24,70.75,19.24l-177.33,109.1-34.28-15.07,65.76-113.28Z" transform="translate(-810.56 -360)"/><polygon class="cls-7" points="948.07 1029.76 1019.18 1052.3 858.23 1146.72 803.95 1135.38 815.58 1063.54 948.07 1029.76"/><polygon class="cls-9" points="1023.87 1027.44 872.27 939.91 872.27 765.94 1023.87 853.47 1023.87 1027.44"/><polygon class="cls-10" points="1023.87 1027.44 1175.48 939.91 1175.48 765.94 1023.87 853.47 1023.87 1027.44"/><polygon class="cls-11" points="1023.87 853.47 1175.48 765.94 1023.87 678.41 872.27 765.94 1023.87 853.47"/><polygon class="cls-11" points="955.55 882.75 931.2 868.69 931.2 799.96 955.55 814.03 955.55 882.75"/><g class="cls-12"><g class="cls-13"><polygon class="cls-14" points="955.55 814.03 1107.16 726.5 1082.8 712.43 931.2 799.96 955.55 814.03"/></g></g><polygon class="cls-15" points="1089.63 884.23 1113.99 870.16 1113.99 801.44 1089.63 815.5 1089.63 884.23"/><polygon class="cls-14" points="1089.63 815.5 938.03 727.98 962.39 713.91 1113.99 801.44 1089.63 815.5"/><polygon class="cls-10" points="1089.63 815.5 1089.63 818.34 1104.48 810.4 1113.99 804.43 1113.99 801.44 1089.63 815.5"/><polygon class="cls-10" points="942.07 809.71 955.55 816.92 955.55 814.03 931.2 799.96 931.2 802.89 942.07 809.71"/><polygon class="cls-9" points="803.95 1135.38 652.35 1047.85 652.35 873.88 803.95 961.41 803.95 1135.38"/><polygon class="cls-10" points="803.95 1135.38 955.55 1047.85 955.55 873.88 803.95 961.41 803.95 1135.38"/><polygon class="cls-11" points="803.95 961.41 955.55 873.88 803.95 786.35 652.35 873.88 803.95 961.41"/><polygon class="cls-11" points="735.63 990.69 711.27 976.63 711.27 907.9 735.63 921.97 735.63 990.69"/><g class="cls-12"><g class="cls-16"><polygon class="cls-14" points="735.63 921.97 887.24 834.44 862.88 820.37 711.27 907.9 735.63 921.97"/></g></g><polygon class="cls-15" points="869.71 992.17 894.07 978.1 894.07 909.38 869.71 923.44 869.71 992.17"/><polygon class="cls-14" points="869.71 923.44 718.11 835.91 742.47 821.85 894.07 909.38 869.71 923.44"/><polygon class="cls-10" points="869.71 923.44 869.71 926.28 884.56 918.34 894.07 912.37 894.07 909.38 869.71 923.44"/><polygon class="cls-10" points="722.14 917.65 735.63 924.86 735.63 921.97 711.27 907.9 711.27 910.83 722.14 917.65"/><polygon class="cls-7" points="698.92 1181.7 751.02 1198.22 633.09 1267.4 593.32 1259.09 601.83 1206.46 698.92 1181.7"/><polygon class="cls-9" points="593.32 1259.09 482.23 1194.95 482.23 1067.48 593.32 1131.62 593.32 1259.09"/><polygon class="cls-10" points="593.32 1259.09 704.4 1194.95 704.4 1067.48 593.32 1131.62 593.32 1259.09"/><polygon class="cls-11" points="593.32 1131.62 704.4 1067.48 593.32 1003.35 482.23 1067.48 593.32 1131.62"/><polygon class="cls-11" points="543.26 1153.07 525.41 1142.77 525.41 1092.41 543.26 1102.72 543.26 1153.07"/><g class="cls-12"><g class="cls-17"><polygon class="cls-14" points="543.26 1102.72 654.34 1038.58 636.49 1028.28 525.41 1092.41 543.26 1102.72"/></g></g><polygon class="cls-15" points="641.5 1154.16 659.35 1143.85 659.35 1093.49 641.5 1103.8 641.5 1154.16"/><polygon class="cls-14" points="641.5 1103.8 530.41 1039.66 548.26 1029.36 659.35 1093.49 641.5 1103.8"/><polygon class="cls-10" points="641.5 1103.8 641.5 1105.88 652.38 1100.06 659.35 1095.69 659.35 1093.49 641.5 1103.8"/><polygon class="cls-10" points="533.37 1099.55 543.26 1104.84 543.26 1102.72 525.41 1092.41 525.41 1094.56 533.37 1099.55"/><polygon class="cls-6" points="1253.01 567 1253.01 588.6 542.87 998.98 542.87 977.38 1253.01 567"/><polygon class="cls-7" points="542.87 977.38 542.87 998.98 319.08 869.78 319.08 848.17 542.87 977.38"/><polygon class="cls-8" points="542.9 977.39 319.08 848.18 1029.22 437.78 1253.04 566.99 542.9 977.39"/><polygon class="cls-7" points="622.78 816.87 693.36 848.37 565.81 922.24 503.77 892.34 542.87 811.28 622.78 816.87"/><polygon class="cls-9" points="733.62 816.87 595.76 739.98 595.76 587.14 733.62 664.04 733.62 816.87"/><polygon class="cls-7" points="843.81 713.91 915.9 732.6 775.57 821.85 733.62 816.87 751.73 743.81 843.81 713.91"/><polygon class="cls-10" points="733.62 816.87 871.49 739.98 871.49 587.14 733.62 664.04 733.62 816.87"/><polygon class="cls-11" points="733.62 664.04 871.49 587.14 733.62 510.24 595.76 587.14 733.62 664.04"/><polygon class="cls-11" points="671.5 689.76 649.35 677.4 649.35 617.03 671.5 629.38 671.5 689.76"/><g class="cls-12"><g class="cls-18"><polygon class="cls-14" points="671.5 629.38 809.36 552.49 787.21 540.13 649.35 617.03 671.5 629.38"/></g></g><polygon class="cls-15" points="793.42 691.06 815.58 678.7 815.58 618.33 793.42 630.68 793.42 691.06"/><polygon class="cls-14" points="793.42 630.68 655.56 553.78 677.71 541.43 815.58 618.33 793.42 630.68"/><polygon class="cls-10" points="793.42 630.68 793.42 633.17 806.93 626.19 815.58 620.95 815.58 618.33 793.42 630.68"/><polygon class="cls-10" points="659.23 625.59 671.5 631.93 671.5 629.38 649.35 617.03 649.35 619.6 659.23 625.59"/><polygon class="cls-9" points="512.51 914.16 389.63 845.62 389.63 709.4 512.51 777.94 512.51 914.16"/><polygon class="cls-10" points="512.51 914.16 635.38 845.62 635.38 709.4 512.51 777.94 512.51 914.16"/><polygon class="cls-11" points="512.51 777.94 635.38 709.4 512.51 640.86 389.63 709.4 512.51 777.94"/><polygon class="cls-11" points="457.14 800.87 437.39 789.85 437.39 736.04 457.14 747.05 457.14 800.87"/><g class="cls-12"><g class="cls-19"><polygon class="cls-14" points="457.14 747.05 580.01 678.51 560.27 667.5 437.39 736.04 457.14 747.05"/></g></g><polygon class="cls-15" points="565.81 802.02 585.55 791.01 585.55 737.2 565.81 748.21 565.81 802.02"/><polygon class="cls-14" points="565.81 748.21 442.93 679.67 462.68 668.66 585.55 737.2 565.81 748.21"/><polygon class="cls-10" points="565.81 748.21 565.81 750.43 577.84 744.21 585.55 739.54 585.55 737.2 565.81 748.21"/><polygon class="cls-10" points="446.21 743.67 457.14 749.32 457.14 747.05 437.39 736.04 437.39 738.33 446.21 743.67"/><polygon class="cls-6" points="336.52 879.87 336.52 1234.76 314.96 1247.22 314.96 892.33 336.52 879.87"/><polygon class="cls-7" points="314.96 892.33 314.96 1247.22 297.48 1237.12 297.48 882.24 314.96 892.33"/><polygon class="cls-8" points="314.98 892.34 297.48 882.25 319.05 869.76 336.55 879.86 314.98 892.34"/><polygon class="cls-6" points="542.81 999.01 542.81 1353.89 521.25 1366.35 521.25 1011.47 542.81 999.01"/><polygon class="cls-7" points="521.25 1011.47 521.25 1366.35 503.77 1356.26 503.77 1001.37 521.25 1011.47"/><polygon class="cls-8" points="521.27 1011.48 503.77 1001.38 525.34 988.89 542.84 998.99 521.27 1011.48"/><polygon class="cls-6" points="542.84 977.39 542.84 998.99 521.28 1011.45 521.28 989.85 542.84 977.39"/><polygon class="cls-7" points="521.28 989.85 521.28 1011.45 297.48 882.25 297.48 860.64 521.28 989.85"/><polygon class="cls-8" points="521.3 989.86 297.48 860.65 319.05 848.16 542.87 977.37 521.3 989.86"/><polygon class="cls-6" points="1253.01 190.48 1253.01 212.09 542.87 622.46 542.87 600.86 1253.01 190.48"/><polygon class="cls-7" points="542.87 600.86 542.87 622.46 319.08 493.26 319.08 471.66 542.87 600.86"/><polygon class="cls-8" points="542.9 600.87 319.08 471.66 1029.22 61.26 1253.04 190.47 542.9 600.87"/><polygon class="cls-7" points="1197.98 168.46 1274.58 178 885.78 398.38 841.72 389.9 978.18 195.04 1197.98 168.46"/><polygon class="cls-6" points="336.52 503.36 336.52 858.24 314.96 870.7 314.96 515.81 336.52 503.36"/><polygon class="cls-7" points="314.96 515.81 314.96 870.7 297.48 860.61 297.48 505.72 314.96 515.81"/><polygon class="cls-8" points="314.98 515.82 297.48 505.73 319.05 493.24 336.55 503.34 314.98 515.82"/><polygon class="cls-6" points="542.81 622.49 542.81 977.37 521.25 989.83 521.25 634.95 542.81 622.49"/><polygon class="cls-7" points="521.25 634.95 521.25 989.83 503.77 979.74 503.77 624.85 521.25 634.95"/><polygon class="cls-8" points="521.27 634.96 503.77 624.86 525.34 612.38 542.84 622.47 521.27 634.96"/><polygon class="cls-6" points="542.84 600.87 542.84 622.47 521.28 634.93 521.28 613.33 542.84 600.87"/><polygon class="cls-7" points="521.28 613.33 521.28 634.93 297.48 505.73 297.48 484.13 521.28 613.33"/><polygon class="cls-8" points="521.3 613.34 297.48 484.13 319.05 471.65 542.87 600.86 521.3 613.34"/><polygon class="cls-9" points="1025.19 299.64 841.72 193.71 841.72 105.93 1025.19 211.86 1025.19 299.64"/><polygon class="cls-10" points="1025.2 211.86 1025.2 299.64 1151.25 226.86 1208.67 193.71 1208.67 105.93 1186.02 119 1186.02 119.01 1025.2 211.86"/><polygon class="cls-11" points="1025.19 211.86 1208.67 105.93 1025.19 0 841.72 105.93 1025.19 211.86"/><polygon class="cls-11" points="943.39 234.49 913.91 217.47 913.91 134.29 943.39 151.31 943.39 234.49"/><g class="cls-12"><g class="cls-20"><polygon class="cls-14" points="942.51 164.12 1125.99 58.19 1096.51 41.17 913.03 147.1 942.51 164.12"/></g></g><polygon class="cls-9" points="841.72 389.9 693.36 304.24 693.36 233.26 841.72 318.91 841.72 389.9"/><polygon class="cls-10" points="841.72 318.92 841.72 389.89 943.64 331.05 990.07 304.24 990.07 233.26 971.76 243.83 971.76 243.83 841.72 318.92"/><polygon class="cls-11" points="841.72 318.91 990.08 233.26 841.72 147.6 693.36 233.26 841.72 318.91"/><polygon class="cls-11" points="775.57 337.21 751.73 323.45 751.73 256.19 775.57 269.95 775.57 337.21"/><g class="cls-12"><g class="cls-21"><polygon class="cls-14" points="774.86 280.31 923.22 194.66 899.38 180.9 751.02 266.55 774.86 280.31"/></g></g><polyline class="cls-14" points="929.91 268 906.07 281.76 757.71 196.1 781.55 182.34"/><polygon class="cls-22" points="514.24 580.02 514.24 439.22 627.71 382.65 627.71 515.47 514.24 580.02"/><polygon class="cls-23" points="514.24 580.02 514.24 439.22 400.77 382.65 400.77 515.47 514.24 580.02"/><polygon class="cls-7" points="514.28 581.23 560.22 584.75 664.69 526 607.03 486.58 492.08 530.97 514.28 581.23"/><polygon class="cls-9" points="627.71 373.62 627.71 515.47 548.35 561.48 514.28 581.23 514.27 562.12 514.27 532.95 514.25 439.22 627.71 373.62"/><polygon class="cls-11" points="514.28 581.23 514.24 439.22 400.77 373.62 400.77 515.47 514.28 581.23"/><polygon class="cls-14" points="400.77 373.62 514.24 439.22 627.71 373.62 514.28 308.04 400.77 373.62"/><polygon class="cls-10" points="585.52 439.31 560.22 454 560.22 412.56 585.52 397.86 585.52 439.31"/><polygon class="cls-11" points="585.52 397.86 472.22 332.35 446.86 347 560.22 412.61 585.52 397.86"/><polygon class="cls-24" points="444.96 414.88 444.96 452.81 407.52 431.18 407.52 393.2 444.96 414.88"/><polygon class="cls-22" points="1019.51 639.91 1019.51 499.12 1132.98 442.55 1132.98 575.37 1019.51 639.91"/><polygon class="cls-23" points="1019.51 639.91 1019.51 499.12 906.04 442.55 906.04 575.37 1019.51 639.91"/><polygon class="cls-7" points="1113.51 554.53 1182.35 571.61 1057.45 650.33 1019.55 641.12 1037.93 554.53 1113.51 554.53"/><polygon class="cls-9" points="1132.98 433.52 1132.98 575.37 1053.62 621.38 1019.55 641.13 1019.54 622.02 1019.53 592.84 1019.51 499.12 1132.98 433.52"/><polygon class="cls-11" points="1019.55 641.12 1019.51 499.12 906.04 433.52 906.04 575.37 1019.55 641.12"/><polygon class="cls-14" points="906.04 433.52 1019.51 499.12 1132.98 433.52 1019.55 367.94 906.04 433.52"/><polygon class="cls-10" points="1090.79 499.21 1065.49 513.9 1065.49 472.46 1090.79 457.75 1090.79 499.21"/><polygon class="cls-11" points="1090.79 457.75 977.48 392.25 952.13 406.9 1065.49 472.5 1090.79 457.75"/><polygon class="cls-24" points="950.23 474.78 950.23 512.71 912.79 491.07 912.79 453.1 950.23 474.78"/><path class="cls-4" d="M3199.55,1569.49c-78.27-45.19-204.78-45.42-282.56-.51s-77.39,117.95.89,163.14,204.78,45.42,282.56.51,77.39-117.95-.88-163.14" transform="translate(-810.56 -360)"/><path class="cls-25" d="M3057.24,1602.55c-1.53,5-20.36,10.34-26.59,12s-9.33-.86-9.33-.86-13.33,3.27-15.42,4-1,4.12-16.2,12.31c-14.56,7.84-41.24,11-48.32,10.57a8.56,8.56,0,0,1-.87-.08c-5.4-.8-14.78-7.38-16-11.28s-2.32-9.32,2.28-16.2,33.23-25.58,39.7-28.63,41.5-24.17,41.5-24.17,7.92.49,17.41,1.66c13.53,1.67,30.25,4.71,31.73,9.68,2.51,8.44,1.65,26,.11,31" transform="translate(-810.56 -360)"/><path class="cls-26" d="M3057.24,1602.55c-1.53,5-20.36,10.34-26.59,12s-9.33-.86-9.33-.86-13.33,3.27-15.42,4-1,4.12-16.2,12.31c-14.56,7.84-41.24,11-48.32,10.57a59.32,59.32,0,0,1-8.66-11.51c8,2.53,16.53-.77,24.2-4.15,17.76-7.83,39.89-15.43,55.39-27.26,12.18-9.3,13.93-21.39,13.08-35.78,13.53,1.67,30.25,4.71,31.73,9.68,2.51,8.44,1.65,26,.11,31" transform="translate(-810.56 -360)"/><path class="cls-27" d="M3002,1565.85s-15.66,10.42-12.81,17.88,5.51,7.79,18.48,7.54,30.72-9.42,32.48-17.28-9.54-9.06-9.54-9.06Z" transform="translate(-810.56 -360)"/><path class="cls-25" d="M3078,1207.09c-.67,26.64-2.14,57.72-5,90.79-1.75,20.33-4,41.41-6.92,62.66,7.17,20-5.34,203.33-6.4,210.51-.91,7.17-6.4,9.3-23.49,10.68H3036c-17.24,1.37-35.24-11.6-35.09-14.49.31-3.05-10.37-224.85-11.59-244.37s-.92-31.73-11.14-113.64a712.41,712.41,0,0,1-5.65-82.82c-.3-34.81,2.29-55.68,2.29-55.68l55.08,26.59,47.88,23.12s.34,7.77.55,21.38c.25,15.28.33,37.93-.4,65.27" transform="translate(-810.56 -360)"/><path class="cls-26" d="M3036.17,1581.73c17.08-1.37,22.58-3.51,23.49-10.68s13.57-190.52,6.41-210.5c7.63-55.83,10.83-110.44,11.9-153.46l-37.52-14.8c2,2.29,18,21.36,18.3,54.16.3,34.93-11,90.91-9.15,134.08,1.83,43.32-2.13,160.93-4.73,184.42-.61,5.49-3.81,11.13-8.69,16.78" transform="translate(-810.56 -360)"/><path class="cls-25" d="M3164.76,1636.19c-2,4.33-14.12,13.6-17.62,18.09s-19.92,29.63-29.44,41.22-23.56,21.59-40.32,23.74c-1.29.16-2.55.28-3.76.33-14.61.7-24-6-25.71-8.09-1.85-2.32-3.74-2.92-2.65-10.49s17.26-35.89,26.71-47.23c7-8.43,18.23-23.62,23.74-30.88a42.14,42.14,0,0,1,3.25-4.07l-1.06-.58s43.43-9.8,58.6-9.49c2.64.05,4.44.41,5,1.18,3.7,5.2,5.29,21.93,3.3,26.27" transform="translate(-810.56 -360)"/><path class="cls-26" d="M3164.76,1636.19c-2,4.33-14.12,13.6-17.62,18.09s-19.92,29.63-29.44,41.22-23.56,21.59-40.32,23.74c-1.29.16-2.55.28-3.76.33,8.08-2.13,15.39-6.2,20.77-13.44,18.29-24.66,43.55-41.08,53.28-72.3,2.63-8.45,4.18-17.84,8.82-25.09,2.64.05,4.44.41,5,1.18,3.7,5.2,5.29,21.93,3.3,26.27" transform="translate(-810.56 -360)"/><path class="cls-27" d="M3100.22,1620.66s-8.46,9.55-7.6,16.25c1.91,15,17.24,14.13,27,11.84s32-20.84,30-28.1-49.36,0-49.36,0" transform="translate(-810.56 -360)"/><path class="cls-25" d="M3169,1465.34c.15,61-8.7,154.22-9.76,155.29a57.46,57.46,0,0,1-14,9.46c-12.51,6.11-31.27,9.92-49.57-7.16-10.68-115.63-15.25-215.08-17.85-254q-2.6-41.14-4.84-71.06c-4.1-55.69-6.91-82.7-6.91-82.7s-32.33-22.88-37.52-42.4c-2.14-7.81-3.21-20.89-3.71-33.78-.76-19.33-.27-38.22-.27-38.22s1.93-1.3,5.36-3.45c12.24-7.66,43.65-26.12,75.48-35,37.53-10.45,75.64-7.56,83.61,42.08a92.19,92.19,0,0,1,1.21,10c0,.22,0,.43.05.65.12,1.85.21,3.74.26,5.71,3.51,122.65-36.6,192.81-28.67,233.39.15,13.73,7,81.92,7.17,111.19" transform="translate(-810.56 -360)"/><path class="cls-26" d="M3145.23,1630.08a57.45,57.45,0,0,0,14-9.46c1.07-1.07,9.92-94.27,9.76-155.28-.15-29.29-7-97.47-7.17-111.2-7.93-40.57,32.19-110.74,28.68-233.39a106.38,106.38,0,0,0-1.52-16.32c-7.78,3.36-12.51,5.49-12.51,5.49s4.27,47.29-10.83,127.52-18.61,101.28-16,115.78c2.75,14.64,5.34,47.13,7.17,120.2,2,73.07,2,144.3-11.44,156.51Z" transform="translate(-810.56 -360)"/><path class="cls-27" d="M2979,923.07a32.09,32.09,0,0,0,14.79-2.74,24.17,24.17,0,0,0,10.68-10.07c16.63-29.59,24.71-213.71,24.71-213.71s-27.46,1.22-38.74,30.21c-7,18.46-16.93,72.46-27.31,114.4-5.34,21.81-11,40.27-16.47,48.81l-.15.31a23.82,23.82,0,0,1-1.52,2c-11,13,12.51,30.2,34,30.81" transform="translate(-810.56 -360)"/><path class="cls-27" d="M2834.21,1073.17c3.2,10.07,22.12,3.05,31,.91,8.69-2.13,27.3-26.39,27.3-26.39s5.49-7.17,5.64-14a15.34,15.34,0,0,1,.46-3.81c1.22-5.34,6.1-11.29,23.34-25.78,21.51-18,66.66-60.4,70.78-79,.3-1.68.76-3.21,1.07-4.73,2.44-12.36,1.68-16.32-11.75-12.21v.15a58.08,58.08,0,0,0-7.78,2.6s-15.41-3.21-21.51-9.77c-6.1-6.41-6.1-11.13-6.1-11.13l-.15.31c-1.83,1.68-16.32,17.84-39.51,60.1-24.71,45.15-26.85,50.34-33.41,55.53-6.41,5-12.05,8.69-12.05,8.69s-22.42,13.12-23.49,15.25c-1.22,2.29-5.34,15.41-5.34,16.78,0,1.06-1.68,16.48,1.53,26.54" transform="translate(-810.56 -360)"/></g><g class="cls-28"><rect class="cls-29" x="2788.18" y="706.51" width="345.88" height="313.37" transform="translate(-362.32 2291.71) rotate(-51.69)"/></g><g class="cls-3"><path class="cls-30" d="M3031.65,680.59s-28.13,1.31-41.08,34.24-36.93,111.6-36.93,111.6,18.45,30.66,52.79,37.09,25.23-182.94,25.23-182.94" transform="translate(-810.56 -360)"/><polygon class="cls-31" points="2109.49 676.67 1991.03 699.67 2054.85 733.01 2160.3 707.21 2109.49 676.67"/><path class="cls-26" d="M3152.39,1122.53a27.38,27.38,0,0,0,11.44,2.9,280.65,280.65,0,0,1-85.47,16.4,296.81,296.81,0,0,1-53.53-2.83,283.9,283.9,0,0,1-52.29-12.59c-.3-34.81,2.29-55.68,2.29-55.68l55.08,26.59c12.24-7.66,43.65-26.12,75.48-35,20.82,15.34,37.59,36,47,60.18" transform="translate(-810.56 -360)"/><path class="cls-32" d="M3241.48,792.19c0,7.36-3.16,23.26-6.2,37-2.82,12.77-5.54,23.71-5.54,24.29,0,0-2.75,8.25-6.71,21.36-8.24,27.16-21.21,75.21-24.71,116.23-3.73,42.6-4,74.64-4.1,93.32,0,8.07,0,13.66-.17,16.51-.77,9.46-.91,13.57-22.58,20.13a31.3,31.3,0,0,1-4.88,1.22c-24.41,5.65-91.07,11.75-148.73-9.46-56.13-20.59-47-49.88-47-49.88s.14-.79.4-2.24c1.45-8.5,6.72-39.73,10.26-69.32,1.95-16.21,3.37-31.92,3.37-43.14-.15-35.39-3.51-62.39-4.43-92.9-.91-30.35,10.07-106.78,13.12-122.18,3.2-15.56,11.89-41.18,32.18-47,20.45-5.8,109.23-5.34,121.58,2.9,12.2,8.38,36,27.75,63,50.95s31.11,38.13,31.11,52.16" transform="translate(-810.56 -360)"/><path class="cls-30" d="M3235.28,829.21c-2.82,12.77-5.54,23.71-5.54,24.29,0,0-2.75,8.25-6.71,21.36-8.24,27.16-21.21,75.2-24.71,116.23-3.73,42.6-4,74.64-4.1,93.32-.82,1.31-1.66,2.62-2.5,3.91-21.9-16.82-36.93-41.1-65.44-35.67-27.81,5.3-54.86,14.32-83,17.8-24.17,3-50.61.82-72-9.76,1.46-8.5,6.72-39.73,10.27-69.32,47.9-.84,97.7-10.05,137.27-37.53,41.78-29,21.44-94.73,48.53-134,14.8-21.44,43.42-20.82,61.28-.39a52.12,52.12,0,0,1,6.66,9.72" transform="translate(-810.56 -360)"/><path class="cls-27" d="M3236.42,857.38c-1.11,16.64-2.41,31.46-2.68,40.63a177.93,177.93,0,0,1-2.65,23.89c-5.51,32.46-18.25,73-26.44,96.41-16.23,8.33-33.55-19.73-41.85-35.78-1.71-3.31-3-6.12-3.89-8-.72-1.57-1.11-2.48-1.11-2.48s2.52-72.34,8.48-135.23q.63-6.79,1.33-13.39c6.92-65.51,50.19-64.2,50.19-64.2,22.95-2.33,21.51,54.18,18.62,98.13" transform="translate(-810.56 -360)"/><path class="cls-27" d="M3204.64,1018.31c-2.3,12.85-183.15,32.64-196.62,32.23s-27.12,4.68-37.22,5.9-22.2-.68-22.2-.68l-14.77,4.88s-11.09-3.56-11-7,2.5-7.33,2.5-7.33a8.26,8.26,0,0,1-5.47-1.31,67.36,67.36,0,0,0-6.17-3.41s-6.46.37-7-1.54,0-11.4,0-11.4-4.85-3-4.77-5.46,4.86-9.55,4.86-9.55,16.48-11.27,24.36-14.26,25-3.42,25-3.42,9.46,1.42,12,4.92,15,6.54,46,10.89c20.78,2.92,78.65-14.84,114.52-26.82,17.68-5.9,30.09-10.42,30.24-10.42a21.72,21.72,0,0,1,9.14,1.25c9.41,3,19.74,9.71,19.74,9.71,13.34,11,19.15,20,16.86,32.8" transform="translate(-810.56 -360)"/><path class="cls-33" d="M2865,1015.63s-3.79,3.68-4.64,6.7-1.47,11.1-2.75,15.62-1.43,5.4-1.43,5.4-5.31,4-5.39,6.55,7.73,4,10.29,3.22,8.17-2.16,10.08-6.66a72.86,72.86,0,0,0,3.22-10.16l5.89-2.23s13.12,1.66,13.68-8.45-8.84-13.31-13.91-13.15-15,3.16-15,3.16" transform="translate(-810.56 -360)"/><path class="cls-34" d="M3236.42,857.38c-1.11,16.64-2.41,31.46-2.68,40.63a177.93,177.93,0,0,1-2.65,23.89c-15.45,4.57-36.41,1.13-48.76,11.47-18.14,15.16-9.24,19.85-13,38.58a17.44,17.44,0,0,1-1.25,3.84,18.84,18.84,0,0,1-5.25,6.73c-8.07,6.67-21.53,7.87-30.83,2-1.1.14-2.2.31-3.31.48,17.68-5.9,30.09-10.42,30.24-10.42-.72-1.57-1.11-2.48-1.11-2.48s2.52-72.34,8.48-135.23c21.79-4.72,44.27-5.66,66-1Z" transform="translate(-810.56 -360)"/><path class="cls-32" d="M3211.51,755.2s-27.75-6.16-39.56,37.66c-12.08,44.81-11.86,116.1-11.86,116.1s36.47-3,48.28-2.6,27.08,1.2,27.08,1.2,10.36-93.54,7.84-113.9-7.63-38.73-31.78-38.45" transform="translate(-810.56 -360)"/><path class="cls-27" d="M3051.35,694.56c-.31,16.72-4.82,23.67-1,30,3.3,5.1,32.59,12.68,45.32,7.87,4.36-1.6,8.38-3.38,11.88-5a.6.6,0,0,1,.35-.16c24.66-11.71,30.15-22.25,33-27.17a10.5,10.5,0,0,0,.13-10.52s-17.58-24.66-15.09-45.12c.67-5.33,1.5-16.18,2.16-26.85.91-13.6,1.8-26.69,1.8-26.69s-10.57-22.22-20.78-21.3c-10.21,1.08-59.79,50.9-59.79,50.9s.78,20.72,1.41,40.93c.36,11.4.55,22.62.52,29.86a22,22,0,0,1,.08,3.28" transform="translate(-810.56 -360)"/><path class="cls-34" d="M3050.76,661.42c.36,11.4.55,22.62.52,29.86,3.44.28,8.64-.61,15.79-3.17,31.73-11.51,39.6-9.21,49.22-1.86,8.6,6.8,4.85,29.13-8.43,41,24.66-11.71,30.15-22.25,33-27.17a10.5,10.5,0,0,0,.13-10.52s-17.58-24.66-15.09-45.12c.74-6.1,1.16-12.23,1.6-18.36s2.74-12.86,5-18.74a22,22,0,0,1-9.37,7.29c-3.92,1.72-7.57.15-11.76-.55a175.52,175.52,0,0,0-22.69-2.33c-1.66-.06-18.88-1.2-19.66.86l-18.32,48.82" transform="translate(-810.56 -360)"/><path class="cls-27" d="M3118.42,589.13s-3.85,52.42-9.31,63.37-43.32,38.44-78.9,32.46c-9.43-5.37-23.41-32.23-24.42-55.63a210.63,210.63,0,0,1,.58-30.74,13.71,13.71,0,0,0,.08-3.26c-.47-2.06-7.22-16.54-5.92-23.06,0-.16.07-.35.1-.54,1.35-7.8,4.47-43.21,17.34-58.59,13.2-15.76,48.67-24.68,79.88-11s20.56,87,20.56,87" transform="translate(-810.56 -360)"/><path class="cls-34" d="M3105,607.47c-4.1-1.83-4.76-4.35-7-8.28-2.74-4.91-4.16-12.93-9.84-15.75s-12.26,3.39-17.07,5.67a126.87,126.87,0,0,1-15.71,6.25,100.38,100.38,0,0,1-20.69,4.15c-5.4.54-9.21,5.22-14.57,4.71a22.61,22.61,0,0,1-8.17-2.94,46.43,46.43,0,0,0-5.62-2.7,13.66,13.66,0,0,0,.08-3.26c-.47-2.06-7.22-16.54-5.92-23.06,0-.15.07-.34.1-.54a53.51,53.51,0,0,1,13.61-10.08c12.83-6.79,28-9.68,42.12-6.48,4.83,1.1,9.58,2.93,13.3,6.2s6.23,8.11,5.83,13l6.69-8.8c3.82-2.56,9.22-1.76,12.92,1s5.92,7.05,7.34,11.42c3,9.42,2.81,19.55,2.55,29.44" transform="translate(-810.56 -360)"/><path class="cls-26" d="M3107.54,607.4s-2.42-20.83,10.71-24.13,11.52,19.65,11.52,19.65l-4.16,36.26.3,5.26s14.15-25.54,18.81-33.58,6.85-11.33,8.86-20.34,10.13-47.67,8.69-61.3-24.16-34.79-41.93-36.79c-7.84-11.19-24.36-15.34-40.44-15.91s-28.11-1.44-47.84,13-19.67,26.22-21.26,29.84-3.52,19.86-3.52,19.86l2.64-8.86s7.5,5.27,31.41,3.9,37.33-10.52,37.33-10.52-4.86,16.76-4.14,23,3.86,25.72,3.86,25.72,12.05,7.65,16.05,10.63,5.74,9.68,5.74,9.68l.65,10a5.17,5.17,0,0,0,6.74,4.59" transform="translate(-810.56 -360)"/><path class="cls-35" d="M3003.63,536.7l3.32,4.41s62.56,20.44,68.89,22.17c2.91.77,7.68,3.15,14.68,5.6a150.5,150.5,0,0,0,36.68,8.3l28.55,3.24s9.93-27.15,6.35-52.44c-2.87-20.1-25.47-38.18-52.13-47.06a.17.17,0,0,1-.17-.18,112,112,0,0,0-21.25-4.93c-34.89-4.63-58.94,9.51-70.63,26.09a92.59,92.59,0,0,0-14.29,34.79" transform="translate(-810.56 -360)"/><path class="cls-32" d="M3110.14,481l-.17-.06c6.95,4.34,27.49,10.11,20.64,50.11-1.61,9.4-5.38,18.54-13,24.6-10,8-22.61,4.85-33.67.54-23.76-9.27-46.65-32.2-74-18.95A137.14,137.14,0,0,1,3078,561.79c14.17,10,32.12,13.46,49.17,15.39l28.55,3.24s9.93-27.15,6.35-52.44c-2.29-16.2-16.18-28.58-29.41-36.63-5.43-3.3-16.16-10.88-22.92-9.69-7.67,1.36-13.15,14.73-15.87,21a48.06,48.06,0,0,1,4.06-16.15c1.11-2.48,3.05-5.23,5.76-5-11.87,1.16-24,3.11-34.84,8.39-9.72,4.74-16.81,14.69-24.36,22.43-5.18,5.31-9.9,11.55-11.15,18.86,6.46-15.46,16.82-29.12,29.25-40.27,10.63-9.55,27.87-13.35,42-13.62" transform="translate(-810.56 -360)"/><path class="cls-36" d="M3030.75,600.94a38.53,38.53,0,0,1-1.44,11.65q-.39,1.43-.91,2.83a18.58,18.58,0,0,1-1.25,2.77c-1,1.77-2.18,3.32-3.1,4.93a13.46,13.46,0,0,0-1.17,2.44,10.83,10.83,0,0,0-.34,1.27,8.08,8.08,0,0,0-.09,1.22,4.63,4.63,0,0,0,.71,2.29,8.85,8.85,0,0,0,1.78,1.92,22,22,0,0,0,4.88,2.79c1.75.79,3.58,1.46,5.39,2.18a43.8,43.8,0,0,1-5.73-1.26,19.62,19.62,0,0,1-5.47-2.46,9.09,9.09,0,0,1-2.3-2.2,6.47,6.47,0,0,1-1.14-3.15,3.27,3.27,0,0,1,0-.84c0-.28,0-.57.08-.83a12.58,12.58,0,0,1,.39-1.55,15.18,15.18,0,0,1,1.29-2.83c1-1.75,2.23-3.28,3.19-4.87a30.07,30.07,0,0,0,2.32-5.13,68.37,68.37,0,0,0,2.92-11.18" transform="translate(-810.56 -360)"/><path class="cls-26" d="M3053.54,596.58c-1.11.91-1.56,3.07-1.7,4.11-.26,1.9-.36,5.37,2.52,6.1,4.38,1.12,4.49-4.86,4-6.94a5.45,5.45,0,0,0-1.94-3c-1.26-.94-2.19-.86-2.87-.31" transform="translate(-810.56 -360)"/><path class="cls-26" d="M3013.48,591.76a7,7,0,0,0-1.7,2.94c-.67,2.11-.88,6.36,2.45,7.21,4.38,1.12,4.49-4.86,4-6.93-.29-1.21-1.78-3.93-3.8-3.67a1.84,1.84,0,0,0-.94.45" transform="translate(-810.56 -360)"/><path class="cls-26" d="M3050.68,657.2a24.68,24.68,0,0,1-3.31,4,34,34,0,0,1-3,2.65c-4.37,3.45-8.37,5.36-13,1.42l0,0c-4.15-3.56-6.57-10.92-5.07-16.24.94.22,6.06.38,5.71.85a81.9,81.9,0,0,0,21.37.12c.51-.05-2.39,6.72-2.73,7.23" transform="translate(-810.56 -360)"/><path class="cls-26" d="M3075.32,592.58a108.49,108.49,0,0,0-31.3-3.67c.3-1.83.51-3.53,1-5.33a.42.42,0,0,1,.58-.4c4.33.71,8.83,1.5,13.18,2.44,2.27.49,4.54,1,6.79,1.63,1.88.51,4.16.61,5.78,1.77,1.41,1,2.32,2.89,4,3.56" transform="translate(-810.56 -360)"/><path class="cls-26" d="M3002.27,585.77a45.87,45.87,0,0,1,11.47-.73c1.22.06,13.86,1,13.84,1.74,0-1.85.14-3.56,0-5.41a.59.59,0,0,0-.13-.41.46.46,0,0,0-.32-.08c-3.94,0-8,.11-12.05.38-2.59.17-5.25.31-7.82.66s-3.56,1.53-5,3.85" transform="translate(-810.56 -360)"/><path class="cls-37" d="M3050.85,596.18a8.71,8.71,0,0,1,3.67-1.54,11.48,11.48,0,0,1,4,.09,17.47,17.47,0,0,1,7.24,3,.05.05,0,0,1-.05.09,18.77,18.77,0,0,0-7.29-2.25,23,23,0,0,0-3.76.11,25.24,25.24,0,0,0-3.76.64.05.05,0,0,1-.06,0,.05.05,0,0,1,0-.05" transform="translate(-810.56 -360)"/><path class="cls-37" d="M3017.91,590.53a5.31,5.31,0,0,0-2.42-.84c-.86-.11-1.76-.38-2.65-.54q-2.68-.49-5.42-.72a0,0,0,0,1,0-.05.05.05,0,0,1,0,0,36.15,36.15,0,0,1,5.52,0,13.45,13.45,0,0,1,2.77.36,3.26,3.26,0,0,1,2.27,1.76.05.05,0,0,1,0,.07h0" transform="translate(-810.56 -360)"/><path class="cls-9" d="M3047.81,659.65a3.07,3.07,0,0,0-.43,1.55,34.13,34.13,0,0,1-3,2.65c-4.37,3.45-8.37,5.36-13,1.42a32.25,32.25,0,0,1,16.38-5.62" transform="translate(-810.56 -360)"/><path class="cls-9" d="M3090.5,568.84s-.54.44-1.53,1.21c-8.64,6.72-51.71,38.75-66.78,22.65-.91-1-1.91-1.92-3-2.87-.86-.75-1.79-1.5-2.76-2.24s-2-1.49-3.08-2.22c-1.41-1-2.89-1.9-4.43-2.81-12.11-7.18-27.59-12.56-37.78-12.09a18,18,0,0,0-4.08.58l-13.4,3.56a3.27,3.27,0,0,1-2.35-3.87c.08-.58,1.88-2.1,4.76-4.17,12.92-9.28,47.62-29.9,47.62-29.9s3.11-3.13,10.71-3.9h0a35.44,35.44,0,0,1,5.61-.1c6.61.35,15.46,2.35,27,7.78.57.26,1.15.54,1.72.82,10.84,5.28,24,13.51,39.78,26l1.94,1.55" transform="translate(-810.56 -360)"/><path class="cls-27" d="M3108.51,593.65s7.6-18.4,21.63-10.8-7.46,44.15-16.7,44.39-7.25-9.21-7.25-9.21,10.38-15.33,2.33-24.38" transform="translate(-810.56 -360)"/><path class="cls-34" d="M3126.3,607.2c-2.93,3.25-7.05,5-9.61,8.64-.74-6.77-6-18.36-.22-23.92,10.32-9.87,16.71,7.67,9.83,15.28" transform="translate(-810.56 -360)"/><path class="cls-9" d="M3116.29,484.41,3101.58,481a3.53,3.53,0,0,1-2.65-4.24l.76-3.27a3.53,3.53,0,0,1,4.24-2.65l14.71,3.41a3.53,3.53,0,0,1,2.64,4.24l-.76,3.27a3.53,3.53,0,0,1-4.24,2.64" transform="translate(-810.56 -360)"/><path class="cls-9" d="M3008.84,581.31l4.5,4.06c-1.41-1-2.89-1.9-4.43-2.81,0-.42-.06-.83-.07-1.25" transform="translate(-810.56 -360)"/><path class="cls-10" d="M3090.5,568.84s-.54.44-1.53,1.21c-8.64,6.72-51.71,38.75-66.78,22.65-.91-1-1.91-1.92-3-2.87a73,73,0,0,0,23.05-9.73c14.56-9.4,14.89-23,6.33-37.44a19.93,19.93,0,0,0-1.52-2.21c.57.26,1.15.54,1.72.82,10.84,5.28,24,13.51,39.78,26l1.94,1.55" transform="translate(-810.56 -360)"/><path class="cls-10" d="M3020,532.67a19.32,19.32,0,0,1-3,3.13c-7.83,6.94-17.21,11.84-26.06,17.45-7.45,4.72-14.74,10.17-19.88,17.22a17.94,17.94,0,0,0-4.08.58l-13.4,3.56a3.26,3.26,0,0,1-2.35-3.87c.08-.58,1.88-2.1,4.76-4.17,12.92-9.28,47.62-29.89,47.62-29.89s3.11-3.13,10.72-3.9h0a35.49,35.49,0,0,1,5.62-.1" transform="translate(-810.56 -360)"/><polygon class="cls-4" points="1392.96 1002.76 1151.16 1098.89 538.93 1482.46 1646.51 2133.57 1714.35 2106.03 2318.6 1728.75 1392.96 1002.76"/><path class="cls-38" d="M1961.73,1531.25l-.1,35.91a2,2,0,0,0-1.76,0l.1-35.91a2,2,0,0,1,1.76,0" transform="translate(-810.56 -360)"/><polygon class="cls-38" points="1161.54 1177.24 1161.44 1213.15 1151.06 1207.16 1151.16 1171.25 1161.54 1177.24"/><path class="cls-38" d="M1732,1699.86l.1-35.91a.61.61,0,0,1,.35-.5l-.1,35.91a.61.61,0,0,0-.35.5" transform="translate(-810.56 -360)"/><path class="cls-39" d="M1732,1699.86l.1-35.91a.62.62,0,0,0,.36.51l-.1,35.91a.62.62,0,0,1-.36-.51" transform="translate(-810.56 -360)"/><polygon class="cls-38" points="1149.4 1171.25 1149.3 1207.16 921.81 1339.36 921.91 1303.45 1149.4 1171.25"/><path class="cls-39" d="M1972.46,1537.76l-.1,35.91a.61.61,0,0,1-.36.51l.1-35.91a.61.61,0,0,0,.36-.51" transform="translate(-810.56 -360)"/><polygon class="cls-39" points="932.3 1310.46 932.2 1346.37 921.82 1340.38 921.92 1304.47 932.3 1310.46"/><path class="cls-39" d="M1972.1,1537.24a.54.54,0,0,1,0,1l-227.48,132.2a2,2,0,0,1-1.76,0l-10.38-6a.54.54,0,0,1,0-1L1960,1531.25a2,2,0,0,1,1.76,0Z" transform="translate(-810.56 -360)"/><path class="cls-39" d="M1744.62,1670.46l-.1,35.91a1.94,1.94,0,0,1-1.76,0l.1-35.91a1.94,1.94,0,0,0,1.76,0" transform="translate(-810.56 -360)"/><polygon class="cls-38" points="1435.77 1055.29 1435.67 1091.2 722.55 1505.61 722.66 1469.7 1435.77 1055.29"/><polygon class="cls-38" points="2353.9 1585.37 2353.8 1621.28 1435.67 1091.2 1435.77 1055.29 2353.9 1585.37"/><polygon class="cls-24" points="2353.9 1585.38 2353.8 1621.28 1640.69 2035.7 1640.79 1999.79 2353.9 1585.38"/><path class="cls-38" d="M2829.22,2200.85c-7.87,4.58-11.88,10.54-12,16.53l.1-35.91c.15-6,4.16-12,12-16.53,16.13-9.37,42.37-9.37,58.6,0,8.31,4.8,12.39,11.12,12.22,17.41l-.1,35.91c.16-6.29-3.91-12.61-12.22-17.41-16.23-9.37-42.47-9.37-58.6,0" transform="translate(-810.56 -360)"/><path class="cls-39" d="M2900.15,2182l-.1,35.91c0,6.1-4,12.2-12,16.85-16.13,9.37-42.36,9.37-58.6,0-8.17-4.72-12.25-10.91-12.23-17.09l.1-35.91c0,6.18,4.06,12.37,12.23,17.09,16.23,9.37,42.47,9.37,58.6,0,8-4.66,12-10.75,12-16.85" transform="translate(-810.56 -360)"/><path class="cls-26" d="M2887.92,2164.94c16.23,9.37,16.32,24.57.19,33.94s-42.36,9.37-58.6,0-16.32-24.57-.19-33.94,42.36-9.37,58.6,0" transform="translate(-810.56 -360)"/><polygon class="cls-24" points="1640.79 1999.79 1640.69 2035.7 722.55 1505.61 722.65 1469.7 1640.79 1999.79"/><polygon class="cls-24" points="2353.9 1585.38 1640.79 1999.79 722.65 1469.7 1435.77 1055.29 2353.9 1585.38"/><path class="cls-40" d="M3286.13,1987.8c4.64,2.68,4.66,7,.06,9.7l-744.44,432.62c-4.6,2.67-12.1,2.67-16.73,0l-1082.62-625c-4.64-2.68-4.66-7-.06-9.7l744.43-432.62c4.61-2.68,12.11-2.68,16.75,0Zm-834.78,372,713.11-414.42-918.13-530.08L1533.22,1829.7l918.13,530.08m378.17-160.9c16.23,9.37,42.46,9.37,58.59,0s16-24.57-.18-33.94-42.47-9.37-58.6,0-16,24.57.19,33.94M1744.63,1670.47l227.49-132.2a.54.54,0,0,0,0-1l-10.38-6a2,2,0,0,0-1.76,0l-227.49,132.2a.54.54,0,0,0,0,1l10.38,6a2,2,0,0,0,1.76,0" transform="translate(-810.56 -360)"/><path class="cls-38" d="M1972.09,1538.28h0s0,0,0,0c.44-.29.46-.72,0-1Z" transform="translate(-810.56 -360)"/><path class="cls-38" d="M1438.8,1836.1l.1-35.91c0,1.77,1.16,3.54,3.49,4.89l-.1,35.91c-2.33-1.35-3.5-3.12-3.49-4.89" transform="translate(-810.56 -360)"/><path class="cls-38" d="M3289.62,1992.69l-.1,35.91c0,1.74-1.15,3.49-3.44,4.82l.1-35.91c2.29-1.33,3.43-3.07,3.44-4.82" transform="translate(-810.56 -360)"/><polygon class="cls-25" points="2475.62 1637.5 2475.52 1673.41 1731.09 2106.03 1731.19 2070.12 2475.62 1637.5"/><polygon class="cls-26" points="1714.45 2070.12 1714.35 2106.03 631.74 1480.98 631.84 1445.07 1714.45 2070.12"/><path class="cls-26" d="M2541.75,2430.12l-.1,35.91c-4.6,2.67-12.1,2.67-16.73,0l.1-35.91c4.63,2.67,12.13,2.67,16.73,0" transform="translate(-810.56 -360)"/><path class="cls-10" d="M2080,1636.83c-11.9,5.73-23.41,12.2-35.15,18.26l-8.81-15.39c12.11-6.27,24-13,36.31-18.87Z" transform="translate(-810.56 -360)"/><path class="cls-10" d="M2138,1612.82c-12.28,4.93-25,8.82-36.93,14.59l-7-16.29c12.29-5.93,25.32-9.94,38-15Z" transform="translate(-810.56 -360)"/><path class="cls-10" d="M2198.07,1594.29c-12.92,3.08-25.56,7.06-38.18,11.15l-5.44-16.88c12.93-4.18,25.89-8.26,39.1-11.41Z" transform="translate(-810.56 -360)"/><polygon class="cls-10" points="1448.96 1220.57 1409.94 1228.53 1405.95 1211.26 1445.84 1203.12 1448.96 1220.57"/><path class="cls-10" d="M2321.93,1572.07c-13.19,1.48-26.43,2.57-39.51,4.91l-2.62-17.54c13.37-2.38,26.9-3.51,40.38-5Z" transform="translate(-810.56 -360)"/><path class="cls-10" d="M2384.78,1568.37c-13.27-.2-26.51,1.1-39.76,1.74l-1.23-17.69c13.55-.66,27.08-2,40.67-1.78Z" transform="translate(-810.56 -360)"/><path class="cls-10" d="M2447.66,1569.74c-13.24-.5-26.48-1.31-39.73-1.58l.23-17.73c13.58.28,27.16,1.09,40.74,1.62Z" transform="translate(-810.56 -360)"/><path class="cls-10" d="M2509.92,1577.49c-13.06-2-26-4.52-39.27-5.48l1.89-17.63c13.58,1,27,3.55,40.46,5.64Z" transform="translate(-810.56 -360)"/><polygon class="cls-10" points="1760.04 1232.25 1741.2 1226.45 1721.93 1222.04 1725.8 1204.73 1745.77 1209.32 1765.42 1215.35 1760.04 1232.25"/><path class="cls-10" d="M2628,1615.7c-5.7-3.1-11.63-5.86-17.54-8.6l-18.22-7.32,6.38-16.55,19.14,7.7c6.25,2.89,12.51,5.82,18.59,9.12Z" transform="translate(-810.56 -360)"/><path class="cls-10" d="M2677.39,1651.21a201.15,201.15,0,0,0-29.92-24l9.73-14.83a218.51,218.51,0,0,1,32.74,26.33Z" transform="translate(-810.56 -360)"/><path class="cls-10" d="M2708.22,1701.09a106.72,106.72,0,0,0-16.54-33.15l14.38-10.39a124.43,124.43,0,0,1,19.19,38.59Z" transform="translate(-810.56 -360)"/><path class="cls-10" d="M2707.28,1758.87a105.79,105.79,0,0,0,4.49-36.67l17.7-1.06a123.49,123.49,0,0,1-5.21,42.82Z" transform="translate(-810.56 -360)"/><path class="cls-10" d="M2678.53,1811.46a169.23,169.23,0,0,0,20.67-32.19l15.93,7.8a187.08,187.08,0,0,1-22.72,35.44Z" transform="translate(-810.56 -360)"/><path class="cls-10" d="M2634.57,1854.53a291.39,291.39,0,0,0,29-26.15l12.74,12.33a308.61,308.61,0,0,1-30.75,27.72Z" transform="translate(-810.56 -360)"/><path class="cls-10" d="M2582.84,1889.26c11.36-6.67,22.62-13.53,33.34-21.11l10.14,14.55c-11.21,7.91-22.9,15-34.68,22Z" transform="translate(-810.56 -360)"/><g class="cls-41"><g class="cls-42"><path class="cls-43" d="M2500.6,2074c-114.87,66.32-301.7,66-417.3-.75s-116.18-174.6-1.31-240.93,301.7-66,417.3.75,116.18,174.61,1.31,240.93" transform="translate(-810.56 -360)"/></g></g><path class="cls-32" d="M2631.82,1761.39c0,171.9-139.35,311.24-311.24,311.24s-311.24-139.35-311.24-311.24,139.35-311.24,311.24-311.24,311.24,139.35,311.24,311.24" transform="translate(-810.56 -360)"/><path class="cls-44" d="M2616,1761.39c0,163.17-132.27,295.44-295.44,295.44s-295.44-132.27-295.44-295.44,132.27-295.44,295.44-295.44S2616,1598.22,2616,1761.39" transform="translate(-810.56 -360)"/><path class="cls-45" d="M2047.42,1829.07c-.05,0,0,0,0,0" transform="translate(-810.56 -360)"/><path class="cls-30" d="M2237.18,1477.9a295,295,0,0,1,75.49-11.85l1,1.48-8.46,6.62V1481l-2,6-8.47,5.14-7.55,6.71-5.15,11.83-7.55,11.18-4.79,14.88-1.66,3-5,.23-1.66-1.63-1.49-3-3.66-.47-2.58,1.63-4.78,1.16-2.21-5.35-1.66-4.18.55-3.72v-4.42l-2.58-5.35-1.66-5.35v-6.51l-2.94-5.11s-.55,5.11-.55-7.9c0-12.63-8.44-.16-.7-11.95m372.27,298-7.36,4.66-10.55-3.93,1.63-6.15.82-9.07-2.56-1.6-2.1,3.26s-3.92,7.9-3.92,1.77v-6.13l1.82-3.83-3.33-6.24-4.14-8.34-.15-8.56,2.1-.8,1-3.9,2.95,3.93,2.66-3.22,5.44,17.62,4.89,5.47,3.74,4.82,3.34,3.84,4.47,4.09,3.07-4.17,2.74,3.41c0-.48,0-1,0-1.45,0-106-55.82-198.92-139.66-251.06l-4.36,2.9-2.76,6-3.41,1.67-3.85,3.19-4.17-3.93s4.31-2.66-1-1.94l-5.29.72-11.65,3.92-1.23-.73-.18-6.52-4.48-.6-5.09,3.35-2.76,1.06,1-2.39,1.37-1,0-2h-2.08l-1.6.43-.79-1,.79-1.32-1.28-2.21-.24-2.28,1.28-1.77,2.42-2.8.73-2.11s-.82.18-.51-1.85l.31-2,1.48-.9,1-2.14.05-2.08-.93-.78-1.62.26-1.14,2-1.84.69-1.39-.42-.58-.76-1.65.61-.37.94-1.63.77-1.31.68s.33.56,0,2.51l-.33,2-1.26,2.71.23,2.76.7,2.4-1,1-.68,2.27s.92,1.53,1.72.61l.8-.92,1.17.55-1,1.59-.86.06-.37,1.59,1.78.31-.74,1.47s-.43-1.47-1.53.25l-1.1,1.72-1.23-.49-.31-.92-.5-1.32s-.3-.62-1.28.13l-1,.75-1.11-.12-1,.3-.47,1.07-1.68.4-1.84-.43s.81.2,0-.69l-.77-.9-2.27.49-1.09,1.28-.39.57-2.08.91-.18.57-.06,1.21-.68,1.84-2,1.79L2394,1527l-.92.92-1.66.49-1.28-.17-2.95,1.71-1.66,1.41-1.59-.25-1.72-.4-1.47,1.75,1,1-.74,1.78-.92,1-2.58,1.78-1.15-.36-1.95,0-.83.25-1.3,1.17.09,1.21v1l-1.6.06-.92-.68-1.23-.61-1.59.06-.31-.77.22-.36.58-.64-.17-.9-.83-.42-1.12-.33-.77-.69-.19-.82-.66-.66v.66l-.35,1-.37,1,.43,1.49.09,1,.69.44-.21.8-.23,1.06.06.67-.42.52-.07.64-.58.57-.95-.38-2-.76-1.31.46-.46.1-.18-.85.18-.57-1.25-.76-1.31-.13-.91.1-.83.45h-1.66l-1.45-.36-.82,0-1.26.42-.46.58.46,1.11s-.21.14.48.52l.69.38-.82.58-.19.9.45.32-.66,1.42.86.43h1.11l.84-.27.49.32.86.11,1.38,1.06.39.73.68.17s-.07-.07.21.8l.28.87.87.12,1.18-.43-.17.69-.52.52,0,.88.58.63,1.15.44.24.69-.66.63-.52,1.05.13,1.12.59.75.64.64.07.94.84.21,1,.76.38,1.07-.64.72-.85,1.53.59,1.18-.28.9-.74,1.58-.23,1.88-1.07.94-.68,2.48-.23,2-1.55,2.3-.7,1.89-.62.9-1.28.17-.52-.35s-.23-.13-1,.08l-.76.2-1-.56-.61-1.19-.63-.2-.56.63-.79.21-1.56-1.39h-1.66l-1.21-.25h-2.08l-1.42-.45-.73-.63-.69-.59-1.52-.21-1.26,0-1.65-.24-1-.84-1.27-.69-1.18.2-1.45,0-.17-.76s1.27-.37-.42-1l-1.7-.65-1.31.05-.85.59-.76.78.08.78s0,.21-.49.28l-.49.07-1.3-.36-2,.84-.85,1.13.28,1.66.87.58.12,1.09.5.33-.8.55-1.11,2.57-.55,2.28v3.53l-.28,1.49-.66,3.22-1.11,3.29-1.26,1-2,2.94-1.89,2.35-1.46,3.26.83,3.22,1.67.3,1,.61,0,.83-1,1.18-1.32,1.8,0,2-.87,1.32,0,1.34-1.36,1.85.52.66,1.08-.71,2-.73.69.41.65.62,2.39.38.73-1.14,1.23-.44.29.44.14.9,2.62,1.25.19,1-.19,1.38.36,1.46,0,1.11.65,1,.38.5.12,1.39.93.68,1.25.18,1.15-.66,1.29-.32,1-1.21,1.25-1.21,1.24.34,1.46.27,2.32-.27,3.22.1,1.8,1.17,1.62-.28,1.23,0,.72,0,.64-1,.48-.57.62-2,3-1.35,1,.51.66.49,1,.11.17-.66s0,.08,0-.82v-.9l.18-.87,1-1.59.8-1,.92-.44.75-.22,1.44-.13.1-1.14,1.52-.52,0-.9-1.14-1.14-1.06-.72v-3.32l1-1.32,1.82-1.57,4.49-4.24.29-1.78.44-1,1.14-.28,2.34,0s.38.55,1.39-.4l1-1,2-.22,1.27-.55.73-1,2.39-.76.76-.86,0-2,.38-1.75-.35-1.35.86-2,.91-1,1-1.11,1.13-.07.47-.55s-.21-.28.59,0l.8.28,1.14.69,2,.88,1.56.19,1.34,1,1.88,1,1.52.66,2.49-.69.66-1,1,.21.57.61s.1.68.62.56l.51-.13.83-.25.86-1.59.69-1,1.16-1.35.54-.91,1.47-.33.34-.14.69-.71,2.22-.35.55.26.52,1,.66.78s-1.35.55-.1,1.45l1.25.9.86-.08.73,1-.62,2,.54,1.76.94.77-.49,1.29-.54.69-.74.2-.82,0-.64,1,.35.66.9.52,1.18.38.93-1.82.46.43.48,1,.94,1-.24,1.7.24,1.07a2.74,2.74,0,0,1,1.73,0l.83.31-.56,1,.62.94.69.95.55-.08,0,2.26,1.32,1.27,1.94.52,0,1,1.46.42,1,1.14,1.14,2.36,1.08.87,1.31.62-1,1.5.88.16,1.27.16.87.77-.21,1.8,1.25,1-.22,1.14,1.63.54.84.26.38,2,.31,2.67-.76,1.32.66,1.67-.52,1.07-.73.24-.52,2.11-.87.31-1.54,0-.92.76-1.46-.17-1.11-.52-1.73,1s.3.38-1.84-.28l-2.15-.66s1.21-.93-.73-1.56l-1.94-.62-.66.52s.52-1.59-1-.42l-1.52,1.18.18,2.2.13,1.85,2.38.73,1.46,1.69,1.58,1.35,1.43,1.49.89.69.94,2.09,1.45.8,1.64.19.57-1.71,1.33-1.92-.8-1.63.21-1.94,1.07-1.68.92-1,.72.81v.8l1,.52,1.07.55.24-1.21.17-1.23,1.18-.71.62.52.73-.31.21-.86s-1.38,0-.13-1.72l1.25-1.67.93-.22.32.58.38.25.86-.83-.18-1.38,1.15-2-.21-1.14-1.35-.34-1.49-1-.21-1.37-.2-.95,2.28-3,.49-.61,1,0-.34.84.35.78,1.62.42,0,.47.72.29.52-.48.24,1.87.35,1.91,1.25.69,1-1.32.19-2.12-.48-2.16-1.82-3.34-2.53-1.63-.59-1.63-2-.66-2-.8-1.07-1.7-.07-.87,1.56.24.18-.87.27-1.66-1.18-.86-2.29-.1-.86-.27-1.18.1-.69-.76-3.33-5.89-.21-2.63-.69-1.91.32-1.56-1.64-2.8-2.11-.83-1-1.87-.76-1,.33-2-.15-1.65,1.59-.07.38-.42-.19-1.9-.77-.21v-1.07l.41-.76,1.18,0,.73.1,1-1.52.69.11.83-.25.45.48-.13,1.11s-1.84.55-.46,1.21l1.39.66.48.52-.16,1.63-.81.87,1.1,1.46.77.16.59-1.15.42,1-.09.84.3.79,1,.2.58-.07.3-2.17,1.28,2.15.8,1.42-.83.94-.66.89-.09,1,.41.73,2.34,1,1.19,1.62-.35,1,.45,1.14.47.66.16,1,1.26.09s1.09-1.06.75.36,0,.91-.35,1.42l-.33.51.57.53,2.08.59.87-.55,2.11.59s.87,0,1.35,1.28l.48,1.33,2.15,2.34s1.27-.89,1.42,1.21l.15,2.1.16,1.23,1.37.56.57.06a7.37,7.37,0,0,1-1.49,2.18l-.61.35.25,1.27-.34,3.09-.66,1.48-.55,2.27,1,.55.28,1.07h1.35l.24,1.25-.07.55-1.14.14-.14-.66-.76,1s-.52-.14-.14,1,.35.93.35.93l1.14,1.21,1.94.45.45,1.21,1.56,1.66,0,.73s-1.59-1.28-.73,1.42.84,2.55.84,2.55l.23,1.16,1.91.59.23-.87,2.25.86,2,1,1.28-.1.56.83,1.42.14.8-.45,0,2.11-.11,1.16,1.46.88,1,.07,1.12,2.1,1.51-.41-.8-1.77-.83-1.07,0-1.33.42-.33.83,1.8,1.87.9.83-1.14.48-.41-.17-1.66-2.24-.28-.33-.48-.34-1.91-.9-1.08-.86-1.14.07-1-1.25-.9-1.18-4.61-1.16-1.09-.62-1.86-.51-2,.45-1.52h.55s.3-.12.48.45l.18.57,1.38,1.52.52.68,1.7,0,.9-.74.65-.63.81-1.23,1.32-.59.31-1.25,1.32-.59h1.77l.82,1.09,1.07.61,1,.9,2.11-.52.17,1.18s-2.24-.42-.36.93l1.87,1.35,1.23,0,0,.42-.42,1.35-.45.52-.83.62-.58-.77-1.23.29-.22.84-.06,1.79.16,1.36-.24,1.09-.7.29-.63.12-1.14.95.59.69.45.66,1.37.6.92-.12.45.35.87-.76-.59-1.43,1-1.4.8-.08.79.47-.66,1.66-.76,1.52.83,1.07-1,.83-1.07.45-1.07-.59-.81.39-.85-.11-.66-.62-.69.93-.17,1.21s-.63,1.51.1,1.73l.72.22.73.15.46-1.16.7-.51.48,1.06.17,1.72s.11.93.73.69l.62-.25,1.26,0,1.45,1.21-.62,1.07-.66.38-1.59-.73-.91.37-.26,1.33.07,1.07.69.59,1.14-.52.27.38-.13,1.45,1.18.48-.94.62s.47.41-.18,1l-.65.58-1,.33-.3,1.33-.88,1.31,1.8-.1.69-1.2.62-.5.73-1.52,1.91-.28s2.34-.31,1.49.38l-.85.69-1,.11-.76,1.12.55.79,1.59-.24-.32,1.42s.2-1-.91.41-1.12,1.15-1.12,1.15l-.1,1,.07.87.94.64,2-1-.25-.79.78-1.37.15-1.94,1.45-.58,0,1.46,1.14.94.52-.31,1-.76v1.49l-.76,1.18.52,1.63,1.63,1,1.45.55.91.58,1.35-.17.88-1.43.89-1.32-.25-2.16,1.33-1.15,1.47.32.83,1.12,3.59,1.78.06,1.56,1.35,2.18,3.68,1.71,1.44-.7,1.12.66,1.87.77.81-2.36.81-.92,1.73-1.41.88,1.92,1.56.6,1.61.46.6-1.1,1.15-1.29.77.32,1.16.51-.32,1.24-1.61.47-.41,1.6,0,1.2-1.38,2.34-.42,1.89,1.66,3.22-1.55,1.28.12,1.15.65,1.3-1.47,1.24-2.25,4.79-.6,2.76-1.53,2.11-3.66,10.32-2.3,1.84-2,0s.32-1.15-3.36-.37l-3.68.78-2.21-4.6-2.26-.74-1.75-1.29-3.37.35-1.87,1.41-2.76,1.09-1.62,1.57-2.12-.18-1.24-2.25-2.71-.51-6.08-4.44-8.16-1.68-3.45-5.63-6.7-2.47-3.67-6.16-6.24,1.52-5.74,1,.18,6.63-.76,6.19-4.42.94-3.41-4.06-3-4.92-6.21-.38-3.92-5.88.74-5-5.1-2.23-5.06-.7-8.79-4.25-3.9-7.57,3.53-6.23,2.49-2.69-1.09-5.88,4.06-7.25-3.44-1.85-2.39,1.47-.91-3s2-2.68-4.79-.47l-6.81,2.21-5.58-2.25-8-2.35-16.26.9-11.53,3.19-6,3.12-6.89-1.89-4.39-3.86-3,2-2.33-3h-3.25l-2.48,4.94-3.68,4.76-7.8,4.07-8.36,5.36-3.63,10,1.06,6.19L2290,1677l-7.9,3.92-9.28,3.26-4,6.26-7.19,3.31-3.05,10.37-7.8,6.37-4.76,10.16-5.36,6.4.74,5.06,4.6,1.57-2.71,5.25-1.09,3.92.58,7.32-3.12,8.7-2.47,5.08-.94,3.48-5.22,7,2.64,8.24-2.64,6-1.16,5.87,2.69,5,3-.88,1.52,5.8,3.26,8.05,1.89.87-1,12.48,6.63,11.23,6.33,8.64,5.82,10.87,6.26,6.07,6.63-1.66,2.86-3.22,11.14.77,4.58,5.4,5.52,1.66,2.46-3.79,2.51,1.58,6.46-4.48,5.5.43,12.92-1.59,6.22,2,1.12,8.33-.39,6.39,4.5,2,2.18-1.16,8,.58,4.78,4.33,1,7.56-1.76,11-2.81,3.26-.44,5.29-3.93,4.88-2,9.76,9,25.77,3.86,7.55-4.66,4.42,5.27,13.77-2.89,7.26,3.27,14.31-3.44,10.55-5.2,2.11-6.33,5.74-1.64,11.81-3.27,10.49-1.45,8.66,2.18,8,.57,3.93A293.82,293.82,0,0,0,2490,2003.45l-.14-9.19,3.63-2.33-2.76-6.31,7.18-12.91,5.22-10.51,5.08-3.41,4.06-3.48,3.35-8.16,10.06-6.64,10.52-8,10.37-8.12,8.41-11,5.15-7,6.24-12.4,5.29-8.34,2.18-5.95,3.7-2.18,1.76-3.59-2.71-1.41,1.74-6.09,1.52-1-3.91-1.07-1.06-1.51-1.19,3.11-2.3,1.06-3.43.75-2.47.07-4.78-1.49-5.71.37-3.31,4.23-4.78-3.86-3.31,2.58-5.34-1.48.12-4.33-1.59-2.29h-3.31l1-2.65,2.21-.71,1.75-1.62-.68-2,.88-4.68-2.82-1.27-2.66-2.34.19-3.32-2.17-3.77-.6-2.87-2.89-2.64-3.55-1.75-2.76-4.79.35-8-1.64-2.7,1.27-6.53-3.3-2.48-2.76.55-5.15-26.5.28-26.94-8.38-18-3.68-19.88,4.16-2.11,9.14,13.05,3,6.82s4,8.8,6,23.5l2,14.69,7.2,21.42,12.67,22-4.19,17.29,4.19,18,16.77-2,19.29-6.23,8.92-4.5v-6.88l13.34.72,6-3.91,2.13-2.51a296.08,296.08,0,0,0,7.06-59.38Zm-430.89-273.6v1l5.15,2.7,4.66,1s2,3.38,4.91-2.7l2.92-6.08,3.55-3.41,5.3-1.8-3.19,10.06,3,4.5,2.93,3.84-6.13,6.14,2.45,4.91,4.42,1,.69,2.92,6.24,2.1,1,2.68-1.56,3.34.49,2.7,4.84,1.72-3.77,6.38,1.14,3.93s-5.05-1.89-8.54,1.88l-3.49,3.77-3-.29-8,4.5-2,2.66-9.08-.49-1-3-10.32-1-5.2,3.07-3.63,3.07-10.55,1.72-2.45,4.66-2.94,3.68-7.12,5.4h7.12l6.38-5.4,4.42-4.17,4.17-2.21,3.93-1,3.19-.49,6.05.16,3,.82-3.93,5.64-6.13,3.93-.49,4.42,3.9,4.84,5.51,2.76,1.52-1.09,4.71-3.12,1.77-5.85h5.4s-5.43,3.82-3.62,5.92l1.81,2.1-1.63,4.49-5.55,1.31-1.6,3.11-7.57,1.23-4.89-.71-2,3.48-5.51,3.84h-4.74l.24-3.68,6.38-2.95,1.38-3.54s-.29-4.28-3.41-1-2.76,2.39-2.76,2.39l-4.21,2-6.53,2-3.87-.6s-1.23-1.72-4.91,3.93l-3.68,5.64.63,2.71-3.21.72,2.58,3.31,3.75-1.28.54,3.25-1.84,1.6-3.19.86-2.08.12L2129,1617l-1-.49-6.26.61-1.47,2.94,3.56,2.09-3.07,1.72-4.42.24L2116,1630l-5.15,2.45-.86,2.94-2.09-3.44-1.84-1.47.86,3.43,2.05,2.74-1.81,3-2.47,3-2.54,3.19s-1.82.87-.36-2.54,2.54-1.23,1.45-3.41l-1.09-2.18s1-9.89-.93-.32c-1,5.06-2.26,5-2.81,4.61a14.93,14.93,0,0,1,.89,1.53c.48.92.8,1.57,1,2,.66,0,1.59.47,1.77,3.24l.29,4.41-3.56,1.72.15,3.16-1.86,2.24-2-.86-.49,2.45-2.09,2.21-2.21.12-2.09,1.84-1.23,2.7-3.07.49-1.62,1.42-2.43,4.1-6.75,4s-2.33-2.58-3.68,3.56-1.35,5.64-1.35,5.64l-1.72,3.19,1,4.78.74,5-1.1,2.58,1.84,2.09-.74,3.43.37,5,1.84,2.33-1.84,3.93-2.7,2.95-.21,3.23-2.37.95-2.09-1.72-1.35-4.16-1.84-2.22v-2.82l-.19-2.5a4.78,4.78,0,0,1-1.53-4.13l.49-2.33,1.76-5,.08-4.57-1.89-.36-3-3.56-1.23-2.21-1.84,1.35.12,1.47-.12,1.84-2.21.37-1.57-3-.64-2.12-3.28-1.21-.28,1.21L2040,1691l-1.92,1.27-2.07-.69.87-3.12s-2.24-1.47-2.24.13v1.59l-.89.09a296,296,0,0,1,144.8-188.05m24,530a296.24,296.24,0,0,1-164-182.46l.05-.51.74-.87,2.48-1.06.29-1.23-1-1-.09-1.56.18-.28,1.06-.42.89-.71-.34-2,.42-1.84,1.52-.87,1.7-.87,1.38-.87-.18-1.24c-.18-1.24.37-1.52.37-1.52l2.9-3.41-.69-.51-1.15.87-1.2-.64a4.07,4.07,0,0,0-.5-.24c.06,0,.13-.08-.43-.72-1.1-1.29.51.64.14-1.15s.14-1.61.14-1.61l1.1.55.83-.28-.09-1.75,1.43-.92L2050,1821a9.39,9.39,0,0,0-.78-2.58l-.41-1.84.55-.87h.92l.07-1.59-1.12-1.13-.18-1.43.95-1.22-.21-2.83-1.33-2.62-3.13-3.82.14-2.85,0-2.53-1.17-.64-.67-1.56-1.65-.39-1.48.21-1.33,4.28-1.46.15-1,.12-.86.6,1,1.15-.51.55c-.51.55,1.42,1.64,1.42,1.64l.47,1.26-.37.83-.83,1.38-.92.32-2.85-.14-.92-.78c-.92-.78.41-1.93.41-1.93l-1.88.08,0,1.63-1.13.4-1.08-.68,0-1.29.31-.93.65.22.58-1.31.49-1.2-1.24.37-1.24-.64-.78-1.29-.18-.06c-.36-2.9-.67-5.82-.94-8.75l1,.95c1.15,1.06,0,1.1,0,1.1l.32,1.15,1.29-.14a5.41,5.41,0,0,0,1.29-.18l1.15.41.41,1.52h1.56l2-1.57.64-1.24,2.12-.32.87-.64.46-1.2c.46-1.2.55-1,.55-1l1.33.37,1.75.13-.23,1,.51.51,1.84-.32,2.85.88,1.29,2.39,2.16,2.94.74,2.3-.37,1.7c-.37,1.7,1.15.87,1.15.87l1.15-1.06-.37-1.66-1-1.24.32-1,.32-.87,2-.84.69-2.42,2.16-1.38,1.52-.19-.14-1-.46-2.16.78-5.15,1.75-1.47,1.56-1.66h.87l1.63,1,.63-.53-.46-2.07,1.7-.83,1.43,1,2.58.09,1.56-1.89.83-1.52,2.25-.51.28-1.52,1.09-2.94,3.14.72,1.55,2.32-.6,2.48-1.52,1.84-2.3.14.23,2.11,1.33.92.74-2,1.15,1.93.83-2,2.44-.23,1.38-.55.14-1.24-.92-2v-1.52l1.24-1.61c1.24-1.61,1.52.23,1.52.23l.87,2c.88,2-.87,1-.87,1l.37,1.6,3.33.94,4.79,1.87-1.23,2.84,1.23,1.89,5-.51,2.56-.91,5.06,4.39h2.61l2.32-3.34-2.81-3.45,2.38-2,3.87-.55h2.95l5,2.58-5,3.68,1.8,2.38,3,0,3.86-.37,2.94,3.86-1.67,2.14-2.2,3.74,6.85,3.37,4.93,11.17,4.42,2.21,8.47,4,5.89,8.47-.74,12.15-4.78,15.83v8.83s0-8.83,5.52,11.41l3.31,5.15,8.47,4.79-4,6.26-2.58,7.73,2.58,7.7h8.25l1.32,7.76,1.47,10.31,2.21,3.68,5.89,2.58-1.1,12.88,4,20.61-6.82,12.52,3.76,1.27,6.6,6.46-1.7,7.72-8.66,5.52,3.87,4.8,9.2,5.89,6.26,6.26,1.28,15.83a28.12,28.12,0,0,1,.05,4.55" transform="translate(-810.56 -360)"/><g class="cls-46"><g class="cls-47"><path class="cls-48" d="M2518.55,1553.42C2409,1445.18,2239,1439.73,2138.64,1541.2s-92.84,271.52,16.67,379.76,279.62,113.69,379.91,12.19,92.84-271.49-16.67-379.73m-266.69,272.34c-98-75.82-126.09-203.73-62.66-285.74s194.28-87,292.31-11.16,126.09,203.77,62.66,285.74-194.28,87-292.31,11.16" transform="translate(-810.56 -360)"/></g></g><g class="cls-49"><g class="cls-50"><path class="cls-24" d="M2544.17,1814.61c-63.4,82-194.28,87-292.31,11.16S2125.78,1622,2189.2,1540s194.28-87,292.31-11.16,126.09,203.77,62.66,285.74" transform="translate(-810.56 -360)"/></g></g><g class="cls-51"><g class="cls-52"><path class="cls-53" d="M2508.37,1610c-13.65,17.65-49.81,12.55-80.76-11.39s-45-57.66-31.32-75.31,49.81-12.56,80.76,11.39,45,57.66,31.32,75.31" transform="translate(-810.56 -360)"/></g></g><g class="cls-54"><g class="cls-55"><path class="cls-56" d="M2320.57,1465.95c-163.17,0-295.44,132.27-295.44,295.44s132.27,295.44,295.44,295.44S2616,1924.55,2616,1761.39,2483.74,1465.95,2320.57,1465.95Zm-165.26,455c-109.51-108.24-117-278.26-16.67-379.76s270.4-96,379.91,12.22,117,278.26,16.67,379.73S2264.82,2029.18,2155.31,1921Z" transform="translate(-810.56 -360)"/></g></g><polygon class="cls-22" points="1820.21 1604.02 1820.21 1463.23 1933.67 1406.66 1933.67 1539.48 1820.21 1604.02"/><polygon class="cls-23" points="1820.21 1604.02 1820.21 1463.23 1706.74 1406.66 1706.74 1539.48 1820.21 1604.02"/><polygon class="cls-9" points="1933.68 1397.63 1933.68 1539.47 1854.32 1585.48 1820.24 1605.23 1820.24 1586.13 1820.23 1556.95 1820.21 1463.22 1933.68 1397.63"/><polygon class="cls-11" points="1820.25 1605.23 1820.21 1463.23 1706.74 1397.63 1706.74 1539.48 1820.25 1605.23"/><polygon class="cls-14" points="1706.74 1397.63 1820.21 1463.23 1933.67 1397.63 1820.25 1332.05 1706.74 1397.63"/><polygon class="cls-10" points="1891.49 1463.32 1866.19 1478.01 1866.19 1436.57 1891.49 1421.86 1891.49 1463.32"/><polygon class="cls-11" points="1891.49 1421.86 1778.18 1356.36 1752.83 1371.01 1866.19 1436.62 1891.49 1421.86"/><polygon class="cls-24" points="1750.93 1438.89 1750.93 1476.82 1713.48 1455.18 1713.48 1417.2 1750.93 1438.89"/><path class="cls-10" d="M2547.7,1907.51c11.9-5.73,23.41-12.2,35.14-18.26l8.81,15.39c-12.11,6.27-24,13-36.31,18.87Z" transform="translate(-810.56 -360)"/><path class="cls-10" d="M2489.69,1931.52c12.28-4.93,25-8.82,36.93-14.58l7,16.28c-12.29,5.93-25.32,9.94-37.95,15Z" transform="translate(-810.56 -360)"/><path class="cls-10" d="M2429.59,1950c12.92-3.08,25.56-7.06,38.18-11.15l5.44,16.88c-12.93,4.18-25.89,8.26-39.1,11.41Z" transform="translate(-810.56 -360)"/><polygon class="cls-10" points="1557.58 1603.77 1596.6 1595.8 1600.59 1613.08 1560.7 1621.23 1557.58 1603.77"/><path class="cls-10" d="M2305.73,1972.27c13.19-1.48,26.43-2.57,39.51-4.91l2.62,17.54c-13.37,2.38-26.9,3.51-40.38,5Z" transform="translate(-810.56 -360)"/><path class="cls-10" d="M2242.88,1976c13.27.2,26.51-1.1,39.76-1.74l1.23,17.69c-13.55.66-27.08,2-40.67,1.78Z" transform="translate(-810.56 -360)"/><path class="cls-10" d="M2180,1974.6c13.24.5,26.47,1.31,39.73,1.58l-.23,17.73c-13.58-.28-27.16-1.09-40.74-1.62Z" transform="translate(-810.56 -360)"/><path class="cls-10" d="M2117.74,1966.86c13.06,2,26,4.52,39.27,5.48l-1.89,17.63c-13.58-1-27-3.55-40.46-5.65Z" transform="translate(-810.56 -360)"/><polygon class="cls-10" points="1246.5 1592.09 1265.34 1597.89 1284.61 1602.3 1280.74 1619.61 1260.77 1615.02 1241.12 1608.98 1246.5 1592.09"/><path class="cls-10" d="M1999.69,1928.64c5.7,3.1,11.63,5.86,17.54,8.61l18.22,7.32-6.37,16.55-19.14-7.7c-6.26-2.89-12.51-5.82-18.59-9.12Z" transform="translate(-810.56 -360)"/><path class="cls-10" d="M1950.28,1893.13a201.13,201.13,0,0,0,29.92,24l-9.73,14.83a218.47,218.47,0,0,1-32.74-26.33Z" transform="translate(-810.56 -360)"/><path class="cls-10" d="M1919.45,1843.25A106.72,106.72,0,0,0,1936,1876.4l-14.37,10.38a124.43,124.43,0,0,1-19.19-38.59Z" transform="translate(-810.56 -360)"/><path class="cls-10" d="M1920.38,1785.47a105.75,105.75,0,0,0-4.49,36.67l-17.7,1.06a123.47,123.47,0,0,1,5.21-42.82Z" transform="translate(-810.56 -360)"/><path class="cls-10" d="M1949.13,1732.88a169.22,169.22,0,0,0-20.67,32.19l-15.93-7.8a187,187,0,0,1,22.72-35.44Z" transform="translate(-810.56 -360)"/><path class="cls-10" d="M1993.09,1689.81a291.42,291.42,0,0,0-29,26.15l-12.74-12.33a308.46,308.46,0,0,1,30.75-27.71Z" transform="translate(-810.56 -360)"/><path class="cls-10" d="M2044.82,1655.08c-11.36,6.68-22.62,13.54-33.34,21.11l-10.14-14.55c11.21-7.91,22.89-15,34.68-22Z" transform="translate(-810.56 -360)"/><polygon class="cls-10" points="1632.14 1672.79 1617.42 1700.81 1602.19 1691.71 1616.2 1665.01 1632.14 1672.79"/><polygon class="cls-10" points="1651.33 1626.51 1639.88 1656.09 1623.57 1649.13 1634.45 1621.07 1651.33 1626.51"/><path class="cls-10" d="M2473.22,1937.64c-1.06,10.57-3.93,20.77-6.65,31l-17.16-4.49c2.58-9.68,5.33-19.33,6.3-29.34Z" transform="translate(-810.56 -360)"/><path class="cls-10" d="M2477.59,1887.68c-.63,10.55-.22,21.19-1.74,31.66l-17.64-1.85c1.45-9.91,1-20,1.64-30Z" transform="translate(-810.56 -360)"/><path class="cls-10" d="M2474.66,1837.71c2,10.38,1.7,21,2.64,31.54l-17.72.74c-.92-10-.62-20.1-2.51-30Z" transform="translate(-810.56 -360)"/><path class="cls-10" d="M2465.06,1788.68c2.2,10.29,5.52,20.33,6.77,30.84l-17.46,3.12c-1.16-10-4.4-19.65-6.48-29.5Z" transform="translate(-810.56 -360)"/><path class="cls-10" d="M2449.89,1741.24c4.12,9.65,6.88,19.83,10.19,29.79l-17,5.17c-3.19-9.58-5.81-19.34-9.81-28.66Z" transform="translate(-810.56 -360)"/><path class="cls-10" d="M2430.17,1695.61c4.33,9.53,8.89,19,13,28.59l-16.34,6.9c-4-9.3-8.41-18.43-12.59-27.66Z" transform="translate(-810.56 -360)"/><path class="cls-10" d="M2406.42,1652.08c5.18,9.07,10.65,18,15.32,27.34l-15.67,8.31c-4.52-9.08-9.86-17.75-14.89-26.57Z" transform="translate(-810.56 -360)"/><path class="cls-10" d="M2379.71,1610.45c5.8,8.65,11.72,17.22,17.17,26.12l-15,9.47c-5.3-8.68-11.11-17.06-16.77-25.53Z" transform="translate(-810.56 -360)"/><path class="cls-10" d="M2348.57,1571c7.74,7.42,14.19,16.3,20.69,24.64l-14.41,10.33c-6.17-7.87-11.84-15.78-19-22.64Z" transform="translate(-810.56 -360)"/><path class="cls-10" d="M2309.35,1538.73c8.82,6,17.68,12.11,25.62,19.36l-11.62,13.4c-7.27-6.68-15.49-12.27-23.63-17.87Z" transform="translate(-810.56 -360)"/><path class="cls-10" d="M2264.24,1515.78c4.92,2.07,9.9,4,14.76,6.19l14.31,7.21-8.46,15.58-13.29-6.7c-4.52-2-9.16-3.82-13.73-5.76Z" transform="translate(-810.56 -360)"/><path class="cls-10" d="M2215.46,1502.35a237.83,237.83,0,0,1,31.18,7.33l-5.18,17a219.74,219.74,0,0,0-28.93-6.8Z" transform="translate(-810.56 -360)"/><path class="cls-10" d="M2164.63,1499.77a126,126,0,0,1,16.19-.54,142.47,142.47,0,0,1,16.1.76l-1.5,17.67a126.3,126.3,0,0,0-14.74-.7,110.53,110.53,0,0,0-14.67.49Z" transform="translate(-810.56 -360)"/><path class="cls-10" d="M2114.25,1512.41c5.18-2,10.27-4.52,15.55-6.13,5.33-1.32,10.59-3.3,16-4l3.4,17.41c-4.83.63-9.28,2.4-13.95,3.51-4.56,1.39-8.76,3.5-13.18,5.17Z" transform="translate(-810.56 -360)"/><path class="cls-15" d="M2329.49,1418.44l0,0c8.35-3.47,19.21-2.25,31.12,4.62,26.3,15.18,47.61,51.94,47.61,82.12,0,41.07-47.61,87.78-47.61,87.78l-13.66,5.77-31.42-174.4Z" transform="translate(-810.56 -360)"/><path class="cls-10" d="M2347,1428.87c-26.3-15.18-47.61-3-47.61,27.15,0,41.06,47.61,142.75,47.61,142.75s47.61-46.71,47.61-87.78c0-30.18-21.31-66.94-47.61-82.12" transform="translate(-810.56 -360)"/><path class="cls-24" d="M2374.56,1499.42c0,17.48-12.35,24.52-27.58,15.73s-27.58-30.09-27.58-47.58,12.35-24.52,27.58-15.72,27.58,30.1,27.58,47.57" transform="translate(-810.56 -360)"/><path class="cls-57" d="M2653,1879.38l-26.73-15.44v-30.7l26.73,15.44Zm-25-16.46,23.23,13.41V1849.7l-23.23-13.4Z" transform="translate(-810.56 -360)"/><polygon class="cls-57" points="1832.06 1509.55 1826.16 1506.15 1826.16 1490.69 1832.06 1494.09 1832.06 1509.55"/><polygon class="cls-57" points="1837.86 1500.38 1820.37 1490.28 1829.11 1484.78 1837.86 1500.38"/><g class="cls-58"><g class="cls-59"><path class="cls-24" d="M3869.44,1017.53l-705,927.84L2684.93,2224l-119.76,69.6-113.83,66.15-99.22-57.28-170.81-98.61-148.21-85.57-499.89-288.62L896.87,965.38S1135,855.2,1499.3,761c124.26-32.13,263.2-62.41,412.37-85.83,107.12-16.81,219.51-30.09,335.53-38,142.89-9.71,291.28-11.23,442.11-1.11a2802.66,2802.66,0,0,1,309.73,37.82,2483.77,2483.77,0,0,1,310,76.33c191.63,60.72,380.49,147.49,560.4,267.3" transform="translate(-810.56 -360)"/></g></g><g class="cls-58"><g class="cls-60"><path class="cls-24" d="M2689.32,636.07l-238,1723.71-99.22-57.28L2247.21,637.18c142.89-9.71,291.28-11.23,442.11-1.11" transform="translate(-810.56 -360)"/></g></g><g class="cls-61"><g class="cls-62"><path class="cls-24" d="M3309,750.23,2684.93,2224l-119.76,69.6L2999.05,673.9a2483.6,2483.6,0,0,1,310,76.33" transform="translate(-810.56 -360)"/></g></g><g class="cls-58"><g class="cls-63"><path class="cls-24" d="M2181.32,2203.9l-148.21-85.57L1499.3,761c124.26-32.13,263.2-62.41,412.37-85.83Z" transform="translate(-810.56 -360)"/></g></g></g></g></g></g></svg>