<svg id="Layer_1" data-name="Layer 1" xmlns="http://www.w3.org/2000/svg" xmlns:xlink="http://www.w3.org/1999/xlink" viewBox="0 0 4680 3120"><defs><style>.cls-1{fill:none;}.cls-2{clip-path:url(#clip-path);}.cls-3{fill:#097ea8;}.cls-4{fill:#479ebe;}.cls-5{fill:#e05d14;}.cls-6{fill:#354252;}.cls-7{fill:#36b7ff;}.cls-8{fill:#1a2a3a;}.cls-9{opacity:0.6;}.cls-10{clip-path:url(#clip-path-3);}.cls-11{fill:#3782c1;}.cls-12{clip-path:url(#clip-path-4);}.cls-13{fill:#fff;}.cls-14{fill:#ffdbd4;}.cls-15{fill:#ffbcb3;}.cls-16{fill:#3797da;}.cls-17{fill:#f9af7d;}.cls-18{fill:#754554;}.cls-19{fill:#ed7425;}.cls-20{clip-path:url(#clip-path-5);}.cls-21{fill:#ffa04a;}.cls-22{fill:#494949;}.cls-23{fill:#969696;}.cls-24{fill:#383838;}.cls-25{fill:#262626;}.cls-26{fill:#2e6aa5;}.cls-27{fill:#ededed;}.cls-28{fill:#fcbe6d;}.cls-29{fill:#f95377;}.cls-30{fill:#ccc;}.cls-31{fill:#415d6b;}.cls-32{fill:#a5a5a5;}.cls-33{opacity:0.44;}.cls-34{clip-path:url(#clip-path-6);}.cls-35{fill:#8e8e8e;}.cls-36{opacity:0.57;}.cls-37{clip-path:url(#clip-path-7);}.cls-38{opacity:0.4;}.cls-39{clip-path:url(#clip-path-8);}.cls-40{fill:#dc3d13;}.cls-41{clip-path:url(#clip-path-9);}.cls-42{fill:url(#linear-gradient);}.cls-43{clip-path:url(#clip-path-11);}.cls-44{clip-path:url(#clip-path-12);}.cls-45{clip-path:url(#clip-path-13);}.cls-46{fill:#61cfff;}.cls-47{fill:#f5f2e8;}.cls-48{fill:#5c6467;}.cls-49{fill:#3b4549;}.cls-50{fill:#ffc536;}.cls-51{fill:#fff98b;}.cls-52{fill:#ffe25b;}.cls-53{fill:#dd9a36;}.cls-54{fill:#f7cb97;}.cls-55{fill:#fec7c6;}.cls-56{fill:#daae6e;}.cls-57{fill:#bf965a;}.cls-58{fill:#e7bd7c;}.cls-59{clip-path:url(#clip-path-14);}.cls-60{clip-path:url(#clip-path-15);}.cls-61{clip-path:url(#clip-path-16);}.cls-62{clip-path:url(#clip-path-17);}.cls-63{clip-path:url(#clip-path-18);}.cls-64{opacity:0.56;}.cls-65{clip-path:url(#clip-path-19);}</style><clipPath id="clip-path"><rect class="cls-1" width="4680" height="3120"/></clipPath><clipPath id="clip-path-3"><rect class="cls-1" x="3189.33" y="614.56" width="136.93" height="122.94"/></clipPath><clipPath id="clip-path-4"><rect class="cls-1" x="3280.06" y="639.42" width="112.11" height="104.69"/></clipPath><clipPath id="clip-path-5"><rect class="cls-1" x="3309.89" y="734.32" width="151.37" height="260.71"/></clipPath><clipPath id="clip-path-6"><rect class="cls-1" x="766.43" y="1123.14" width="169.75" height="540.57"/></clipPath><clipPath id="clip-path-7"><rect class="cls-1" x="1143.48" y="1476.04" width="232.59" height="142.61"/></clipPath><clipPath id="clip-path-8"><rect class="cls-1" x="1201.83" y="1268.67" width="174.24" height="100.6"/></clipPath><clipPath id="clip-path-9"><path class="cls-1" d="M2245,1213.14c-2.93,13.24-52.5,57.12-61.74,65.74-9.24,8.78-21.55,7.08-21.55,7.08l3.85.92c3.85,1.08,7.54,5.39,7.54,5.39s92.22-75,99.46-91.15c4.93-10.78-10.16-23.71-20.94-31.25a345.2,345.2,0,0,1-6.62,43.26"/></clipPath><linearGradient id="linear-gradient" y1="3120.05" x2="1" y2="3120.05" gradientTransform="translate(2208.53 329414.76) rotate(-180) scale(105.19)" gradientUnits="userSpaceOnUse"><stop offset="0" stop-color="#fca4b5"/><stop offset="0.12" stop-color="#fca4b5"/><stop offset="0.99" stop-color="#ffadb7"/><stop offset="1" stop-color="#ffadb7"/></linearGradient><clipPath id="clip-path-11"><rect class="cls-1" x="2239.89" y="1000.2" width="35.3" height="125.13"/></clipPath><clipPath id="clip-path-12"><rect class="cls-1" x="2303.17" y="964.99" width="24.56" height="51.35"/></clipPath><clipPath id="clip-path-13"><rect class="cls-1" x="2247.81" y="1092.34" width="225.32" height="284.34"/></clipPath><clipPath id="clip-path-14"><rect class="cls-1" x="2746.12" y="1744.69" width="190.34" height="109.9"/></clipPath><clipPath id="clip-path-15"><rect class="cls-1" x="2949.88" y="1846.87" width="195" height="112.59"/></clipPath><clipPath id="clip-path-16"><rect class="cls-1" x="2468.32" y="1867.39" width="200.47" height="115.73"/></clipPath><clipPath id="clip-path-17"><rect class="cls-1" x="2662.34" y="1974.96" width="200.46" height="115.74"/></clipPath><clipPath id="clip-path-18"><rect class="cls-1" x="2485.86" y="1668.58" width="200.47" height="115.73"/></clipPath><clipPath id="clip-path-19"><rect class="cls-1" x="3246.58" y="512.63" width="87.88" height="57.94"/></clipPath></defs><title>PMT_M134_06 [SVG]</title><g class="cls-2"><g class="cls-2"><path class="cls-3" d="M4029.87,1797.87c0,96.83-25.06,190.32-71.69,278.49q-9.19,17.38-19.5,34.47c-165.91,275.46-544.8,494.4-1024.41,592.77-178,36.51-370,56.41-570,56.41-458.92,0-875-104.68-1179-274.49q-55.55-31-106-64.88-48-32.23-91-66.84c-.79-.62-1.56-1.25-2.35-1.89-193.62-156.63-307.36-347.75-307.36-554,0-108.19,31.28-212.22,89-309.29q8.85-14.88,18.53-29.57l2.48-3.75q2.63-3.93,5.3-7.84a836,836,0,0,1,52.64-68.71c1.38-1.64,2.79-3.27,4.19-4.9q13.29-15.42,27.52-30.53,4.26-4.54,8.61-9.05s0,0,.05-.05q13-13.52,26.81-26.74,33.08-31.84,70.28-62l4.3-3.48a0,0,0,0,0,0,0h0l1.47-1.16q6.66-5.37,13.48-10.66h0q1.82-1.45,3.68-2.86c1.55-1.21,3.11-2.41,4.68-3.61l.9-.68c2-1.55,4.06-3.09,6.1-4.63h0a1.06,1.06,0,0,1,.21-.17q12.05-9.1,24.44-18l4.57-3.27h0c1.89-1.35,3.76-2.68,5.65-4,2.58-1.82,5.17-3.61,7.75-5.42q6.35-4.43,12.8-8.79l3.09-2.08q18.84-12.71,38.44-25,10.34-6.52,20.9-12.91c1-.6,1.94-1.18,2.91-1.76q4.9-3,9.87-5.91c2.9-1.73,5.84-3.46,8.77-5.18l2.44-1.41s0,0,0,0q29.78-17.32,61-33.79,4.42-2.34,8.89-4.65,36.18-18.78,74.25-36.37h0c2-.91,4-1.83,6-2.73,4.38-2,8.79-4,13.2-6q4.16-1.87,8.32-3.71,34.46-15.26,70.3-29.49,16.48-6.55,33.28-12.88l2-.76h0c180.62-68,385.51-116.61,605.63-140.81a2935.17,2935.17,0,0,1,320.82-17.41c931,0,1685.65,430.76,1685.65,962.13"/><path class="cls-4" d="M4021.42,1594.85c0,96.83-25.06,190.32-71.69,278.49q-9.19,17.38-19.5,34.47c-165.91,275.46-544.8,494.4-1024.41,592.77-178,36.51-370,56.41-570,56.41-458.92,0-875-104.68-1179-274.49q-55.55-31-106-64.88-48-32.23-91-66.84c-.79-.62-1.56-1.25-2.35-1.89-193.62-156.63-307.36-347.75-307.36-554,0-108.19,31.28-212.22,89-309.29q8.85-14.88,18.53-29.57l2.48-3.75q2.63-3.93,5.3-7.84a836.18,836.18,0,0,1,52.64-68.71c1.38-1.64,2.79-3.27,4.19-4.9q13.29-15.42,27.52-30.53,4.26-4.54,8.61-9.05s0,0,.05-.05q13-13.52,26.81-26.74,33.08-31.84,70.28-62l4.3-3.48a0,0,0,0,0,0,0h0l1.47-1.16q6.66-5.37,13.48-10.67h0q1.82-1.45,3.68-2.86c1.55-1.21,3.11-2.41,4.68-3.61l.9-.68c2-1.55,4.06-3.09,6.1-4.63h0a1,1,0,0,1,.21-.17q12.05-9.1,24.44-18l4.57-3.27h0c1.89-1.35,3.76-2.68,5.65-4,2.58-1.82,5.17-3.61,7.75-5.42q6.35-4.43,12.8-8.79l3.09-2.08q18.84-12.71,38.44-25,10.34-6.52,20.9-12.91c1-.6,1.94-1.18,2.91-1.76q4.9-3,9.87-5.91c2.9-1.73,5.84-3.46,8.77-5.18l2.44-1.41s0,0,0,0q29.78-17.32,61-33.79,4.42-2.34,8.89-4.65,36.18-18.78,74.25-36.37h0c2-.91,4-1.83,6-2.73,4.38-2,8.79-4,13.2-6q4.16-1.87,8.32-3.71,34.46-15.26,70.3-29.49,16.48-6.55,33.28-12.88l2-.76h0c180.62-68,385.51-116.61,605.63-140.81a2935.42,2935.42,0,0,1,320.82-17.41c931,0,1685.65,430.76,1685.65,962.13"/><path class="cls-3" d="M3465.33,1534.66c-79-45.61-206.69-45.84-285.2-.52s-78.11,119,.89,164.66,206.69,45.84,285.2.52,78.11-119-.89-164.66"/><path class="cls-3" d="M1016.55,1655.41c-6.71,9.84-61.65,59.3-61.65,59.3l412.3,294.48,1316.43-774.57,28.74-80.2L2644,1082l-750.66-19.2Z"/><path class="cls-5" d="M3502.8,1575.18a46.66,46.66,0,0,1,3.51,4.86c1.32,5.57,4.53,17.23,2.7,23.19-10.64,34.56-27.42,77.82-51.47,88.78-21.41,9.75-45.22,8.51-53.41-2.89-2.55-3.55-3.35-10.67-3.39-17.72a33.11,33.11,0,0,1,15.8-28.23c6.75-4.2,13.89-9.62,19.09-18.57,10-17.16,28.15-28.65,41.66-42.79,6-6.33,23.53-22.9,25.53-6.63"/><path class="cls-6" d="M3504,1599.5c-3.91,5.85-25.47,75.8-55.95,85.9-9.61,3.17-22.59,3.93-32.54,2.41-8.09-1.22-15-8.91-15.42-17.08-1.07-21.53,14.57-47.42,23.4-64.8,2.79-5.51,4.91-10.15,5.6-13.55,2.29-11.34,1.66-22.91.05-34.43-.79-5.73-1.84-11.46-2.88-17.13-1.26-6.88-2.42-13.8-3.63-20.7l30.81-3.83c16.52-2.05,31.4,7.2,38.72,22a46,46,0,0,1,2.25,5.42c3.61,10.42,9.61,21.49,12.28,32.1,2.11,8.38,2.15,16.46-2.7,23.68"/><path class="cls-5" d="M3275.59,1566.22s.54,4.93,1,7.07c-.38,5.72.25,17.44-4.39,21.59-11.14,10-21.19,12.18-35.16,21.79-9.53,6.55-23.82,20.37-34.94,24.45s-29,10.59-41,9.9c-15.87-.92-28.82-7.28-30.31-24.26-.89-10.14,7.49-17.85,8.44-18.54,8.11-5.92,40.48-8.2,57.24-16.56,17.75-8.85,35.72-17.12,52.8-26.64,7.65-4.26,29.24-14.93,26.35,1.2"/><path class="cls-6" d="M3268.78,1586.36c-5.23,4.72-12.32,6.62-18.69,9.61-16.27,7.59-28.12,22.31-43.6,31.39-18.88,11.06-45.87,19.52-66.16,11.3-5.7-2.31-10.09-8.71-9.55-14.82,2.85-32.19,59.9-47.66,67.1-62.7a73,73,0,0,0,3.27-8c4.63-13.54,5.66-28.27,6.61-42.64.45-7,1-14,1.53-21l67,8.29c-2.3,10.64-4.08,21.36-3.15,32.15.72,8.26,2.67,17.21,3.59,25.8,1.26,11.85.58,23-7.92,30.63"/><path class="cls-7" d="M3326.26,641.93l-48.81,95.57s-48-21.64-88.13-39.82c-19.62-8.91-37.35-17-46.63-21.28-28.22-13.11-87.48-34.48-137.71-63-31-17.6-45.85-33.33-45.85-33.33l20.74-40.44,31.65,5.18c9.83,1.61,136.63,53,180.23,57.53a449.46,449.46,0,0,1,69,12.21c46.29,12.27,65.46,27.37,65.46,27.37"/><path class="cls-8" d="M3276.7,1555.73a289.73,289.73,0,0,1-75.56-2.63c4.63-13.54,5.66-28.27,6.61-42.64.45-7,1-14,1.53-21l67,8.29c-2.3,10.64-4.08,21.36-3.15,32.15.72,8.26,2.67,17.21,3.59,25.8"/><path class="cls-8" d="M3506.7,1575.82c-5.18,4.34-11.21,7.62-17.27,10.64-20.63,10.32-43.06,18.49-65.94,19.46,2.79-5.51,4.91-10.16,5.6-13.55,2.29-11.34,1.66-22.91.05-34.43a89.29,89.29,0,0,1,10.67-11.83c8.89-8,20.48-13.84,32.46-13.2a53.55,53.55,0,0,1,15.5,3.65c1.48.55,3,1.12,4.4,1.73a46.11,46.11,0,0,1,2.25,5.42c3.61,10.42,9.61,21.49,12.28,32.1"/><path class="cls-6" d="M3485.32,1569.47c-15.67,7.84-34.56,8.52-50.66,6.87a168.56,168.56,0,0,1-35.54-7.61s0-119.62-28.65-206.32a264.68,264.68,0,0,0-12-30.32c-20.75-43.72-27.34-188.1-28.12-207.06-.06-1.35-.08-2.06-.08-2.06l-.21,1-34.82,172.87-3.13,220.51-.27.26a103.3,103.3,0,0,1-29.07,18.82,67.76,67.76,0,0,1-25.83,5.64c-13.61.05-22.76-2.66-28.9-6.22-11.65-6.77-12.49-16.63-12.49-16.63s-4.61-126.86,2.36-230.89c1.53-22.9,3.63-44.7,6.46-63.8,10.72-72.3,32.81-195.1,42.14-246.35,2.69-14.73,4.32-23.56,4.32-23.56s31.17-9.51,66.93-18.06c49.08-11.73,106.78-21.64,104.3-2.61,0,0,9.34,11.73,18.15,35.16,1.41,3.75,2.8,7.8,4.15,12.14,7.41,24,13.15,57.07,10.45,99.24-2.88,44.82,1,156.45,4.74,233.41,45,101.34,53.89,218.42,53.89,218.42s6.88,19.57-28.15,37.08"/><path class="cls-8" d="M3421.09,1035.08c-9.92,2.2-8.72,1.29-16.06-5.58-10.4-9.74-20.37-19.25-35-21.73-29.94-5.07-59.72-10.32-89.3-17.24-11.84-2.77-23.95-5.87-34.17-12.28,2.69-14.73,4.32-23.56,4.32-23.56s31.17-9.51,66.93-18.06c24.32.81,48.71,3.84,72.68,7.79,18.9,3.12,40.2,8.6,49.77,24.76.46.76.89,1.54,1.29,2.36a34.07,34.07,0,0,1,2.86,9.78c3,19.54-4.63,49.61-23.28,53.76"/><g class="cls-9"><g class="cls-10"><path class="cls-11" d="M3326.26,641.93l-48.81,95.57s-48-21.64-88.13-39.82A269,269,0,0,0,3227.91,670c20.2-17.38,29.56-32.73,32.89-55.47,46.29,12.27,65.46,27.37,65.46,27.37"/></g></g><path class="cls-7" d="M3442.38,910c-2.76,21.23,16.86,53.49-15.06,73.74-29.12,4.34-73,16-111.7,9.13-1.92-.34-3.82-.72-5.73-1.14-32.2-7-63.69-24.23-72.87-41.78-8.16-15.57-6-46.23-2.59-93.41,3.17-44.76.41-99.8,1.91-114.23,6.24-59.74,51.19-103.34,51.19-103.34,48.93-19.25,103.56,18.65,103.56,18.65s66.59,31.81,70.5,61.17c.49,3.62.32,11-.33,21.13-2.47,38.89-12,117.39-18.88,170.09"/><g class="cls-9"><g class="cls-12"><path class="cls-11" d="M3392.17,682.54c-6,13.15-9.7,29.74-23.09,36.94-16,8.57-32.29,17.48-49,24.63,2.08-.89-7.22-27.2-8.15-29.64-1.67-4.38-2.64-9.24-8-10.4-3.22-.7-23.68,7.31-23.87,10.42.74-12.13-1.58-28.18,3-39.56,5.86-14.68,18.7-28.31,32.85-35.19,2.56-1.24,5.38,1.34,7.15,3.57s2.32,5.17,2.69,8c1.7,12.95.83,26.08,0,39.11,13.4-11.19,23.86-22.43,40.67-27.12"/></g></g><path class="cls-13" d="M3312.73,651.06l3.77,42.55L3286.18,706s-3.11-45.08,26.55-54.91"/><path class="cls-13" d="M3390.23,651.74a102,102,0,0,1-5.67-9.4,31.45,31.45,0,0,1,5.67,9.4"/><path class="cls-13" d="M3281.22,747.53l-36.77-18s-12.77,51.85,10.85,60.13c18.79,6.59,25.93-42.08,25.93-42.08"/><path class="cls-14" d="M2981.1,539.32l-8,32.18-2.35,9.46s-2.59-1.75-6.65-4.05c-5.91-3.35-14.95-7.91-23.67-10-5.18.53-11.68,2.45-16.14,3.68a20.09,20.09,0,0,1-5,1c-5-.7-23.87-4.69-27.15-13-1.37-3.47-.59-9.19.78-14.66a112.54,112.54,0,0,1,4.94-14.68l-2.7-.17c-5.18-.34-16.82-1.2-25.86-2.51-12-1.75-15.37-11-7.73-11s16.38-1.1,38.21,0c13.36.67,40.83,9.4,60.13,16.08,12.24,4.24,21.19,7.65,21.19,7.65"/><path class="cls-15" d="M2981.1,539.32l-8,32.18a76.17,76.17,0,0,1-9,5.41c-5.91-3.35-14.95-7.91-23.67-10-5.18.53-11.68,2.45-16.14,3.68,7.34-9.19,10.29-21.84,18.82-30.09a29.85,29.85,0,0,1,12.1-7.09,48.63,48.63,0,0,0,4.72-1.69c12.24,4.24,21.19,7.65,21.19,7.65"/><path class="cls-16" d="M3005,544.21a42.84,42.84,0,0,0-24,21.71c-5.57,11.75-6.46,27.39-6.46,27.39l-20-10.07s-3.5-19.05,4.26-34.46c3.64-7.22,12.62-15.2,18.56-14.56,12,1.31,27.66,10,27.66,10"/><path class="cls-14" d="M3445.51,1006.16c-1.09,7.07-16.25,0-16.25,0s9.71,8.29,6.42,12.58c-2.1,2.74-7.1,4.92-22.38-3.27-11-5.89-21.7-13.19-25.22-24.86a32,32,0,0,1-.43-15.84,49.31,49.31,0,0,1,2.41-8.08c7-18,23.24-32.57,23.24-32.57s26.16,18.16,28.33,34.93l.06.56c.81,8.52-1.12,14.32-3.26,18a16.58,16.58,0,0,1-4.39,5.17s12.56,6.31,11.47,13.38"/><path class="cls-15" d="M3438.43,987.6c-10.9.71-22,.56-31.88-3.86a31.89,31.89,0,0,1-16.49-17.05c7-18,23.24-32.57,23.24-32.57s26.16,18.16,28.33,34.93l.06.56c.81,8.52-1.12,14.32-3.26,18"/><path class="cls-16" d="M3427.69,918.55s-18.79,6.89-22.06,22.18-.74,33.33,14.24,38.79c16.72,6.09,23-1.14,23-1.14l4.8-9.23Z"/><path class="cls-14" d="M3305.47,665.88c.7,9.63,1.51,19.11,5.59,28.07,1.76,3.86,4.29,4.21,8.4,5.12,8.37,1.84,19,3.54,27.23.17,3.93-1.57,7.55-3.3,10.7-4.88a.55.55,0,0,1,.31-.16c22.18-11.32,26.9-21.07,29.41-25.64a9.58,9.58,0,0,0-.16-9.6s-16.67-22-14.94-40.74c.47-4.87.94-14.79,1.26-24.54.47-12.43.94-24.38.94-24.38s-10.22-20-19.5-18.87c-9.28,1.26-53.17,48-53.17,48s1.26,18.87,2.36,37.28c.51,8.45.54,17,1.21,25.4.13,1.6.24,3.2.36,4.79"/><path class="cls-13" d="M3382.54,697c-15.36,16.74-57.22,35.91-57.22,35.91l-11.4-34.22s24.12-6.95,38-20.44a245.89,245.89,0,0,0,17.21-18.55,179.59,179.59,0,0,0,11-14.28c.67.66,1.29,1.32,1.88,2a102,102,0,0,0,5.67,9.4,34.58,34.58,0,0,1,2.22,10.63c.86,15.4-7.33,29.54-7.33,29.54"/><path class="cls-15" d="M3379.75,647.39c-.59-.68-1.22-1.34-1.88-2a179,179,0,0,1-11,14.28,9.34,9.34,0,0,0-2.6-3.07c-9-6.44-16.21-8.33-44.83,3-6.45,2.52-11.17,3.46-14.31,3.3-.16-6.6-.63-16.83-1.26-27.21l15.41-45c.66-1.89,16.39-1.31,17.9-1.3a160.34,160.34,0,0,1,20.75,1.53c3.83.52,7.2,1.85,10.74.18a20.15,20.15,0,0,0,8.35-6.89c-1.9,5.43-3.81,11.49-4.06,17.22s-.46,11.2-1,16.78c-.93,10.08,3.47,21.13,7.73,29.16"/><path class="cls-14" d="M3363.69,568s-2.13,47.89-6.82,58-38.48,36.19-71.08,31.67c-8.74-4.65-22.19-28.77-23.73-50.08a192.09,192.09,0,0,1-.28-28,12.48,12.48,0,0,0,0-3c-.48-1.87-7-14.89-6-20.87,0-.14.05-.32.08-.49,1-7.15,2.94-39.51,14.27-53.87,11.62-14.72,43.73-23.78,72.54-12.16s21,78.8,21,78.8"/><path class="cls-15" d="M3351.93,585.07c-3.79-1.56-4.45-3.84-6.56-7.36-2.63-4.41-4.13-11.67-9.38-14.1s-11.08,3.42-15.42,5.62a116,116,0,0,1-14.16,6.11,91.49,91.49,0,0,1-18.75,4.33c-4.91.63-8.26,5-13.16,4.68a20.61,20.61,0,0,1-7.53-2.47,42.38,42.38,0,0,0-5.19-2.31,12.53,12.53,0,0,0,0-3c-.48-1.87-7-14.89-6-20.87,0-.14.06-.32.08-.49a48.82,48.82,0,0,1,12.14-9.55c11.52-6.52,25.25-9.56,38.23-7a27.26,27.26,0,0,1,12.28,5.3c3.47,2.88,5.89,7.23,5.66,11.74l5.87-8.21c3.42-2.43,8.36-1.84,11.8.57s5.59,6.27,7,10.22c3,8.51,3.08,17.75,3.1,26.77"/><path class="cls-8" d="M3354.25,584.94s-2.76-18.93,9.13-22.28,11,17.61,11,17.61l-2.84,33.17.41,4.79s12.23-23.66,16.26-31.11,5.95-10.51,7.54-18.78,8-43.72,6.31-56.12-22.94-31.08-39.19-32.44c-7.45-10-22.61-13.34-37.29-13.44s-25.67-.57-43.27,13.13-17.24,24.42-18.6,27.77-2.69,18.2-2.69,18.2l2.18-8.15s7,4.61,28.74,2.73,33.76-10.58,33.76-10.58-4,15.41-3.17,21.11,4.2,23.34,4.2,23.34,11.19,6.66,14.91,9.27,5.48,8.67,5.48,8.67l.85,9.11a4.71,4.71,0,0,0,6.27,4"/><path class="cls-17" d="M3284.07,581.07a34.4,34.4,0,0,1-.94,10.68q-.32,1.32-.75,2.61a17,17,0,0,1-1.06,2.57c-.86,1.65-1.9,3.09-2.69,4.58a12.23,12.23,0,0,0-1,2.24,9.8,9.8,0,0,0-.27,1.16,7.41,7.41,0,0,0,0,1.09,4.13,4.13,0,0,0,.68,2,8,8,0,0,0,1.65,1.69,20.28,20.28,0,0,0,4.5,2.43c1.61.69,3.29,1.26,5,1.89a39.17,39.17,0,0,1-5.27-1,17.81,17.81,0,0,1-5.08-2.09,8.27,8.27,0,0,1-2.18-2,6,6,0,0,1-1.14-2.88,7.37,7.37,0,0,1,0-1.55,11.32,11.32,0,0,1,.31-1.43,13.94,13.94,0,0,1,1.11-2.63c.91-1.62,2-3.05,2.78-4.52a27.4,27.4,0,0,0,2-4.72,64.59,64.59,0,0,0,2.43-10.25"/><path class="cls-8" d="M3304.74,576.49c-1,.85-1.34,2.84-1.44,3.79-.19,1.74-.19,4.9,2.46,5.5,4,.9,4-4.55,3.45-6.43a5,5,0,0,0-1.85-2.66c-1.17-.83-2-.73-2.62-.21"/><path class="cls-8" d="M3268.08,573.15a6.37,6.37,0,0,0-1.47,2.72c-.56,1.94-.64,5.82,2.42,6.51,4,.9,4-4.55,3.45-6.43-.3-1.09-1.73-3.54-3.56-3.24a1.68,1.68,0,0,0-.84.43"/><path class="cls-8" d="M3300.85,634c-1,2.62-3.73,5.11-6.14,6.55a7.47,7.47,0,0,1-9.61-1.84c-2.12-2.68-3.74-5-1.17-7.92,3.17-3.57,10.32-6.26,14.59-3.43,2.9,1.92,3.24,4.33,2.32,6.64"/><path class="cls-8" d="M3324.49,572.28a99,99,0,0,0-28.63-2.52c.23-1.68.37-3.24.74-4.89a.39.39,0,0,1,.52-.38c4,.53,8.09,1.13,12.08,1.88,2.09.39,4.17.82,6.23,1.31,1.72.41,3.81.45,5.31,1.46,1.31.88,2.19,2.57,3.74,3.14"/><path class="cls-8" d="M3257.71,568a41.89,41.89,0,0,1,10.43-1c1.11,0,12.66.51,12.66,1.22,0-1.69,0-3.25-.11-4.93a.53.53,0,0,0-.13-.37.42.42,0,0,0-.29-.06c-3.59.13-7.33.32-11,.66-2.36.22-4.77.42-7.11.8s-3.2,1.49-4.47,3.64"/><path class="cls-18" d="M3302.27,576.2a7.68,7.68,0,0,1,3.3-1.54,10.36,10.36,0,0,1,3.66,0,15.87,15.87,0,0,1,6.68,2.54.05.05,0,0,1,0,.09,17.17,17.17,0,0,0-6.71-1.83,21.66,21.66,0,0,0-3.42.21,25.88,25.88,0,0,0-3.42.65.05.05,0,0,1,0-.09"/><path class="cls-18" d="M3272.09,571.93a5.08,5.08,0,0,0-2.23-.67c-.79-.07-1.61-.3-2.42-.43q-2.45-.38-5-.55a0,0,0,0,1,0-.05,0,0,0,0,1,0,0,32.33,32.33,0,0,1,5-.15,11.71,11.71,0,0,1,2.54.25,3,3,0,0,1,2.11,1.59.05.05,0,0,1,0,.07h0"/><path class="cls-19" d="M3301.17,634.16a19.29,19.29,0,0,1-6.45,6.42,7.36,7.36,0,0,1-8.53-.73,29.43,29.43,0,0,1,15-5.68"/><path class="cls-14" d="M3354.78,572.38s6.44-17,19.43-10.42-5.65,40.44-14.06,40.91-6.85-8.21-6.85-8.21,9.06-14.25,1.48-22.29"/><path class="cls-15" d="M3371.35,584.26c-2.59,3-6.3,4.75-8.54,8.13-.86-6.16-6-16.58-.83-21.8,9.15-9.27,15.43,6.55,9.37,13.67"/><path class="cls-19" d="M3263.58,563.75l4.21,3.58c-1.31-.84-2.68-1.66-4.11-2.44,0-.38-.08-.75-.1-1.14"/><g class="cls-9"><g class="cls-20"><path class="cls-11" d="M3441.63,969c-2.17-16.77-28.33-34.93-28.33-34.93s-21.28,19.06-25.65,40.65a32,32,0,0,0,.43,15.83c-23.05,3.77-48.74,6.53-72.46,2.31-1.92-.34-3.82-.72-5.73-1.14,9.73-4.15,19.24-10.2,32.06-18.49,44.78-29,81.65-71.69,82.31-126.67.19-15.86-2.28-31.61-4.09-47.36a571.15,571.15,0,0,1-3.72-64.93L3442,749.05a48.67,48.67,0,0,1,19.3-9.1c-2.47,38.89-12,117.39-18.88,170.09-2.16,16.6,9.36,39.93-.75,59"/></g></g><path class="cls-7" d="M3443.71,688.9q-6.63-3.58-13.85-6.7c2.4,28.22-16,54.37-11.09,82.33,4.37,25,39.3,73.88,45.85,83.3s20.74,23.6,20.74,23.6-52.88,34.88-63.77,48.6c-6.8,12.62-6.09,24-3.64,34.13,3.26,13.46,7.36,32,56.49,17.76s76.31-36.41,87.88-62.26c12.65-28.27,12.55-60.51-26.75-122.51-25.78-40.66-50.54-75.93-91.87-98.24"/><path class="cls-21" d="M3374.94,504.27c33.25,12.12,43,31.48,18.7,49.14s-73.94,14.9-107.19,2.79-40-24.22-15.67-41.88,70.92-22.16,104.17-10"/><path class="cls-19" d="M3402.39,545.56s-60.41,53.81-134.25,24.53c-15.09-6-20.64-13.6-21.45-21-1.1-10.07,6.58-19.74,10.94-24.34l.17-.17.19-.2.31-.32c1.32-1.35,2.21-2.12,2.21-2.12s-2.15,8.89,10.82,18l.09.06a63.18,63.18,0,0,0,12.69,6.68,88.83,88.83,0,0,0,20.13,5.15c41.47,6.14,98.15-6.29,98.15-6.29"/><path class="cls-21" d="M3406.59,533.43l-3.37.16-123.73,6-8.16.4-1.4.06a20.42,20.42,0,0,1-6.63-7.34c-.8-1.46-3.92-7.28-5.67-7.93a.88.88,0,0,0-.22-.06.51.51,0,0,0,.39-.1.6.6,0,0,0,.19-.2,2,2,0,0,0,.31-1c.25-3.77.48-7.25,1-10.76.24-1.91.57-3.83,1-5.8,1.36-6.15,1.33-12.5,4.13-18.28a62.12,62.12,0,0,1,12.52-17.49c11-10.75,25.66-16.88,40.78-18.92,21.71-2.93,38.11.77,50.52,8,36.84,21.33,38.39,73.33,38.39,73.33"/><path class="cls-8" d="M3330.39,1125c-.06-1.35-.09-2.06-.09-2.06l-.21,1-34.82,172.87-3.13,220.51-.27.26c-1-25.82-1.54-51.59-4-77.53-3.11-32.63-6.2-65.48-3.49-98.26,1.28-15.45,4-30.64,7-45.77,3.64-18.43,7.67-36.8,10-55.49,3.29-26.77,8.05-50.87,14.11-77.15,3.55-15.47,7.29-31.41,8.87-47.22,1.22-12.07,5.82-25.07,5.82-37.15q0,23,.3,45.94"/><path class="cls-8" d="M3434.66,1576.33a168.56,168.56,0,0,1-35.54-7.61s0-119.62-28.65-206.32a371.88,371.88,0,0,1,64.19,213.92"/><path class="cls-8" d="M3208.06,1535.9c-11.65-6.77-12.49-16.63-12.49-16.63s-4.61-126.86,2.36-230.89q10.88,123.43,10.13,247.52"/><path class="cls-8" d="M1695.66,1591.24c0,53.33-32.42,115.28-72.42,138.37s-72.42-1.42-72.42-54.75,32.42-115.28,72.42-138.37,72.42,1.42,72.42,54.74"/><polygon class="cls-8" points="1630.72 1763.95 1578.28 1734.45 1671.86 1533.45 1722.03 1561.5 1630.72 1763.95"/><path class="cls-22" d="M1750.09,1621.56c0,53.33-32.42,115.27-72.42,138.37s-72.42-1.42-72.42-54.74,32.42-115.27,72.42-138.37,72.42,1.42,72.42,54.75"/><path class="cls-23" d="M1724.61,1638c0,34.57-21,74.73-46.95,89.7s-46.95-.92-46.95-35.49,21-74.73,46.95-89.7,46.95.92,46.95,35.49"/><path class="cls-13" d="M1711.35,1645.63c0,24.81-15.08,53.62-33.69,64.36s-33.68-.66-33.68-25.47,15.08-53.62,33.68-64.36,33.69.66,33.69,25.47"/><path class="cls-24" d="M1694,1655.68c0,12-7.29,25.92-16.29,31.12s-16.28-.32-16.28-12.31,7.29-25.92,16.28-31.11,16.29.32,16.29,12.31"/><path class="cls-8" d="M2358.11,1206.74c0,53.33-32.42,115.28-72.42,138.37s-72.42-1.42-72.42-54.75,32.42-115.27,72.42-138.37,72.42,1.42,72.42,54.74"/><polygon class="cls-8" points="2293.17 1379.45 2240.73 1349.95 2334.31 1148.95 2384.48 1177 2293.17 1379.45"/><path class="cls-22" d="M2412.54,1237.06c0,53.33-32.42,115.27-72.42,138.37s-72.42-1.42-72.42-54.74,32.42-115.27,72.42-138.37,72.42,1.42,72.42,54.75"/><path class="cls-23" d="M2387.06,1253.47c0,34.57-21,74.73-46.95,89.7s-46.95-.92-46.95-35.49,21-74.73,46.95-89.7,46.95.92,46.95,35.49"/><path class="cls-13" d="M2373.8,1261.13c0,24.81-15.08,53.62-33.69,64.36s-33.68-.66-33.68-25.47,15.08-53.62,33.68-64.36,33.69.66,33.69,25.47"/><path class="cls-24" d="M2356.4,1271.18c0,12-7.29,25.92-16.29,31.12s-16.28-.32-16.28-12.31,7.29-25.92,16.28-31.11,16.29.32,16.29,12.31"/><path class="cls-8" d="M2681.86,1022.59c0,53.33-32.42,115.28-72.42,138.37s-72.42-1.42-72.42-54.75,32.42-115.27,72.42-138.36,72.42,1.42,72.42,54.74"/><polygon class="cls-8" points="2616.91 1195.3 2564.47 1165.8 2658.05 964.8 2708.22 992.85 2616.91 1195.3"/><path class="cls-22" d="M2736.28,1052.91c0,53.33-32.42,115.27-72.42,138.37s-72.42-1.42-72.42-54.74,32.42-115.27,72.42-138.37,72.42,1.42,72.42,54.75"/><path class="cls-23" d="M2710.81,1069.32c0,34.57-21,74.73-46.95,89.7s-46.95-.92-46.95-35.49,21-74.73,46.95-89.7,46.95.92,46.95,35.49"/><path class="cls-13" d="M2697.55,1077c0,24.81-15.08,53.62-33.69,64.36s-33.69-.66-33.69-25.47,15.08-53.62,33.69-64.36,33.69.66,33.69,25.47"/><path class="cls-24" d="M2680.14,1087c0,12-7.29,25.92-16.29,31.12s-16.28-.32-16.28-12.31,7.29-25.92,16.28-31.12,16.29.32,16.29,12.31"/><path class="cls-8" d="M2189.17,1309.77c0,53.33-32.42,115.28-72.42,138.37s-72.42-1.42-72.42-54.75,32.42-115.27,72.42-138.37,72.42,1.42,72.42,54.74"/><polygon class="cls-8" points="2124.23 1482.48 2071.78 1452.98 2165.36 1251.98 2215.53 1280.03 2124.23 1482.48"/><path class="cls-22" d="M2243.59,1340.09c0,53.33-32.42,115.27-72.42,138.37s-72.42-1.42-72.42-54.74,32.42-115.27,72.42-138.37,72.42,1.42,72.42,54.75"/><path class="cls-23" d="M2218.12,1356.5c0,34.57-21,74.73-46.95,89.7s-46.95-.92-46.95-35.49,21-74.73,46.95-89.7,46.95.92,46.95,35.49"/><path class="cls-13" d="M2204.86,1364.16c0,24.81-15.08,53.62-33.69,64.36s-33.69-.66-33.69-25.47,15.08-53.62,33.69-64.36,33.69.66,33.69,25.47"/><path class="cls-24" d="M2187.46,1374.2c0,12-7.29,25.92-16.29,31.12s-16.28-.32-16.28-12.31,7.29-25.92,16.28-31.11,16.29.32,16.29,12.31"/><polygon class="cls-7" points="2762.43 597.76 2409.65 387.77 2320.71 441.01 2660.24 630.53 2762.43 597.76"/><path class="cls-7" d="M2303,382.56,2112.53,499.48V954.1l83.82-48.39c9.36-64.72,48.81-132,96.08-159.33s86.72-5.53,96.09,48.38L2451,758.67V468c0-76-82.25-123.47-148.06-85.48"/><path class="cls-25" d="M2748.69,1019.46l-55.56-33.59-52.31-26.71s44.68-14.21,47.47-16,74.78,23.94,60.39,76.26"/><polygon class="cls-16" points="2482.51 720.58 2671.4 607.23 2292.97 388.7 2106.5 503.45 2482.51 720.58"/><polygon class="cls-26" points="2482.51 1173.61 2320.71 1087.58 2320.71 624.87 2482.51 718.3 2482.51 1173.61"/><path class="cls-8" d="M1543.66,1679c0,53.33-32.42,115.28-72.42,138.37s-72.42-1.42-72.42-54.75,32.42-115.27,72.42-138.37,72.42,1.42,72.42,54.74"/><polygon class="cls-8" points="1478.71 1851.73 1426.27 1822.23 1519.85 1621.23 1570.02 1649.29 1478.71 1851.73"/><path class="cls-22" d="M1598.08,1709.35c0,53.33-32.42,115.27-72.42,138.37s-72.42-1.42-72.42-54.74,32.42-115.27,72.42-138.37,72.42,1.42,72.42,54.75"/><path class="cls-23" d="M1572.61,1725.76c0,34.57-21,74.73-46.95,89.7s-46.95-.92-46.95-35.49,21-74.73,46.95-89.7,46.95.92,46.95,35.49"/><path class="cls-13" d="M1559.35,1733.41c0,24.81-15.08,53.62-33.69,64.36s-33.69-.66-33.69-25.47,15.08-53.62,33.69-64.36,33.69.66,33.69,25.47"/><path class="cls-24" d="M1541.94,1743.46c0,12-7.29,25.92-16.29,31.12s-16.28-.32-16.28-12.31,7.29-25.92,16.28-31.11,16.29.32,16.29,12.31"/><path class="cls-22" d="M1419.3,1790.08c-21.13-10.88-52.11-27-52.11-27l62-28.17Z"/><path class="cls-23" d="M1519.4,1621.23l-5.7,3.37a192.23,192.23,0,0,0-94.4,165.48l17.4-10.57,1.24-7.25A180,180,0,0,1,1501.72,1663l7.65-6.23Z"/><polygon class="cls-27" points="1321.4 1204.49 2404.61 579.46 2024.57 360 941.36 985.04 1321.4 1204.49"/><polygon class="cls-8" points="956.3 1572.33 956.3 1634.37 1336.34 1853.65 1336.34 1791.78 956.3 1572.33"/><polygon class="cls-22" points="1353.83 1781.28 1335.64 1791.78 1335.64 1853.65 1353.83 1843.16 1353.83 1781.28"/><polygon class="cls-28" points="1318.3 1832.26 1293.6 1817.99 1293.6 1785.06 1318.3 1799.32 1318.3 1832.26"/><polygon class="cls-19" points="1324.94 1795.48 1318.3 1799.32 1318.3 1832.25 1324.94 1828.42 1324.94 1795.48"/><polygon class="cls-29" points="1324.95 1795.48 1300.24 1781.28 1293.6 1785.12 1318.3 1799.32 1324.95 1795.48"/><polygon class="cls-28" points="991.2 1637.04 966.5 1622.78 966.5 1589.84 991.2 1604.1 991.2 1637.04"/><polygon class="cls-19" points="997.85 1600.26 991.2 1604.1 991.2 1637.04 997.85 1633.2 997.85 1600.26"/><polygon class="cls-29" points="997.85 1600.26 973.14 1586.07 966.5 1589.9 991.2 1604.1 997.85 1600.26"/><polygon class="cls-30" points="941.36 985.04 941.36 1459.85 941.36 1497.15 941.36 1582.43 1321.39 1801.72 1321.39 1716.44 1321.39 1679.31 1321.39 1204.49 941.36 985.04"/><polygon class="cls-6" points="1307.86 1214.09 954.89 1009.04 954.89 1430.81 954.89 1463.94 954.89 1572.82 955.44 1573.13 1307.86 1369.78 1307.86 1214.09"/><polygon class="cls-31" points="1307.86 1369.78 955.44 1573.13 1307.86 1777.71 1307.86 1369.78"/><polygon class="cls-13" points="1939.78 943.81 1646.17 1113.23 1602.03 1171.05 1939.78 976.21 1939.78 943.81"/><polygon class="cls-13" points="1939.78 886.71 1717.13 1017.56 1672.98 1075.38 1939.78 919.11 1939.78 886.71"/><polygon class="cls-30" points="1313.22 1210.54 1313.22 1686.51 1313.22 1753.06 1313.22 1808.93 2396.43 1184.06 2396.43 1128.19 2396.43 1061.47 2396.43 585.51 1313.22 1210.54"/><polygon class="cls-30" points="936.18 1002.36 936.18 1565.77 766.43 1663.71 745.85 1675.59 745.85 1112.28 936.18 1002.36"/><polygon class="cls-32" points="745.85 1675.59 734.39 1667.07 734.39 1103.75 745.85 1112.27 745.85 1675.59"/><polygon class="cls-27" points="936.18 1002.36 924.72 993.84 734.39 1103.75 745.85 1112.28 936.18 1002.36"/><g class="cls-33"><g class="cls-34"><path class="cls-35" d="M936.18,1123.14v442.63l-169.74,97.94c35.45-152.14,110-450,169.74-540.57"/></g></g><path class="cls-11" d="M2672.14,602.07,2481.69,719v454.63l83.82-48.39c9.36-64.72,48.81-132,96.09-159.33s86.72-5.53,96.09,48.38l62.51-36.09V687.55c0-76-82.25-123.47-148.06-85.48"/><polygon class="cls-26" points="2622.46 633.43 2610.36 640.41 2610.36 1019.46 2622.46 1004.55 2622.46 633.43"/><path class="cls-13" d="M2661.6,975.62c-42.85,24.74-78.6,85.75-87.1,144.41l-9,5.19c9.36-64.72,48.81-132,96.09-159.33s86.72-5.53,96.09,48.38l-9,5.19c-8.5-48.85-44.25-68.57-87.1-43.84"/><path class="cls-6" d="M2771,672.39v122.7c0,.26,0,.54,0,.8-.32,18.83-11.86,40.61-25.92,48.72l-53.13,30.68c-5.63,3.25-10.81,3.76-15.07,2.12a31.5,31.5,0,0,1-2.8-13.68V741c0-11.5,4.26-24.19,10.79-34.25,4.26-6.58,9.49-12,15.13-15.27l53.13-30.68c5.63-3.25,10.81-3.76,15.07-2.12a31.5,31.5,0,0,1,2.81,13.68"/><g class="cls-36"><g class="cls-37"><polygon class="cls-6" points="1143.48 1493.92 1159.57 1533.45 1321.62 1618.65 1376.07 1554.27 1172.58 1476.04 1143.48 1493.92"/></g></g><polygon class="cls-19" points="1293.6 1580.59 1143.48 1493.92 1143.48 1321.66 1293.6 1408.33 1293.6 1580.59"/><polygon class="cls-5" points="1293.6 1580.59 1443.71 1493.92 1443.71 1321.66 1293.6 1408.33 1293.6 1580.59"/><polygon class="cls-21" points="1293.6 1408.33 1443.71 1321.66 1293.6 1234.99 1143.48 1321.66 1293.6 1408.33"/><polygon class="cls-21" points="1225.95 1437.32 1201.83 1423.4 1201.83 1355.34 1225.95 1369.27 1225.95 1437.32"/><g class="cls-38"><g class="cls-39"><polygon class="cls-28" points="1225.95 1369.27 1376.07 1282.6 1351.94 1268.67 1201.83 1355.35 1225.95 1369.27"/></g></g><polygon class="cls-40" points="1358.71 1438.78 1382.83 1424.86 1382.83 1356.81 1358.71 1370.73 1358.71 1438.78"/><polygon class="cls-28" points="1358.71 1370.73 1208.6 1284.06 1232.72 1270.14 1382.83 1356.81 1358.71 1370.73"/><polygon class="cls-5" points="1358.71 1370.73 1358.71 1373.54 1373.42 1365.67 1382.83 1359.77 1382.83 1356.81 1358.71 1370.73"/><polygon class="cls-5" points="1212.59 1364.99 1225.95 1372.14 1225.95 1369.27 1201.83 1355.34 1201.83 1358.24 1212.59 1364.99"/><polygon class="cls-30" points="1292.2 1213.02 1482.53 1322.93 1482.53 1886.25 1292.2 1776.42 1292.2 1213.02"/><polygon class="cls-35" points="1482.53 1886.25 1493.99 1877.72 1493.99 1314.4 1482.53 1322.93 1482.53 1886.25"/><polygon class="cls-27" points="1292.2 1213.02 1303.65 1204.49 1493.99 1314.4 1482.53 1322.93 1292.2 1213.02"/><path class="cls-3" d="M2463.16,1753c-79-45.61-206.69-45.84-285.2-.52s-78.11,119,.89,164.66,206.69,45.84,285.2.52,78.11-119-.89-164.66"/><path class="cls-14" d="M2292.23,973.93s-29,4.55-37.37,30.58-9.92,103.86-12.69,119.44-8.31,32.55-9.54,34-6.05,5.42,6.46,22.23,28.91,25.77,36.66,17.36,15.68-75.9,16.87-104.63-.38-119-.38-119"/><path class="cls-14" d="M2114,1328.92s5.54,9.24,6.62,9.55,5.7,4.93,8.93,4.31c3.08-.46,6-4.78,6-4.78s5.85,6,9.55,5.7a14.43,14.43,0,0,0,7.08-2.77s5.54.31,7.7-1.69l2-2s5.85-1.85,7.54-4.77c1.85-3.08-1.7-13.09-1.7-13.09s5.85-12.47,6.31-17.24a29.39,29.39,0,0,0-.31-7.54c-.46-1.54-.62-2.31-.62-2.31s92.22-75,99.46-91.15c4.93-10.78-10.16-23.71-20.94-31.25-5.54-3.7-9.85-6.16-9.85-6.16s-8-4-10.93-2.77c-2.77,1.38-14.62,10.16-26.94,31.56-12.47,21.24-35.41,46-49.73,64.51s-40.8,54-42.49,57.58c-1.7,3.7,2.31,14.32,2.31,14.32"/></g><g class="cls-41"><rect class="cls-42" x="2135.7" y="1147.72" width="167.81" height="166.72" transform="translate(-122.3 2209.68) rotate(-51.69)"/></g><g class="cls-2"><path class="cls-15" d="M2167.73,1319.4a4.16,4.16,0,0,0-3.39-3.49,23.34,23.34,0,0,0-4.81-.66s-1-2-4.54-2.61-4.91,1.06-4.91,1.06-3.84-.56-6,.52l-12,4.5,6.89,21.09-5.75.87-3.58-10.69-1.7-3.59a17.14,17.14,0,0,0-3.38,2.12c-.9.91-1.57.17-1.57.17s-3.16-6.11-2.89-8.13,1.8-7.49,1.8-7.49a62.63,62.63,0,0,0,7.81,1.33c2.06,0,17.39-4.14,17.39-4.14l9.42-3.41,3.41-7,1,11.61,3.65,2.51a4.5,4.5,0,0,1,3.12,5.44"/><path class="cls-15" d="M2277.9,1141.15c-4.2,8.54-10.33,19.34-19.82,20.1a82.4,82.4,0,0,0-24.88-63.68c1.27-6.07,2.7-12.72,4.23-19.63q.54-2.37,1.08-4.78a8.48,8.48,0,0,1,1.59-.57c7.9-1.94,16.27,1.49,22.57,6.63,10.2,8.33,16.3,21,18.4,34,1.53,9.4,1,19.39-3.17,27.94"/><path class="cls-7" d="M2307.16,967.11q-8.28,28.85-17.93,57.33c-1.47,4.34-11.22,26-19.72,46.14-4.18,9.89-8.56,17.94-8.85,29,0,1.53,0,3.88.13,6.62.34,6.16,1.34,14.26,3.8,19.11a8.42,8.42,0,0,0,3,3.63q-2.28-1.33-4.51-2.75c-10.28-6.55-19.61-14.43-28.56-22.78-5.05-4.71-10-9.57-14.89-14.4,2.44-6.38,3.64-13,5.07-19.61a102.63,102.63,0,0,1,2.82-10.84c3.2-9.65,5.71-19.59,8.67-29.38,6.93-22.88,24.16-56.63,49.84-62.93,9.34-2.29,14.62-2.06,17.56-1.27s3.54,2.1,3.54,2.1"/><path class="cls-19" d="M2233.79,1082.67a74.19,74.19,0,0,0,6.1,7.5,101.84,101.84,0,0,1-5.33,13.27c-5.05-4.71-10-9.57-14.89-14.4,2.44-6.38,3.64-13,5.07-19.6,3.29,4.18,6,8.88,9.06,13.24"/><path class="cls-19" d="M2267.62,1129q-2.28-1.33-4.51-2.75l.23-.15c.42-.26.83-.5,1.24-.73a8.41,8.41,0,0,0,3,3.63"/><path class="cls-5" d="M2264.59,1125.33c-.41.23-.82.47-1.24.73l-.23.15c-10.28-6.55-19.61-14.43-28.56-22.78a101.83,101.83,0,0,0,5.33-13.27,77.89,77.89,0,0,0,20.9,16c.34,6.16,1.34,14.26,3.8,19.11"/><g class="cls-9"><g class="cls-43"><path class="cls-11" d="M2272.59,1118.53c-2,3.57-4.82,4.94-8,6.8-2.45-4.86-3.46-13-3.8-19.11a77.89,77.89,0,0,1-20.9-16,159,159,0,0,0,6.29-31.33,143,143,0,0,1,18.38-54.17c.9-1.51,1.84-3,2.84-4.46-2.93,23.38-1.34,47,2.11,70.38,1.17,8,2.57,16,4.08,24s3.05,16.88-1,24"/></g></g><path class="cls-8" d="M2263.43,1818.79s-25,11.47-29.84,15.61-35.86,30.08-37.93,34.1-11.78,12.11-11.89,21,10.78,17.31,19.95,17.07,38.36-9.6,49.84-21.16,18.42-19.72,20.52-20.36,2.28.58,7.49,1.47,26.32-8.86,28.87-14.58,7.92-29.24,4.68-35.94-51.7,2.78-51.7,2.78"/><path class="cls-15" d="M2260,1811.44s-23.26,23.67-25.36,29.07c-1.24,3.18,14.63,5.61,17,6.6,11.72,4.83,12,6.54,23.29-1.06,13.59-9.16,35.37-23.73,24-42.72-6.86-11.47-39,8.12-39,8.12"/><path class="cls-6" d="M2357.11,1447.78s-45.3,114.93-42.15,131.4c10.81,56.64-4.32,226.06-4.69,232.88s-12.35,18.93-25.73,19.84-35.36-4.78-35.51-14.87-14.12-209.78-15.91-235.23c-1.18-17-1.92-47.39.35-88.61q.83-15.22,2.27-32.4,1.48-17.67,3.71-37.26c2.32-20.06,4.35-35.2,6.13-46.66,1.94-12.65,3.57-20.8,4.86-26,2.41-9.85,3.65-9.41,3.65-9.41s97.19-15.87,104.7,2.36-1.69,104-1.69,104"/><path class="cls-8" d="M2284,1831.79h.47c13.53-.79,25.48-12.9,25.8-19.82.31-6.76,15.57-176.17,4.72-232.8-3.15-16.52,42.1-131.48,42.1-131.48s.32-3.62.95-9.44l-44-9.3s8.81,15.73-.63,46.56c-9.6,30.68-10.38,93.91-11.64,103s10.54,12.58,7.24,80.69c-2.67,55.68-1.41,140.16-25,172.56"/><path class="cls-8" d="M2465.18,1762s-16.79,24.17-18.86,28.19-25.75,43.1-26.63,48.31.34,9.73,4.08,13.47,18.14,9,28.13,6.27,25.52-11.17,33.71-19.72,17.78-32.34,17.78-32.34,10-11.21,12.74-16.71,9.5-12.69,10.23-20.51,1.57-12.84-5.75-18.84-55.42,11.88-55.42,11.88"/><path class="cls-15" d="M2464.46,1756.15s-10.14,26.58-10.37,31.5,11.66,9.74,22.95,8.3,15.78-11.9,19.17-15.08,17.93-27.25,14.43-34.79-46.18,10.07-46.18,10.07"/><path class="cls-6" d="M2311.56,1353.33s-3,36.56-3.81,50.72-1.4,33.84-1.4,33.84l26.31,33.83s16.23,14.81,41.07,137.74c20.09,39.33,83.93,153.58,83.93,153.58s18.26,18.89,39.72,8.56c18.73-9,25.6-24,25.47-26.94-.37-8.25-41.5-110.56-47-125.25s-26.45-50.67-26.45-50.67-.1-54.61,1.53-72.84c3-33.38,32-116.31,22.1-132.81s-161.51-9.77-161.51-9.77"/><path class="cls-8" d="M2440.75,1577c20.13,21.23,38.85,72.35,53.17,107.75,11.8,29.26,21.55,51,22.49,72,4.56-5.67,6.6-10.54,6.45-12.11-.31-8.34-41.52-110.58-47-125.37-5.35-14.63-26.43-50.65-26.43-50.65s-.16-54.58,1.57-72.83c3-33.35,31.93-116.24,22-132.76-1.42-2.36-6.14-4.25-13.37-5.66,0,.47-.16.94-.16,1.42,0,0,7.24,3.46-3.77,51.12s-25.17,125.84-14.94,167.05"/><path class="cls-8" d="M2281.74,1342.93c-18.52,11.06-20.86,21.73-3.17,34.22,13.15,9.29,27.13,17.46,42.35,22.85,24.36,8.63,49,10.22,71.48,23,23.75,13.5,39,33.29,57.29,53-3-21.32,3.6-42.64,7.89-63.75s5.81-44.63-6-62.64c-8.7-13.27-23.6-21.52-39-25.17s-31.53-3.18-47.35-2.17c-28.88,1.85-58.62,5.77-83.47,20.61"/><path class="cls-7" d="M2470.37,1298.79c3.77,37.2,11.71,61.46,11.71,61.46s-25.1,27.08-62.65,30.83c-40.67,4.07-82.59-4-114.91-14.4h0c-30.21-9.73-52-21.52-56.68-27.43,0,0,1.7-14.71,3.66-34.5,2.63-26.62,5.72-62.44,5.71-84,0-28.54,1.42-69,1-103.52-.12-9-.36-17.61-.79-25.47-.1-1.7-.2-3.36-.3-5-2-28.83-3.14-61.31,7.52-92.11a126.91,126.91,0,0,1,14.15-28.79c5.13-7.76,14.19-10.53,24.53-10.85h.37c1.76,0,3.55,0,5.36.05a143.44,143.44,0,0,1,18.75,2.3q3.34.59,6.55,1.23l5,1c8.39,1.66,15.56,3,19.88,2.55,15.11-1.68,35.74-14.07,57.16,3.31l.11.09c21.45,17.36,62.88,33.42,71.72,58,10.33,28.7,8.17,66.33-11.28,150.75q-2.16,9.41-3.7,18.62a361.72,361.72,0,0,0-2.76,96"/><g class="cls-9"><g class="cls-44"><path class="cls-11" d="M2309,965.06a143.66,143.66,0,0,1,18.75,2.3,30.57,30.57,0,0,0-4.2,5.79,98.25,98.25,0,0,0-8.86,21.72c-2.09,7.63-.53,17.59,6.86,21.46-11.19-3-18.8-18.41-18.35-28.92.32-7.4.09-14.91.07-22.4h.37c1.76,0,3.55,0,5.36.05"/></g></g><g class="cls-9"><g class="cls-45"><path class="cls-11" d="M2470.37,1298.79c-3.39,2.63-6.76,5.31-10.15,8-21.38,17.28-42.82,36.37-66.58,49.42-26,14.28-56,19.35-85.39,20.28l-3.74.14h0c-30.21-9.73-52-21.52-56.68-27.43,0,0,1.7-14.71,3.66-34.5a161.84,161.84,0,0,0,41.51-12.49c26.2-11.62,58.16-27.77,78.71-47.76,25.67-25,33.43-61.23,30.35-95.62-2-22.17-6.2-44.45-3.39-66.54,5.59,22.07,6.81,56.73,23.64,72.89,15.11,14.49,36.35,23.37,50.84,37.62a361.72,361.72,0,0,0-2.76,96"/></g></g><path class="cls-5" d="M2321.64,1005.72c-.06,1.53.27,10.91,2.67,11.1a14.57,14.57,0,0,1-2.77-.48c-7.4-3.87-9-13.83-6.86-21.46a98.27,98.27,0,0,1,8.86-21.72,30.6,30.6,0,0,1,4.2-5.79l2.22.4,2.19.41c2.43.46,4.81.93,7.1,1.39-2.88,8.9-8,17.47-13.52,24.93a17.84,17.84,0,0,0-4.09,11.23"/><path class="cls-19" d="M2416.39,975.51a62.43,62.43,0,0,1-21.09,29.7c-12.21,9.53-27.46,14.72-42.87,16.1a64.32,64.32,0,0,1-29.55-4.36,13.43,13.43,0,0,1-1.33-.61,14.57,14.57,0,0,0,2.77.48c-2.4-.19-2.73-9.57-2.67-11.09a17.84,17.84,0,0,1,4.09-11.23c5.56-7.46,10.64-16,13.52-24.93,8.39,1.66,15.56,3,19.88,2.55,15.11-1.68,35.74-14.07,57.16,3.31l.11.09"/><path class="cls-14" d="M2323.15,979.94c.16,15.26-3.78,21.71-.16,27.37,3.15,4.56,30,10.7,41.53,6,3.93-1.57,7.55-3.3,10.7-4.88a.55.55,0,0,1,.31-.16c22.18-11.32,26.9-21.07,29.41-25.64a9.57,9.57,0,0,0-.16-9.6s-16.67-22-14.94-40.74c.47-4.87.95-14.79,1.26-24.54.47-12.43.94-24.38.94-24.38s-10.22-20-19.5-18.87c-9.28,1.26-53.17,48-53.17,48s1.26,18.87,2.36,37.28c.63,10.38,1.1,20.61,1.26,27.21a20.12,20.12,0,0,1,.16,3"/><path class="cls-15" d="M2321.74,949.73c.63,10.38,1.1,20.61,1.26,27.21,3.15.16,7.86-.79,14.31-3.3,28.63-11.33,35.86-9.44,44.83-3,8,6,5.19,26.43-6.6,37.59,22.18-11.32,26.9-21.07,29.41-25.64a9.58,9.58,0,0,0-.16-9.6s-16.67-22-14.94-40.74c.52-5.58.73-11.18,1-16.78s2.16-11.79,4.06-17.22a20.09,20.09,0,0,1-8.35,6.89c-3.52,1.67-6.9.34-10.74-.19a159.86,159.86,0,0,0-20.75-1.53c-1.52,0-17.25-.59-17.9,1.3l-15.41,45"/><path class="cls-14" d="M2381.52,882.05s-2.13,47.89-6.82,58-38.48,36.19-71.08,31.67c-8.74-4.65-22.19-28.77-23.73-50.08a192.09,192.09,0,0,1-.28-28,12.46,12.46,0,0,0,0-3c-.48-1.86-7-14.89-6-20.87,0-.14.05-.32.08-.49,1-7.15,2.94-39.51,14.27-53.87,11.62-14.72,43.72-23.78,72.54-12.16s21,78.8,21,78.8"/><path class="cls-15" d="M2369.76,899.12c-3.79-1.56-4.45-3.84-6.56-7.36-2.63-4.41-4.13-11.67-9.38-14.1s-11.08,3.42-15.42,5.62a115.87,115.87,0,0,1-14.16,6.11,91.57,91.57,0,0,1-18.75,4.33c-4.91.63-8.26,5-13.16,4.68a20.61,20.61,0,0,1-7.53-2.47,42.38,42.38,0,0,0-5.19-2.31,12.51,12.51,0,0,0,0-3c-.48-1.86-7-14.89-6-20.87,0-.14.05-.32.08-.49a48.78,48.78,0,0,1,12.14-9.55c11.52-6.52,25.25-9.56,38.23-7a27.25,27.25,0,0,1,12.29,5.3c3.47,2.88,5.89,7.23,5.66,11.74l5.87-8.21c3.42-2.43,8.36-1.84,11.81.57s5.59,6.27,7,10.22c3,8.51,3.08,17.75,3.1,26.77"/><path class="cls-8" d="M2372.08,899s-2.76-18.93,9.13-22.28,11,17.61,11,17.61l-2.84,33.17.41,4.79s12.23-23.66,16.26-31.11,5.95-10.51,7.54-18.78,8-43.72,6.31-56.12-22.94-31.08-39.19-32.44c-7.45-10-22.61-13.34-37.29-13.44s-25.67-.57-43.27,13.13-17.24,24.42-18.6,27.77-2.69,18.2-2.69,18.2l2.18-8.15s7,4.61,28.74,2.73,33.76-10.58,33.76-10.58-4,15.41-3.17,21.11,4.2,23.34,4.2,23.34,11.19,6.66,14.91,9.27,5.49,8.67,5.49,8.67l.85,9.11a4.71,4.71,0,0,0,6.27,4"/><path class="cls-46" d="M2275.49,837.27l3.15,3.93s57.57,17,63.39,18.4c2.67.63,7.08,2.67,13.53,4.72a137.24,137.24,0,0,0,33.66,6.61l26.11,2.2s8.34-25,4.41-48c-3.15-18.24-24.22-34.14-48.76-41.53a.15.15,0,0,1-.16-.16,102.24,102.24,0,0,0-19.51-3.93c-31.93-3.3-53.48,10.23-63.71,25.64a84.45,84.45,0,0,0-12.11,32.09"/><path class="cls-7" d="M2371.13,783.67l-.16,0c6.45,3.77,25.32,8.49,20.13,45.15-1.22,8.61-4.42,17-11.23,22.77-8.95,7.52-20.49,5-30.68,1.38-21.91-7.82-43.38-28.13-67.92-15.33a125.05,125.05,0,0,1,62.71,20.6c13.18,8.75,29.64,11.42,45.23,12.74l26.11,2.2s8.34-25,4.41-48c-2.52-14.71-15.5-25.63-27.78-32.62-5-2.87-15-9.5-21.15-8.23-7,1.44-11.6,13.78-13.91,19.58a43.8,43.8,0,0,1,3.27-14.83c.95-2.29,2.65-4.85,5.12-4.72-10.79,1.37-21.82,3.47-31.55,8.56-8.74,4.58-14.94,13.83-21.62,21.09-4.58,5-8.72,10.79-9.67,17.49A103.7,103.7,0,0,1,2328.06,794c9.44-9,25.06-12.91,37.9-13.52"/><path class="cls-17" d="M2301.9,895.13a34.46,34.46,0,0,1-.94,10.68q-.32,1.32-.75,2.61a17,17,0,0,1-1.06,2.57c-.86,1.65-1.9,3.09-2.69,4.58a12.3,12.3,0,0,0-1,2.24,9.79,9.79,0,0,0-.27,1.16,7.41,7.41,0,0,0,0,1.09,4.13,4.13,0,0,0,.68,2,8,8,0,0,0,1.65,1.69,20.26,20.26,0,0,0,4.5,2.43c1.61.69,3.29,1.26,5,1.89a39.16,39.16,0,0,1-5.27-1,17.84,17.84,0,0,1-5.08-2.08,8.29,8.29,0,0,1-2.18-2,6,6,0,0,1-1.14-2.88,7.37,7.37,0,0,1,0-1.55,11.32,11.32,0,0,1,.31-1.43,14,14,0,0,1,1.11-2.63c.91-1.62,2-3.05,2.79-4.52a27.46,27.46,0,0,0,2-4.72,64.52,64.52,0,0,0,2.43-10.25"/><path class="cls-8" d="M2322.57,890.55c-1,.85-1.34,2.84-1.44,3.79-.19,1.74-.19,4.9,2.46,5.5,4,.9,4-4.55,3.45-6.43a5,5,0,0,0-1.85-2.66c-1.18-.83-2-.73-2.62-.21"/><path class="cls-8" d="M2285.91,887.21a6.37,6.37,0,0,0-1.47,2.72c-.56,1.94-.64,5.82,2.42,6.51,4,.9,4-4.55,3.45-6.43-.3-1.09-1.73-3.54-3.56-3.24a1.68,1.68,0,0,0-.84.43"/><path class="cls-8" d="M2319,948.21a19.29,19.29,0,0,1-6.45,6.42,7.36,7.36,0,0,1-8.53-.73,7.53,7.53,0,0,1-1.08-1.11c-3-3.83-5.73-9.13-5.75-12.35a48.29,48.29,0,0,0,24.51-2.68,17.71,17.71,0,0,1-2.7,10.46"/><path class="cls-8" d="M2342.32,886.33a99,99,0,0,0-28.63-2.52c.23-1.68.37-3.24.74-4.89a.51.51,0,0,1,.19-.35.52.52,0,0,1,.33,0c4,.53,8.09,1.13,12.08,1.88,2.09.39,4.17.81,6.23,1.31,1.72.41,3.81.45,5.31,1.46,1.31.88,2.19,2.57,3.74,3.14"/><path class="cls-8" d="M2275.54,882a41.88,41.88,0,0,1,10.43-1c1.11,0,12.66.51,12.66,1.22,0-1.69,0-3.25-.11-4.93a.53.53,0,0,0-.13-.37.42.42,0,0,0-.29-.06c-3.59.13-7.33.32-11,.66-2.36.22-4.77.42-7.11.8s-3.2,1.49-4.47,3.64"/><path class="cls-18" d="M2320.1,890.25a7.68,7.68,0,0,1,3.3-1.54,10.36,10.36,0,0,1,3.65,0,15.87,15.87,0,0,1,6.68,2.54,0,0,0,0,1,0,.07.05.05,0,0,1-.06,0,17.16,17.16,0,0,0-6.71-1.83,21.66,21.66,0,0,0-3.41.21,26.08,26.08,0,0,0-3.42.65.05.05,0,0,1-.06,0,.05.05,0,0,1,0-.05"/><path class="cls-18" d="M2289.92,886a5,5,0,0,0-2.23-.67c-.79-.07-1.61-.3-2.42-.43q-2.45-.38-5-.55a0,0,0,0,1,0-.05,0,0,0,0,1,0,0,32.34,32.34,0,0,1,5-.15,11.71,11.71,0,0,1,2.54.25,3,3,0,0,1,2.11,1.59.05.05,0,0,1,0,.07h0"/><path class="cls-19" d="M2319,948.21a19.29,19.29,0,0,1-6.45,6.42,7.36,7.36,0,0,1-8.53-.73,29.43,29.43,0,0,1,15-5.68"/><path class="cls-19" d="M2355.53,864.29s-.48.42-1.36,1.15c-7.7,6.35-46.13,36.69-60.29,22.41-.85-.85-1.79-1.7-2.81-2.54-.81-.67-1.67-1.32-2.57-2s-1.86-1.31-2.87-1.94q-2-1.26-4.11-2.44c-11.23-6.23-25.48-10.73-34.76-10a16.43,16.43,0,0,0-3.71.63l-12.12,3.6a3,3,0,0,1-2.25-3.47c.05-.53,1.66-2,4.23-3.93,11.53-8.8,42.62-28.51,42.62-28.51s2.75-2.94,9.67-3.84h0a32.42,32.42,0,0,1,5.12-.24c6,.14,14.16,1.73,24.83,6.38.52.22,1.06.46,1.59.7,10,4.53,22.24,11.68,37,22.68l1.81,1.36"/><path class="cls-14" d="M2372.6,886.43s6.44-17,19.43-10.42-5.64,40.45-14.06,40.91-6.85-8.21-6.85-8.21,9.06-14.26,1.48-22.29"/><path class="cls-14" d="M2488.43,1243.24c-3.14,16-10.42,29.76-27.71,50.34s-89.3,74.25-94.63,89.45-2,32.79-4.84,38.69-8.45,15.37-12.12,17.36a11.37,11.37,0,0,1-2.32.88,66.64,66.64,0,0,1-10.38,2.06l-9.29-.64-17.55,2.06s-8.63-.68-9.34-3.37a28.64,28.64,0,0,1-.38-7.26,37.69,37.69,0,0,1-5.91,4.28l-.09.1c-1.64,1-3.5,1.69-4.83,1.39a2.83,2.83,0,0,1-2.12-2c-.78-2.28.24-6,1.51-9.34,1-2.64,3.28-10.52,5.52-17.42,1.77-5.44,3.52-10.28,4.67-11.55,2.5-2.77,39.74-28.92,49.09-43.2s89-116.4,89-116.4,7.41-22.17,2.07-36.63-47.75-157.64,10-181.77c20.1-3.15,34.29,11.89,39,52s3.9,155,.67,170.92"/><path class="cls-15" d="M2346.81,1440a67.24,67.24,0,0,1-10.38,2.06l-9.29-.64-17.55,2.06s-8.63-.68-9.34-3.38a28.94,28.94,0,0,1-.38-7.25,37,37,0,0,1-5.91,4.28,69.83,69.83,0,0,0,5-6.31s1.34-6.78,3.37-9.44,9.3-9.94,9.3-9.94c2.26-.12,5,12.49,5,12.49l-1.83,8.31-8-2.79s-.62-4.5.14-6.24,5.55-7.56,5.55-7.56l-8.25,4.78s-2.11,4.74-3.19,7.53.86,12.61.86,12.61,2,1.12,8,.52,19.45-3.77,19.45-3.77l2.82,1.46,9.47.54Z"/><path class="cls-7" d="M2507.13,1145.28c.21,5.34-35.4,22.77-40.77,25a70.67,70.67,0,0,1-40,4.17c-3.13-.59-6.46-1.54-8.44-4-1.49-1.85-2-4.3-2.38-6.65,0,0,0-.08,0-.12-10-40.83-.76-86.17,5.83-126.81.74-4.57,1.55-9.29,4.06-13.19,4.34-6.74,13-9.61,21-9.14,31.79,1.87,46.17,14,50.6,45.67,2.87,20.55,6.34,41.19,8.43,61.92.77,7.71,1.36,15.46,1.66,23.2"/><path class="cls-15" d="M2389.18,898.31c-2.59,3-6.3,4.75-8.54,8.13-.86-6.16-6-16.58-.83-21.8,9.15-9.27,15.43,6.55,9.37,13.67"/><path class="cls-19" d="M2375.74,786.42l-11.34-2.28A4.33,4.33,0,0,1,2361,779l.17-.83a4.33,4.33,0,0,1,5.1-3.39l11.34,2.28a4.33,4.33,0,0,1,3.39,5.1l-.17.83a4.33,4.33,0,0,1-5.1,3.39"/><path class="cls-19" d="M2281.41,877.81l4.21,3.58q-2-1.26-4.11-2.44c0-.38-.08-.75-.1-1.14"/><path class="cls-5" d="M2355.53,864.29s-.48.42-1.36,1.15c-7.7,6.35-46.13,36.69-60.29,22.41-.85-.85-1.79-1.7-2.81-2.54a66.61,66.61,0,0,0,20.76-9.48c13-9,13-21.4,4.79-34.3a18.48,18.48,0,0,0-1.44-2c.52.22,1.06.46,1.59.7,10,4.53,22.24,11.68,37,22.68l1.81,1.36"/><path class="cls-5" d="M2290.35,833.16a17.61,17.61,0,0,1-2.62,2.94c-7,6.54-15.38,11.25-23.3,16.59-6.67,4.5-13.17,9.66-17.67,16.22a16.39,16.39,0,0,0-3.71.63l-12.12,3.6a3,3,0,0,1-2.25-3.47c.05-.53,1.66-2,4.23-3.93,11.53-8.8,42.62-28.51,42.62-28.51s2.75-2.93,9.67-3.84h0a32.26,32.26,0,0,1,5.12-.24"/><path class="cls-19" d="M2507.13,1145.28c.21,5.34-35.4,22.77-40.77,25a70.67,70.67,0,0,1-40,4.17c-3.13-.59-6.46-1.54-8.44-4-1.49-1.85-2-4.3-2.38-6.65a51.37,51.37,0,0,0,8,.36c30-1,62.32-20.1,82-42,.77,7.71,1.36,15.46,1.66,23.2"/><polygon class="cls-3" points="1918.72 2183.12 2221.91 2008.07 2047.43 1907.33 1744.23 2082.38 1918.72 2183.12"/><polygon class="cls-47" points="2203.04 2030.19 1966.45 1893.6 2061.97 1838.45 2298.55 1975.04 2203.04 2030.19"/><path class="cls-48" d="M2288.43,1427.28c-1.27,3.3-2.3,7.07-1.51,9.34l-3.19,1-1.53-4.63L2278,1420.3l-1.62-4.92,17.56-5.53c-2.24,6.91-4.5,14.78-5.52,17.42"/><polygon class="cls-48" points="2183.25 1318.97 2114.72 1339.5 2108.88 1316.88 2175.89 1296.73 2183.25 1318.97"/><path class="cls-48" d="M2172.21,1301.44c-1.16,5.15,1.06,12.24,5,15.84s8,2.35,9.17-2.8-1.05-12.24-5-15.84-8-2.35-9.17,2.8"/><path class="cls-49" d="M2106.36,1310.36l6.06-1.86.21-.07.32-.1,0,.05c2.54-.57,5.52.35,8.45,3.06,6.2,5.73,9.73,17,7.88,25.18-.91,4-3,6.55-5.55,7.39v0l-.09,0h0l-6,1.88-1.12-3.53a15.1,15.1,0,0,1-1.75-1.34c-6.2-5.73-9.73-17-7.88-25.18a14.51,14.51,0,0,1,.63-1.93Z"/><path class="cls-48" d="M2100.63,1317.82c-1.85,8.18,1.68,19.46,7.88,25.18s12.72,3.74,14.57-4.44-1.68-19.46-7.88-25.18-12.72-3.74-14.57,4.44"/><path class="cls-50" d="M2104.79,1321.66c-1.16,5.15,1.06,12.24,5,15.84s8,2.35,9.17-2.8-1.05-12.24-5-15.84-8-2.35-9.17,2.8"/><path class="cls-48" d="M2283.42,1411.57l28.23-3.18s10,11.62,2.37,20.56l-27.11,7.66Z"/><path class="cls-49" d="M2274.54,1408.67l6-1.95.21-.07.32-.1,0,.05c2.54-.61,5.53.28,8.49,2.94,6.27,5.64,10,16.87,8.21,25.07-.86,4-2.88,6.58-5.45,7.46v0l-.09,0h0l-6,2-1.16-3.52a14.65,14.65,0,0,1-1.77-1.32c-6.28-5.64-10-16.87-8.21-25.07a14.86,14.86,0,0,1,.6-1.94Z"/><path class="cls-48" d="M2268.91,1416.21c-1.74,8.21,1.94,19.43,8.21,25.07s12.77,3.57,14.51-4.64-1.94-19.43-8.21-25.07-12.77-3.57-14.51,4.64"/><path class="cls-50" d="M2273.13,1420c-1.1,5.16,1.22,12.22,5.16,15.77s8,2.24,9.13-2.92-1.22-12.22-5.17-15.77-8-2.24-9.13,2.92"/><path class="cls-49" d="M2074.23,1784.48c0,29.44-20.8,65.32-46.46,80.13s-46.46,3-46.46-26.49,20.8-65.32,46.46-80.14,46.46-3,46.46,26.49"/><polygon class="cls-49" points="2058.95 1753.79 2080.86 1766.34 2013.73 1878.78 1992.47 1866.32 2010.77 1790.06 2058.95 1753.79"/><path class="cls-48" d="M2094.09,1795.95c0,29.44-20.8,65.32-46.46,80.13s-46.46,3-46.46-26.49,20.8-65.32,46.46-80.14,46.46-3,46.46,26.49"/><path class="cls-50" d="M2076.86,1805.9c0,18.52-13.09,41.09-29.23,50.41s-29.22,1.86-29.22-16.66,13.08-41.09,29.22-50.41,29.23-1.86,29.23,16.66"/><polygon class="cls-51" points="1977.07 1894.17 2054.14 1818.34 2047.63 1814.58 1977.07 1832.85 1977.07 1894.17"/><polygon class="cls-52" points="1983.58 1897.93 2054.14 1834.72 2054.14 1818.34 1983.58 1836.61 1983.58 1897.93"/><polygon class="cls-50" points="1750.09 1906.21 1928.45 2009.19 1928.45 2018.42 1750.09 1915.44 1750.09 1906.21"/><path class="cls-50" d="M1983.71,1891.8,2032,1419c3.25-38,11.82-47,25.56-57.31,11.74-10.29,28.3-17.72,40-21.36l15.68-4.88-4-12.73-15.68,4.88c-6.32,2-28.21,9.47-44.48,23.75-17.78,13.37-27,26.84-30.42,66.42l-48.31,472.64Z"/><path class="cls-53" d="M1993.25,1714.55a2,2,0,0,1-.79-1.78,6.32,6.32,0,0,1,2.87-5,2,2,0,0,1,2-.22h0l0,0h0l179.5,103.6-3.72,7.13-179.83-103.73h0l-.06,0Z"/><path class="cls-53" d="M2014.49,1538a2,2,0,0,1-.79-1.78,6.33,6.33,0,0,1,2.87-5,2,2,0,0,1,2-.22h0l0,0h0l179.5,103.6-3.72,7.13-179.83-103.73h0l-.07,0Z"/><path class="cls-53" d="M2044.25,1826.12a3.42,3.42,0,0,1-1.34-3,10.77,10.77,0,0,1,4.89-8.43,3.47,3.47,0,0,1,3.36-.37v0l.07,0h0l162.66,93.92-6.34,12.15-163.22-94.15,0,0-.1-.06Z"/><polygon class="cls-51" points="2148.92 1993.39 2219.48 1930.18 2219.48 1913.8 2148.92 1932.07 2148.92 1993.39"/><polygon class="cls-52" points="1928.45 2009.19 2155.43 1987.92 1977.07 1884.94 1750.09 1906.21 1928.45 2009.19"/><polygon class="cls-53" points="2161.07 1935.51 2155.43 1987.92 1977.07 1884.94 1982.71 1832.53 2161.07 1935.51"/><polygon class="cls-52" points="2155.43 1997.15 2225.99 1933.94 2225.99 1917.56 2155.43 1935.83 2155.43 1997.15"/><polygon class="cls-50" points="1928.45 2009.19 2155.43 1987.92 2155.43 1997.15 1928.45 2018.42 1928.45 2009.19"/><path class="cls-50" d="M2162.07,1994.78,2210.39,1522l2.36-16.55c3.79-27.4,4.69-33.91,15-44.12,7-9.45,20.6-17.36,40.08-23.69l15.62-5.09-4.12-12.69-15.62,5.09c-22.51,7.31-38,16.64-46.05,27.72-12.82,12.57-14.16,22.25-18.15,51l-2.38,16.73-48.35,473Z"/><path class="cls-49" d="M2272.45,1899.19c0,29.44-20.8,65.32-46.46,80.14s-46.46,3-46.46-26.49,20.8-65.32,46.46-80.14,46.46-3,46.46,26.49"/><polygon class="cls-49" points="2191.96 1981.95 2212.92 1994.1 2235.57 1945.37 2280.37 1881.87 2258 1868.9 2191.96 1981.95"/><path class="cls-48" d="M2292.31,1910.66c0,29.44-20.8,65.32-46.46,80.14s-46.46,3-46.46-26.49,20.8-65.32,46.46-80.14,46.46-3,46.46,26.49"/><path class="cls-50" d="M2275.08,1920.61c0,18.52-13.09,41.09-29.23,50.41s-29.22,1.86-29.22-16.66,13.08-41.09,29.22-50.41,29.23-1.86,29.23,16.66"/><path class="cls-48" d="M2253,1933.36a15.72,15.72,0,0,1-7.14,12.31c-3.94,2.28-7.14.45-7.14-4.07a15.72,15.72,0,0,1,7.14-12.31c3.94-2.28,7.14-.45,7.14,4.07"/><polygon class="cls-21" points="1963.3 1999.11 1808 1909.45 1823.28 1741.98 1978.58 1831.65 1963.3 1999.11"/><polygon class="cls-19" points="1963.3 1999.11 2134.28 1982.85 2149.57 1815.38 1978.58 1831.65 1963.3 1999.11"/><polygon class="cls-5" points="1978.58 1831.65 2149.57 1815.38 1994.27 1725.72 1823.28 1741.98 1978.58 1831.65"/><polygon class="cls-28" points="1900.77 1870.93 1868.85 1852.51 1878.83 1774.05 1910.73 1792.47 1900.77 1870.93"/><polygon class="cls-21" points="1910.73 1792.47 2081.72 1776.21 2049.81 1757.79 1878.82 1774.05 1910.73 1792.47"/><polygon class="cls-5" points="2149.57 1815.38 1978.58 1831.65 2047.19 1830.16 2149.57 1815.38"/><polygon class="cls-21" points="1978.98 1827.66 1823.68 1738 1838.96 1570.53 1994.26 1660.19 1978.98 1827.66"/><polygon class="cls-19" points="1978.98 1827.66 2149.96 1811.39 2165.25 1643.93 1994.26 1660.19 1978.98 1827.66"/><polygon class="cls-28" points="1994.26 1660.19 2165.25 1643.93 2009.95 1554.27 1838.96 1570.53 1994.26 1660.19"/><polygon class="cls-28" points="1916.44 1699.48 1884.53 1681.05 1894.5 1602.6 1926.41 1621.02 1916.44 1699.48"/><polygon class="cls-54" points="1926.41 1621.02 2097.4 1604.76 2065.49 1586.33 1894.5 1602.6 1926.41 1621.02"/><polygon class="cls-5" points="2165.25 1643.93 1994.26 1660.19 2062.87 1658.71 2165.25 1643.93"/><path class="cls-55" d="M2148.24,1343s5.47-4.07,2.65-7.94-7.15-10.91-7.15-10.91l.48-13s12-2.75,14.11-12.64-6.3-20.85-11.77-19.53-21.72,24-22.57,25.54,6.79,23,6.79,23,6.24,10,7.69,11.63,5.2,7,9.77,3.83"/><polygon class="cls-56" points="3397.57 2099.02 2902.54 1813.22 2902.54 1761.2 3397.57 2047.01 3397.57 2099.02"/><polygon class="cls-57" points="3444.52 2071.91 3397.57 2099.02 3397.57 2047.01 3444.52 2019.89 3444.52 2071.91"/><polygon class="cls-58" points="3397.57 2047.01 2902.54 1761.2 2949.49 1734.09 3444.52 2019.9 3397.57 2047.01"/><polygon class="cls-56" points="3108.61 2265.85 2613.58 1980.04 2613.58 1928.02 3108.61 2213.83 3108.61 2265.85"/><polygon class="cls-57" points="3155.57 2238.74 3108.61 2265.85 3108.61 2213.83 3155.57 2186.72 3155.57 2238.74"/><polygon class="cls-58" points="3108.61 2213.83 2613.58 1928.02 2660.54 1900.92 3155.57 2186.72 3108.61 2213.83"/><polygon class="cls-56" points="2789.22 2450.25 2294.19 2164.44 2294.19 2112.43 2789.22 2398.23 2789.22 2450.25"/><polygon class="cls-57" points="2836.18 2423.14 2789.22 2450.25 2789.22 2398.23 2836.18 2371.12 2836.18 2423.14"/><polygon class="cls-58" points="2789.22 2398.23 2294.19 2112.43 2341.15 2085.32 2836.18 2371.12 2789.22 2398.23"/><polygon class="cls-57" points="2789.18 2398.5 3444.62 2020.08 3444.62 2007.62 2789.18 2386.04 2789.18 2398.5"/><polygon class="cls-56" points="2742.22 2371.39 2789.18 2398.5 2789.18 2386.04 2742.22 2358.93 2742.22 2371.39"/><polygon class="cls-58" points="2789.18 2386.04 3444.62 2007.62 3397.67 1980.51 2742.22 2358.93 2789.18 2386.04"/><polygon class="cls-57" points="2677.16 2333.82 3332.61 1955.4 3332.61 1942.95 2677.16 2321.37 2677.16 2333.82"/><polygon class="cls-56" points="2630.21 2306.72 2677.16 2333.82 2677.16 2321.37 2630.21 2294.26 2630.21 2306.72"/><polygon class="cls-58" points="2677.16 2321.37 3332.61 1942.95 3285.65 1915.84 2630.21 2294.26 2677.16 2321.37"/><polygon class="cls-57" points="2565.15 2269.16 3220.59 1890.73 3220.59 1878.28 2565.15 2256.7 2565.15 2269.16"/><polygon class="cls-56" points="2518.19 2242.04 2565.15 2269.16 2565.15 2256.7 2518.19 2229.59 2518.19 2242.04"/><polygon class="cls-58" points="2565.15 2256.7 3220.59 1878.28 3173.64 1851.17 2518.19 2229.59 2565.15 2256.7"/><polygon class="cls-57" points="2453.13 2204.48 3108.58 1826.06 3108.58 1813.61 2453.13 2192.03 2453.13 2204.48"/><polygon class="cls-56" points="2406.18 2177.37 2453.13 2204.48 2453.13 2192.03 2406.18 2164.92 2406.18 2177.37"/><polygon class="cls-58" points="2453.13 2192.03 3108.58 1813.61 3061.62 1786.49 2406.18 2164.92 2453.13 2192.03"/><polygon class="cls-57" points="2341.12 2139.81 2996.56 1761.39 2996.56 1748.93 2341.12 2127.35 2341.12 2139.81"/><polygon class="cls-56" points="2294.16 2112.7 2341.12 2139.81 2341.12 2127.35 2294.16 2100.25 2294.16 2112.7"/><polygon class="cls-58" points="2341.12 2127.35 2996.56 1748.93 2949.61 1721.82 2294.16 2100.25 2341.12 2127.35"/><polygon class="cls-19" points="2846.37 2085.44 2682.38 1990.75 2682.38 1802.57 2846.37 1897.25 2846.37 2085.44"/><polygon class="cls-5" points="2846.37 1897.25 2846.37 2085.44 2848.02 2084.48 2955.6 2022.37 3010.36 1990.75 3010.36 1802.57 2867.96 1884.79 2846.37 1897.25"/><path class="cls-40" d="M2846.37,1897.25v186.6l1.65.63,107.58-62.11Q2913,1952.8,2868,1884.79Z"/><polygon class="cls-21" points="2846.37 1897.25 3010.36 1802.57 2846.37 1707.89 2682.38 1802.57 2846.37 1897.25"/><polygon class="cls-21" points="2772.47 1928.93 2746.12 1913.71 2746.12 1839.37 2772.47 1854.59 2772.47 1928.93"/><g class="cls-38"><g class="cls-59"><polygon class="cls-28" points="2772.47 1854.59 2936.46 1759.9 2910.11 1744.69 2746.12 1839.37 2772.47 1854.59"/></g></g><polygon class="cls-40" points="2917.51 1930.52 2943.86 1915.31 2943.86 1840.97 2917.51 1856.18 2917.51 1930.52"/><polygon class="cls-28" points="2917.51 1856.18 2753.51 1761.5 2779.86 1746.29 2943.86 1840.97 2917.51 1856.18"/><polygon class="cls-5" points="2917.51 1856.18 2917.51 1859.25 2933.57 1850.66 2943.86 1844.21 2943.86 1840.97 2917.51 1856.18"/><polygon class="cls-5" points="2757.88 1849.91 2772.47 1857.72 2772.47 1854.59 2746.12 1839.37 2746.12 1842.54 2757.88 1849.91"/><polygon class="cls-19" points="3052.58 2195.96 2884.58 2098.96 2884.58 1906.17 3052.58 2003.17 3052.58 2195.96"/><polygon class="cls-5" points="3052.58 2195.96 3220.59 2098.96 3220.59 1906.17 3052.58 2003.17 3052.58 2195.96"/><polygon class="cls-21" points="3052.58 2003.17 3220.59 1906.17 3052.58 1809.17 2884.58 1906.17 3052.58 2003.17"/><polygon class="cls-21" points="2976.87 2035.62 2949.88 2020.03 2949.88 1943.87 2976.87 1959.46 2976.87 2035.62"/><g class="cls-38"><g class="cls-60"><polygon class="cls-28" points="2976.87 1959.46 3144.88 1862.46 3117.89 1846.87 2949.88 1943.87 2976.87 1959.46"/></g></g><polygon class="cls-40" points="3125.46 2037.25 3152.45 2021.67 3152.45 1945.51 3125.46 1961.09 3125.46 2037.25"/><polygon class="cls-28" points="3125.46 1961.09 2957.45 1864.1 2984.45 1848.51 3152.45 1945.51 3125.46 1961.09"/><polygon class="cls-5" points="3125.46 1961.09 3125.46 1964.24 3141.92 1955.43 3152.45 1948.83 3152.45 1945.51 3125.46 1961.09"/><polygon class="cls-5" points="2961.93 1954.67 2976.87 1962.66 2976.87 1959.46 2949.88 1943.87 2949.88 1947.11 2961.93 1954.67"/><polygon class="cls-19" points="2573.91 2226.25 2401.19 2126.53 2401.19 1928.34 2573.91 2028.06 2573.91 2226.25"/><polygon class="cls-5" points="2573.91 2226.25 2746.62 2126.53 2746.62 1928.34 2573.91 2028.06 2573.91 2226.25"/><polygon class="cls-21" points="2573.91 2028.06 2746.62 1928.34 2573.91 1828.63 2401.19 1928.34 2573.91 2028.06"/><polygon class="cls-21" points="2496.07 2061.42 2468.32 2045.4 2468.32 1967.1 2496.07 1983.12 2496.07 2061.42"/><g class="cls-38"><g class="cls-61"><polygon class="cls-28" points="2496.07 1983.12 2668.79 1883.41 2641.04 1867.39 2468.32 1967.1 2496.07 1983.12"/></g></g><polygon class="cls-40" points="2648.82 2063.1 2676.57 2047.08 2676.57 1968.78 2648.82 1984.81 2648.82 2063.1"/><polygon class="cls-28" points="2648.82 1984.81 2476.11 1885.09 2503.86 1869.07 2676.57 1968.78 2648.82 1984.81"/><polygon class="cls-5" points="2648.82 1984.81 2648.82 1988.04 2665.74 1978.99 2676.57 1972.19 2676.57 1968.78 2648.82 1984.81"/><polygon class="cls-5" points="2480.71 1978.2 2496.07 1986.42 2496.07 1983.12 2468.32 1967.1 2468.32 1970.43 2480.71 1978.2"/><polygon class="cls-19" points="2767.92 2333.82 2595.2 2234.11 2595.2 2035.92 2767.92 2135.64 2767.92 2333.82"/><polygon class="cls-5" points="2767.92 2333.82 2940.63 2234.11 2940.63 2035.92 2767.92 2135.64 2767.92 2333.82"/><polygon class="cls-21" points="2767.92 2135.64 2940.63 2035.92 2767.92 1936.2 2595.2 2035.92 2767.92 2135.64"/><polygon class="cls-21" points="2690.09 2168.99 2662.34 2152.97 2662.34 2074.68 2690.09 2090.7 2690.09 2168.99"/><g class="cls-38"><g class="cls-62"><polygon class="cls-28" points="2690.09 2090.7 2862.8 1990.99 2835.05 1974.96 2662.34 2074.68 2690.09 2090.7"/></g></g><polygon class="cls-40" points="2842.84 2170.68 2870.59 2154.66 2870.59 2076.36 2842.84 2092.38 2842.84 2170.68"/><polygon class="cls-28" points="2842.84 2092.38 2670.12 1992.67 2697.87 1976.65 2870.59 2076.36 2842.84 2092.38"/><polygon class="cls-5" points="2842.84 2092.38 2842.84 2095.61 2859.75 2086.57 2870.59 2079.77 2870.59 2076.36 2842.84 2092.38"/><polygon class="cls-5" points="2674.72 2085.78 2690.09 2094 2690.09 2090.7 2662.34 2074.68 2662.34 2078.01 2674.72 2085.78"/><polygon class="cls-19" points="2591.44 2027.44 2418.73 1927.72 2418.73 1729.53 2591.44 1829.25 2591.44 2027.44"/><polygon class="cls-5" points="2591.44 2027.44 2764.16 1927.72 2764.16 1729.53 2591.44 1829.25 2591.44 2027.44"/><polygon class="cls-21" points="2591.44 1829.25 2764.16 1729.53 2591.44 1629.82 2418.73 1729.53 2591.44 1829.25"/><polygon class="cls-21" points="2513.61 1862.61 2485.86 1846.59 2485.86 1768.29 2513.61 1784.31 2513.61 1862.61"/><g class="cls-38"><g class="cls-63"><polygon class="cls-28" points="2513.61 1784.31 2686.32 1684.6 2658.57 1668.58 2485.86 1768.29 2513.61 1784.31"/></g></g><polygon class="cls-40" points="2666.36 1864.29 2694.11 1848.27 2694.11 1769.97 2666.36 1786 2666.36 1864.29"/><polygon class="cls-28" points="2666.36 1786 2493.65 1686.28 2521.4 1670.26 2694.11 1769.97 2666.36 1786"/><polygon class="cls-5" points="2666.36 1786 2666.36 1789.23 2683.28 1780.18 2694.11 1773.38 2694.11 1769.97 2666.36 1786"/><polygon class="cls-5" points="2498.25 1779.39 2513.61 1787.61 2513.61 1784.31 2485.86 1768.29 2485.86 1771.63 2498.25 1779.39"/><path class="cls-40" d="M2843.7,1883.34c.9.41,1.8.83,2.67,1.3a16.9,16.9,0,0,1-3.4-2.4c.25.36.49.73.73,1.1"/><path class="cls-40" d="M2843,1882.22q-2.35-3.54-4.72-7.05a17.5,17.5,0,0,0,4.72,7.05"/><path class="cls-15" d="M2913.62,527.06a56.77,56.77,0,0,0-20.69,16.88,112.54,112.54,0,0,1,4.94-14.68s-1-.05-2.7-.17a107,107,0,0,1,18.45-2"/><path class="cls-31" d="M2771,672.39v122.7c0,.26,0,.54,0,.8a498.23,498.23,0,0,1-86.14-89.11c4.26-6.58,9.49-12,15.13-15.27l53.13-30.68c5.63-3.25,10.81-3.76,15.07-2.12a31.5,31.5,0,0,1,2.81,13.68"/><g class="cls-64"><g class="cls-65"><path class="cls-19" d="M3334.46,556.39c-3.19.18-14.25,8.48-18.43,10.07-7.63,2.9-13.61,4.59-22,4a111,111,0,0,1-20.32-3.39,53.23,53.23,0,0,1-15.55-6.39,40.06,40.06,0,0,1-11.45-11.58c-1.1-10.07,6.58-19.74,10.94-24.34a.94.94,0,0,0-.22-.06.51.51,0,0,0,.39-.11l.19-.2a2,2,0,0,0,.31-1c.25-3.77.48-7.25,1-10.76a62.32,62.32,0,0,0,20.24,26.93c.37.29.74.55,1.11.82a86.48,86.48,0,0,0,23.65,11.47c10.23,3.29,21.08,5.06,30.21,4.54"/></g></g><path class="cls-19" d="M3342.13,451.63a154.87,154.87,0,0,0-20.48,14.68,132.94,132.94,0,0,0-30.85,38.36,156.12,156.12,0,0,0-10,23.14,73.09,73.09,0,0,1,5.43-25.24,89.36,89.36,0,0,1,32.36-40.21,73.34,73.34,0,0,1,23.49-10.72"/><path class="cls-19" d="M3368.16,460a108.87,108.87,0,0,0-19,17.45,118.1,118.1,0,0,0-14.32,21,161.79,161.79,0,0,0-10.18,23.45c-2.86,8.12-5.18,16.48-7.6,25a106.55,106.55,0,0,1,2.81-26.36,101.06,101.06,0,0,1,9.39-25.08A84.23,84.23,0,0,1,3345.54,474a63.38,63.38,0,0,1,22.62-14"/><path class="cls-28" d="M3406.59,533.43l-3.37.16c-3.36-23.45-16.6-45-29.47-65.39-1.71-2.72-3.53-5.51-5.54-8.1,36.84,21.33,38.39,73.33,38.39,73.33"/></g></g></svg>