<svg id="Layer_1" data-name="Layer 1" xmlns="http://www.w3.org/2000/svg" xmlns:xlink="http://www.w3.org/1999/xlink" viewBox="0 0 4680 3120"><defs><style>.cls-1{fill:none;}.cls-2{clip-path:url(#clip-path);}.cls-3{fill:#097ea8;}.cls-4{fill:#479ebe;}.cls-5{fill:#ed7425;}.cls-6{fill:#e05d14;}.cls-7{fill:#ffa04a;}.cls-8{opacity:0.4;}.cls-9{clip-path:url(#clip-path-3);}.cls-10{fill:#fcbe6d;}.cls-11{fill:#dc3d13;}.cls-12{clip-path:url(#clip-path-4);}.cls-13{clip-path:url(#clip-path-5);}.cls-14{clip-path:url(#clip-path-6);}.cls-15{opacity:0.5;}.cls-16{clip-path:url(#clip-path-7);}.cls-17{fill:#a8d7e7;}.cls-18{clip-path:url(#clip-path-8);}.cls-19{clip-path:url(#clip-path-9);}.cls-20{clip-path:url(#clip-path-10);}.cls-21{clip-path:url(#clip-path-11);}.cls-22{clip-path:url(#clip-path-12);}.cls-23{clip-path:url(#clip-path-13);}.cls-24{clip-path:url(#clip-path-14);}.cls-25{fill:#3797da;}.cls-26{fill:#3782c1;}.cls-27{fill:#36b7ff;}.cls-28{fill:#ccc;}.cls-29{fill:#a8a8a8;}.cls-30{fill:#e2e2e2;}.cls-31{fill:#b5b5b5;}.cls-32{fill:#fff;}.cls-33{fill:#9b9b9b;}.cls-34{fill:#7c7c7c;}.cls-35{fill:#aaa;}.cls-36{fill:#2e6aa5;}.cls-37{fill:#3a3a3a;}.cls-38{fill:#4d4d4d;}.cls-39{fill:#4c7687;}.cls-40{fill:#1a2a3a;}.cls-41{fill:#494949;}.cls-42{fill:#969696;}.cls-43{fill:#383838;}.cls-44{fill:#23222d;}.cls-45{fill:#393843;}.cls-46{fill:#2d2c37;}.cls-47{fill:#504f58;}.cls-48{fill:#c4c2bb;}.cls-49{fill:#b0ac9e;}.cls-50{fill:#b7b4a9;}.cls-51{fill:#9d9783;}.cls-52{fill:#d5d2c9;}.cls-53{fill:#a25900;}.cls-54{fill:#3b4549;}.cls-55{fill:#5c6467;}.cls-56{fill:#ce7400;}.cls-57{fill:#eda600;}.cls-58{fill:#354252;}.cls-59{fill:#ffdbd4;}.cls-60{fill:#ffbcb3;}.cls-61{opacity:0.6;}.cls-62{clip-path:url(#clip-path-15);}.cls-63{fill:#415d6b;}.cls-64{clip-path:url(#clip-path-16);}.cls-65{clip-path:url(#clip-path-17);}.cls-66{fill:#61cfff;}.cls-67{fill:#f9af7d;}.cls-68{fill:#754554;}.cls-69{fill:#f9be8f;}.cls-70{opacity:0.48;}.cls-71{clip-path:url(#clip-path-18);}</style><clipPath id="clip-path"><rect class="cls-1" width="4680" height="3120"/></clipPath><clipPath id="clip-path-3"><rect class="cls-1" x="3204.42" y="929.27" width="218.29" height="126.02"/></clipPath><clipPath id="clip-path-4"><rect class="cls-1" x="3604.29" y="1271.14" width="152.1" height="87.81"/></clipPath><clipPath id="clip-path-5"><rect class="cls-1" x="3072.79" y="1333.44" width="152.1" height="87.81"/></clipPath><clipPath id="clip-path-6"><rect class="cls-1" x="3414.51" y="1420.12" width="152.1" height="87.81"/></clipPath><clipPath id="clip-path-7"><rect class="cls-1" x="2657.64" y="993.84" width="268.46" height="187.52"/></clipPath><clipPath id="clip-path-8"><rect class="cls-1" x="2133.13" y="893.29" width="350.45" height="275.42"/></clipPath><clipPath id="clip-path-9"><rect class="cls-1" x="2341.34" y="420.26" width="270.52" height="156.18"/></clipPath><clipPath id="clip-path-10"><rect class="cls-1" x="2836.89" y="843.93" width="188.49" height="108.83"/></clipPath><clipPath id="clip-path-11"><rect class="cls-1" x="1998.97" y="1071.04" width="268.47" height="187.53"/></clipPath><clipPath id="clip-path-12"><rect class="cls-1" x="2178.22" y="921.14" width="188.49" height="108.82"/></clipPath><clipPath id="clip-path-13"><rect class="cls-1" x="2461.96" y="1096.46" width="228.94" height="160.9"/></clipPath><clipPath id="clip-path-14"><rect class="cls-1" x="2601.7" y="1028.56" width="188.49" height="108.82"/></clipPath><clipPath id="clip-path-15"><rect class="cls-1" x="3221.09" y="1100.24" width="34.13" height="120.97"/></clipPath><clipPath id="clip-path-16"><rect class="cls-1" x="3282.27" y="1066.19" width="23.75" height="49.65"/></clipPath><clipPath id="clip-path-17"><rect class="cls-1" x="3228.75" y="1189.31" width="217.83" height="274.9"/></clipPath><clipPath id="clip-path-18"><rect class="cls-1" x="1589.1" y="2000.88" width="157.28" height="66.38"/></clipPath></defs><title>PMT_M134_08 [SVG]</title><g class="cls-2"><g class="cls-2"><path class="cls-3" d="M3937.18,1850.64c0,91.52-23.69,179.88-67.76,263.21q-8.69,16.43-18.43,32.58c-156.81,260.35-514.91,467.28-968.22,560.26C2714.49,2741.2,2533.09,2760,2344,2760c-433.74,0-827-98.94-1114.28-259.44q-52.51-29.31-100.18-61.32-45.36-30.46-86-63.18c-.74-.58-1.48-1.18-2.22-1.78-183-148-290.5-328.67-290.5-523.64,0-102.26,29.57-200.58,84.11-292.32q8.36-14.07,17.52-27.95l2.35-3.55q2.48-3.71,5-7.41a790.73,790.73,0,0,1,49.75-64.94c1.31-1.54,2.63-3.09,4-4.63q12.57-14.57,26-28.86,4-4.29,8.14-8.55s0,0,.05-.05Q960,1399.62,973,1387.12q31.27-30.09,66.42-58.64l4.06-3.29a0,0,0,0,0,0,0h0l1.39-1.1q6.3-5.08,12.74-10.08h0q1.72-1.37,3.48-2.7c1.47-1.15,2.94-2.28,4.43-3.42l.85-.64c1.91-1.47,3.84-2.92,5.76-4.38h0a.94.94,0,0,1,.2-.16q11.39-8.6,23.1-17l4.32-3.09h0c1.78-1.28,3.55-2.54,5.34-3.79,2.44-1.72,4.88-3.42,7.33-5.12q6-4.19,12.1-8.31l2.92-2q17.81-12,36.33-23.66,9.77-6.16,19.75-12.2c.91-.57,1.83-1.12,2.75-1.66q4.63-2.81,9.33-5.59c2.74-1.63,5.52-3.27,8.29-4.89l2.31-1.34s0,0,0,0q28.15-16.37,57.69-31.93,4.17-2.21,8.4-4.4,34.19-17.75,70.18-34.37h0c1.87-.86,3.74-1.73,5.64-2.58q6.21-2.87,12.48-5.65,3.94-1.77,7.86-3.51,32.57-14.42,66.44-27.87,15.58-6.19,31.45-12.17l1.89-.72h0c170.71-64.24,364.36-110.21,572.41-133.09A2774.39,2774.39,0,0,1,2344,941.28c879.9,0,1593.18,407.13,1593.18,909.36"/><path class="cls-4" d="M3929.19,1658.76c0,91.52-23.69,179.88-67.76,263.21q-8.69,16.43-18.43,32.58c-156.81,260.35-514.91,467.28-968.22,560.26-168.28,34.51-349.68,53.31-538.78,53.31-433.74,0-827-98.94-1114.28-259.44q-52.51-29.31-100.18-61.32-45.36-30.46-86-63.18c-.74-.58-1.48-1.18-2.22-1.78-183-148-290.5-328.67-290.5-523.64,0-102.26,29.57-200.58,84.11-292.32q8.36-14.07,17.52-27.95l2.35-3.55q2.48-3.71,5-7.41a790.54,790.54,0,0,1,49.75-64.94c1.31-1.54,2.63-3.09,4-4.63q12.57-14.57,26-28.86,4-4.29,8.14-8.55s0,0,.05-.05q12.33-12.77,25.34-25.27,31.27-30.09,66.42-58.64l4.06-3.29a0,0,0,0,0,0,0h0l1.39-1.1q6.3-5.08,12.74-10.08h0q1.72-1.37,3.48-2.71c1.47-1.15,2.94-2.28,4.43-3.42l.85-.64c1.91-1.47,3.84-2.92,5.76-4.38h0a.89.89,0,0,1,.2-.16q11.39-8.6,23.1-17l4.32-3.09h0c1.78-1.28,3.55-2.54,5.34-3.79,2.44-1.72,4.88-3.42,7.33-5.12q6-4.19,12.1-8.31l2.92-2q17.81-12,36.33-23.66,9.77-6.17,19.75-12.2c.91-.56,1.83-1.12,2.75-1.66q4.63-2.81,9.33-5.58c2.74-1.63,5.51-3.27,8.29-4.89l2.31-1.34s0,0,0,0q28.15-16.37,57.69-31.93,4.17-2.21,8.4-4.4,34.19-17.75,70.18-34.37h0c1.87-.86,3.74-1.73,5.63-2.58q6.21-2.87,12.48-5.65c2.62-1.18,5.24-2.35,7.86-3.51q32.57-14.42,66.44-27.87,15.58-6.19,31.45-12.17l1.89-.72h0c170.71-64.24,364.36-110.21,572.41-133.09A2774.42,2774.42,0,0,1,2336,749.4c879.9,0,1593.18,407.13,1593.18,909.36"/><polygon class="cls-3" points="1127.54 1263.39 1006.58 1304.03 2143.89 1984.07 2247.16 1971.78 2105.04 1670.51 1127.54 1263.39"/><polygon class="cls-3" points="1708.15 2372.86 1606.51 2370.13 941.75 1960.96 1073.06 1937.56 1187.5 1850.83 1799.35 2232.7 1708.15 2372.86"/><polygon class="cls-3" points="3590.7 1543.42 3459.65 1467.76 3590.7 1392.1 3676.28 1543.42 3590.7 1543.42"/><polygon class="cls-3" points="3233.64 1533.21 3036.41 1419.34 3224.11 1310.97 3319.2 1533.21 3233.64 1533.21"/><polygon class="cls-5" points="3506.89 994.53 3506.89 1424.88 3422.7 1473.47 3401.67 1485.62 3319.2 1533.21 3319.2 1102.87 3401.67 1055.28 3422.7 1043.13 3506.89 994.53"/><polygon class="cls-6" points="3319.2 1102.87 3319.2 1533.21 3229.86 1481.65 3208.76 1469.42 3121.99 1419.35 3121.99 989 3208.76 1039.16 3229.86 1051.31 3319.2 1102.87"/><polygon class="cls-7" points="3319.23 1102.88 3121.99 989.01 3309.7 880.64 3506.93 994.51 3319.23 1102.88"/><g class="cls-8"><g class="cls-9"><polygon class="cls-10" points="3401.65 1055.3 3204.42 941.42 3225.48 929.27 3422.71 1043.14 3401.65 1055.3"/></g></g><polygon class="cls-11" points="3229.86 1051.31 3229.86 1481.65 3208.76 1469.42 3208.76 1039.16 3229.86 1051.31"/><polygon class="cls-10" points="3229.85 1051.28 3417.55 942.91 3396.49 930.75 3208.79 1039.12 3229.85 1051.28"/><polygon class="cls-7" points="3422.7 1043.13 3422.7 1473.47 3401.67 1485.62 3401.67 1055.28 3422.7 1043.13"/><polygon class="cls-5" points="3676.28 1543.42 3807.33 1467.76 3807.33 1317.39 3676.28 1393.05 3676.28 1543.42"/><polygon class="cls-6" points="3676.28 1543.42 3545.24 1467.76 3545.24 1317.39 3676.28 1393.05 3676.28 1543.42"/><polygon class="cls-7" points="3676.28 1393.05 3545.24 1317.39 3676.28 1241.73 3807.33 1317.39 3676.28 1393.05"/><polygon class="cls-7" points="3735.34 1418.36 3756.39 1406.2 3756.39 1346.8 3735.34 1358.95 3735.34 1418.36"/><g class="cls-8"><g class="cls-12"><polygon class="cls-10" points="3735.34 1358.95 3604.29 1283.3 3625.35 1271.14 3756.39 1346.8 3735.34 1358.95"/></g></g><polygon class="cls-11" points="3619.44 1419.63 3598.38 1407.48 3598.38 1348.07 3619.44 1360.23 3619.44 1419.63"/><polygon class="cls-10" points="3619.44 1360.23 3750.49 1284.57 3729.43 1272.41 3598.38 1348.07 3619.44 1360.23"/><polygon class="cls-6" points="3619.44 1360.23 3619.44 1362.68 3606.6 1355.82 3598.38 1350.66 3598.38 1348.07 3619.44 1360.23"/><polygon class="cls-6" points="3746.99 1355.22 3735.34 1361.46 3735.34 1358.95 3756.39 1346.8 3756.39 1349.33 3746.99 1355.22"/><polygon class="cls-3" points="3059.2 1605.72 2928.15 1530.06 3059.2 1454.4 3144.78 1605.72 3059.2 1605.72"/><polygon class="cls-5" points="3144.78 1605.72 3275.83 1530.06 3275.83 1379.69 3144.78 1455.35 3144.78 1605.72"/><polygon class="cls-6" points="3144.78 1605.72 3013.74 1530.06 3013.74 1379.69 3144.78 1455.35 3144.78 1605.72"/><polygon class="cls-7" points="3144.78 1455.35 3013.74 1379.69 3144.78 1304.03 3275.83 1379.69 3144.78 1455.35"/><polygon class="cls-7" points="3203.84 1480.66 3224.89 1468.5 3224.89 1409.1 3203.84 1421.25 3203.84 1480.66"/><g class="cls-8"><g class="cls-13"><polygon class="cls-10" points="3203.84 1421.25 3072.79 1345.6 3093.85 1333.44 3224.89 1409.1 3203.84 1421.25"/></g></g><polygon class="cls-3" points="3486.49 1604.74 3408.61 1604.74 3301.76 1542.98 3419.67 1474.91 3486.49 1604.74"/><polygon class="cls-5" points="3486.5 1604.73 3617.55 1529.07 3617.55 1466.37 3486.5 1542.03 3486.5 1604.73"/><polygon class="cls-6" points="3486.5 1604.73 3355.46 1529.07 3355.46 1466.37 3486.5 1542.03 3486.5 1604.73"/><polygon class="cls-7" points="3486.5 1542.03 3355.46 1466.37 3486.5 1390.71 3617.55 1466.37 3486.5 1542.03"/><polygon class="cls-7" points="3544.93 1558.19 3565.99 1546.03 3565.99 1486.63 3544.93 1498.79 3544.93 1558.19"/><g class="cls-8"><g class="cls-14"><polygon class="cls-10" points="3545.56 1507.93 3414.51 1432.28 3435.57 1420.12 3566.61 1495.78 3545.56 1507.93"/></g></g><polygon class="cls-11" points="3429.03 1559.47 3407.98 1547.31 3407.98 1487.9 3429.03 1500.06 3429.03 1559.47"/><polygon class="cls-10" points="3429.66 1509.21 3560.71 1433.55 3539.65 1421.4 3408.61 1497.06 3429.66 1509.21"/><g class="cls-15"><g class="cls-16"><polygon class="cls-17" points="2820.04 1181.36 2657.64 1087.6 2820.04 993.84 2926.1 1181.36 2820.04 1181.36"/></g></g><g class="cls-15"><g class="cls-18"><polygon class="cls-17" points="2377.55 1168.71 2133.13 1027.59 2365.74 893.29 2483.57 1168.71 2377.55 1168.71"/></g></g><polygon class="cls-5" points="2716.18 501.14 2716.18 1034.45 2611.85 1094.68 2585.79 1109.73 2483.58 1168.71 2483.58 635.4 2585.79 576.43 2611.85 561.37 2716.18 501.14"/><polygon class="cls-6" points="2483.57 635.4 2483.57 1168.71 2372.87 1104.81 2346.71 1089.66 2239.19 1027.6 2239.19 494.29 2346.71 556.45 2372.87 571.5 2483.57 635.4"/><polygon class="cls-7" points="2483.61 635.42 2239.19 494.3 2471.81 360 2716.23 501.12 2483.61 635.42"/><g class="cls-8"><g class="cls-19"><polygon class="cls-10" points="2585.76 576.44 2341.34 435.32 2367.43 420.26 2611.86 561.38 2585.76 576.44"/></g></g><polygon class="cls-11" points="2372.87 571.5 2372.87 1104.81 2346.71 1089.66 2346.71 556.45 2372.87 571.5"/><polygon class="cls-10" points="2372.85 571.47 2605.46 437.17 2579.37 422.1 2346.76 556.4 2372.85 571.47"/><polygon class="cls-7" points="2611.85 561.37 2611.85 1094.68 2585.79 1109.73 2585.79 576.43 2611.85 561.37"/><polygon class="cls-5" points="2926.1 1181.36 3088.5 1087.6 3088.5 901.25 2926.1 995.01 2926.1 1181.36"/><polygon class="cls-6" points="2926.1 1181.36 2763.7 1087.6 2763.7 901.25 2926.1 995.01 2926.1 1181.36"/><polygon class="cls-7" points="2926.1 995.01 2763.7 901.25 2926.1 807.49 3088.5 901.25 2926.1 995.01"/><polygon class="cls-7" points="2999.28 1026.37 3025.38 1011.31 3025.38 937.69 2999.28 952.76 2999.28 1026.37"/><g class="cls-8"><g class="cls-20"><polygon class="cls-10" points="2999.28 952.76 2836.89 859 2862.98 843.93 3025.38 937.69 2999.28 952.76"/></g></g><polygon class="cls-11" points="2855.66 1027.95 2829.56 1012.89 2829.56 939.27 2855.66 954.34 2855.66 1027.95"/><polygon class="cls-10" points="2855.66 954.34 3018.05 860.58 2991.96 845.51 2829.56 939.27 2855.66 954.34"/><polygon class="cls-6" points="2855.66 954.34 2855.66 957.38 2839.75 948.87 2829.56 942.48 2829.56 939.27 2855.66 954.34"/><polygon class="cls-6" points="3013.73 948.13 2999.28 955.86 2999.28 952.76 3025.38 937.69 3025.38 940.83 3013.73 948.13"/><g class="cls-15"><g class="cls-21"><polygon class="cls-17" points="2161.37 1258.57 1998.97 1164.81 2161.37 1071.05 2267.43 1258.57 2161.37 1258.57"/></g></g><polygon class="cls-5" points="2267.43 1258.57 2429.83 1164.81 2429.83 978.46 2267.43 1072.22 2267.43 1258.57"/><polygon class="cls-6" points="2267.43 1258.57 2105.04 1164.81 2105.04 978.46 2267.43 1072.22 2267.43 1258.57"/><polygon class="cls-7" points="2267.43 1072.22 2105.04 978.46 2267.43 884.69 2429.83 978.46 2267.43 1072.22"/><polygon class="cls-7" points="2340.62 1103.58 2366.71 1088.52 2366.71 1014.9 2340.62 1029.96 2340.62 1103.58"/><g class="cls-8"><g class="cls-22"><polygon class="cls-10" points="2340.62 1029.96 2178.22 936.2 2204.31 921.14 2366.71 1014.9 2340.62 1029.96"/></g></g><g class="cls-15"><g class="cls-23"><polygon class="cls-17" points="2690.9 1257.36 2594.39 1257.36 2461.96 1180.82 2608.09 1096.46 2690.9 1257.36"/></g></g><polygon class="cls-5" points="2690.91 1257.33 2853.31 1163.57 2853.31 1085.87 2690.91 1179.63 2690.91 1257.33"/><polygon class="cls-6" points="2690.91 1257.33 2528.52 1163.57 2528.52 1085.87 2690.91 1179.63 2690.91 1257.33"/><polygon class="cls-7" points="2690.91 1179.63 2528.52 1085.87 2690.91 992.11 2853.31 1085.87 2690.91 1179.63"/><polygon class="cls-7" points="2763.32 1199.66 2789.41 1184.6 2789.41 1110.98 2763.32 1126.04 2763.32 1199.66"/><g class="cls-8"><g class="cls-24"><polygon class="cls-10" points="2764.1 1137.38 2601.7 1043.62 2627.79 1028.56 2790.19 1122.32 2764.1 1137.38"/></g></g><polygon class="cls-11" points="2619.69 1201.24 2593.6 1186.18 2593.6 1112.56 2619.69 1127.63 2619.69 1201.24"/><polygon class="cls-10" points="2620.47 1138.96 2782.87 1045.2 2756.78 1030.14 2594.38 1123.9 2620.47 1138.96"/><polygon class="cls-25" points="2247.15 1488.55 2247.15 1960.95 1313.63 1423.97 1084.67 1292.27 1084.67 819.86 2247.15 1488.55"/><path class="cls-26" d="M1119.54,875.43q-7.91,7.16-15.81,14.46c-.19-3.37-.37-6.74-.52-10.12Z"/><path class="cls-26" d="M1313.63,1424l-229-131.71V908.07c6.25-6.17,12.62-12.23,19.05-18.18,11.86,202.73,102,368.39,209.91,534.08"/><polygon class="cls-27" points="2919.55 1099.94 2919.55 1572.35 2247.16 1960.96 2247.16 1488.55 2919.55 1099.94"/><polygon class="cls-28" points="2919.55 1552.79 2919.55 1583.18 2247.16 1971.78 2247.16 1941.39 2919.55 1552.79"/><polygon class="cls-29" points="1084.67 1271.08 1084.67 1301.47 1204.58 1370.36 1210.85 1366.75 1287.69 1411.13 1287.69 1418.54 1474.74 1526.39 1480.79 1521.12 1602.29 1591.38 1602.28 1599.93 1627.7 1614.12 1633.88 1608.64 1755.37 1678.9 1755.37 1687.83 2247.16 1971.78 2247.16 1941.39 1084.67 1271.08"/><polygon class="cls-28" points="2919.55 1099.94 2919.55 1138.12 2247.16 1526.73 2247.16 1488.55 2919.55 1099.94"/><polygon class="cls-29" points="1084.7 819.86 1084.7 858.04 2247.16 1526.73 2247.16 1488.55 1084.7 819.86"/><polygon class="cls-30" points="1084.67 819.86 1758.61 430.31 2919.55 1099.94 2245.61 1489.49 1084.67 819.86"/><polygon class="cls-31" points="1162.63 836.94 1133.04 819.86 1758.63 456.69 2872.75 1099.94 2843.16 1117.12 1758.63 490.96 1162.63 836.94"/><polygon class="cls-32" points="1162.63 836.94 1758.63 490.96 2843.16 1117.12 2247.16 1463.11 1162.63 836.94"/><polygon class="cls-29" points="1758.63 456.69 1758.63 490.96 1162.63 836.94 1133.04 819.86 1758.63 456.69"/><polygon class="cls-32" points="2247.16 1664.47 2595.08 1464.08 2595.08 1670.61 2247.16 1872 2247.16 1664.47"/><polygon class="cls-33" points="2247.16 1676.7 2585.4 1481.22 2585.4 1664.32 2247.16 1859.8 2247.16 1676.7"/><polygon class="cls-32" points="2536.07 1502.48 2543.51 1498.18 2543.51 1696.4 2536.07 1700.7 2536.07 1502.48"/><polygon class="cls-32" points="2485.11 1532.3 2492.55 1528 2492.55 1725.87 2485.11 1730.17 2485.11 1532.3"/><polygon class="cls-32" points="2432.92 1561.94 2440.36 1557.64 2440.36 1755.34 2432.92 1759.64 2432.92 1561.94"/><polygon class="cls-32" points="2381.96 1590.18 2389.4 1585.88 2389.4 1784.81 2381.96 1789.11 2381.96 1590.18"/><polygon class="cls-32" points="2336.31 1616.58 2343.76 1612.29 2343.76 1813.06 2336.31 1817.35 2336.31 1616.58"/><polygon class="cls-32" points="2285.35 1647.9 2292.8 1643.6 2292.8 1842.53 2285.35 1846.83 2285.35 1647.9"/><polygon class="cls-32" points="2247.16 1804.75 2592.53 1604.81 2592.53 1595.64 2247.16 1795.59 2247.16 1804.75"/><polygon class="cls-32" points="2247.16 1739.26 2592.53 1539.32 2592.53 1530.15 2247.16 1730.1 2247.16 1739.26"/><polygon class="cls-32" points="1755.37 1441.11 1755.37 1678.9 1633.88 1608.64 1633.87 1370.94 1755.37 1441.11"/><polygon class="cls-34" points="1627.7 1367.26 1627.7 1614.12 1635.48 1609.63 1635.48 1371.76 1627.7 1367.26"/><polygon class="cls-35" points="1755.37 1510.51 1755.37 1517.63 1635.48 1448.35 1635.48 1441.25 1755.37 1510.51"/><polygon class="cls-35" points="1755.37 1533.7 1755.37 1540.82 1635.48 1471.54 1635.48 1464.45 1755.37 1533.7"/><polygon class="cls-35" points="1755.37 1556.9 1755.37 1564.02 1635.48 1494.73 1635.48 1487.64 1755.37 1556.9"/><polygon class="cls-35" points="1755.37 1464.13 1755.37 1471.24 1635.48 1401.96 1635.48 1394.87 1755.37 1464.13"/><polygon class="cls-35" points="1755.37 1487.32 1755.37 1494.44 1635.48 1425.15 1635.48 1418.06 1755.37 1487.32"/><polygon class="cls-35" points="1755.37 1580.09 1755.37 1587.21 1635.48 1517.92 1635.48 1510.83 1755.37 1580.09"/><polygon class="cls-35" points="1755.37 1603.29 1755.37 1610.4 1635.48 1541.12 1635.48 1534.03 1755.37 1603.29"/><polygon class="cls-35" points="1755.37 1626.48 1755.37 1633.6 1635.48 1564.31 1635.48 1557.22 1755.37 1626.48"/><polygon class="cls-35" points="1755.37 1649.67 1755.37 1656.79 1635.48 1587.51 1635.48 1580.41 1755.37 1649.67"/><polygon class="cls-32" points="1602.29 1353.58 1602.29 1591.38 1480.79 1521.12 1480.79 1283.42 1602.29 1353.58"/><polygon class="cls-34" points="1474.62 1279.74 1474.62 1526.59 1482.4 1522.11 1482.4 1284.24 1474.62 1279.74"/><polygon class="cls-32" points="2647.76 1103.08 2559.31 1154.15 2504.38 1122.43 2592.83 1071.37 2647.76 1103.08"/><polygon class="cls-28" points="2559.31 1190.77 2504.38 1158.72 2504.38 1122.11 2559.31 1154.15 2559.31 1190.77"/><polygon class="cls-30" points="2559.31 1190.77 2647.76 1139.7 2647.76 1103.08 2559.31 1154.15 2559.31 1190.77"/><polygon class="cls-32" points="2528.03 1034.42 2439.58 1085.48 2384.65 1053.77 2473.1 1002.7 2528.03 1034.42"/><polygon class="cls-28" points="2439.58 1122.11 2384.65 1090.06 2384.65 1053.44 2439.58 1085.48 2439.58 1122.11"/><polygon class="cls-30" points="2439.58 1122.11 2528.03 1071.04 2528.03 1034.42 2439.58 1085.48 2439.58 1122.11"/><path class="cls-32" d="M876.63,1589.46l685.21,395.82,323.28-186.81-685.57-396.16Zm685.19,372.13-649.4-374.82,288.43-166.6,648.23,375.43L1678,1894.44Z"/><polygon class="cls-30" points="1200.85 1618.7 1200.85 1420.17 1849.08 1795.6 1678.02 1894.44 1200.84 1618.71 1200.85 1618.7"/><polygon class="cls-29" points="1084.39 1686.02 1200.84 1618.71 1678.02 1894.44 1561.82 1961.59 1084.39 1686.02"/><polygon class="cls-28" points="1200.85 1420.17 1200.85 1618.7 1084.39 1686.02 912.42 1586.77 1200.85 1420.17"/><polygon class="cls-28" points="1561.84 1985.08 1561.84 2186 1108.91 1924.35 876.63 1790.16 876.63 1589.25 886.58 1595 1561.84 1985.08"/><path class="cls-29" d="M1108.91,1924.35,876.63,1790.16V1589.25l9.95,5.75c-6.25,69.38,6.8,155.24,59.66,201.69,45.91,40.34,138.6,65.37,162.67,127.66"/><path class="cls-32" d="M1199.55,1402.31l119.85,69.26a62.86,62.86,0,0,0-7.35,13l-111.2-64.41-288.43,166.6,649.4,374.82,116.2-67.15,171.06-98.84-139-80.48a27.63,27.63,0,0,0,5.31-14.71l169.68,98.05-323.28,186.81L876.63,1589.46Z"/><polygon class="cls-25" points="2078.22 1776.18 2032.42 1802.65 1756.97 1961.83 1561.84 1850.82 1713.82 1762.93 1884.54 1664.19 2078.22 1776.18"/><polygon class="cls-26" points="1897.98 2249.9 1897.98 2380.18 1897.93 2380.15 1561.84 2186 1561.84 1850.82 1580.16 1861.24 1756.97 1961.83 1897.98 2249.9"/><path class="cls-36" d="M1899.05,2380.09l-.05.06L1562.91,2186V1850.82l18.32,10.42c3.32,30.18,7,60.35,14,89.87,30.19,126.93,119.37,231.51,215.72,319.5,26.9,24.56,55.17,48.64,88.08,63.92q4.3,2,8.72,3.8c4.6,15.18.33,29.62-8.72,41.76"/><polygon class="cls-25" points="2218.42 2069.05 2218.42 2193.89 1897.99 2378.64 1897.99 2254.22 2218.42 2069.05"/><polygon class="cls-27" points="1756.97 1961.82 1897.99 2254.22 2218.42 2069.05 2078.22 1776.18 1756.97 1961.82"/><polygon class="cls-37" points="2180.29 2060.38 1913 2215.23 1896.76 2181.19 1799.35 1977 2066.89 1822.41 2107.44 1907.51 2180.29 2060.38"/><path class="cls-37" d="M1771.39,2133.84v66.37L1675.55,2145l-10.62-35a66.76,66.76,0,0,0-30.51-38.43l-7.5-4.33-37.81-21.84V1908.86l83.81,48.42a173.1,173.1,0,0,1,71.25,78.88l2.21,4.92,9.8,21.78a173.21,173.21,0,0,1,15.21,71"/><polygon class="cls-37" points="2246.17 2182.34 1908.43 2376.43 1909.39 2416.15 2246.17 2221.53 2246.17 2182.34"/><polygon class="cls-38" points="1909.39 2376.96 1909.39 2416.15 1847.16 2380.21 1847.16 2341.02 1909.39 2376.96"/><polygon class="cls-39" points="1862.49 2332.13 1909.37 2359.25 2230.82 2173.51 2246.17 2182.34 1909.39 2376.96 1847.16 2341.03 1862.49 2332.13"/><polygon class="cls-32" points="2152.67 2145.06 2218.42 2107.21 2218.42 2156.45 2152.67 2194.3 2152.67 2145.06"/><polygon class="cls-32" points="1969.71 2250.67 1969.71 2300.16 1897.99 2341.62 1897.96 2292.38 1969.71 2250.67"/><path class="cls-5" d="M2215.75,2134.23c0,10-6.09,21.65-13.6,26s-13.6-.27-13.6-10.28,6.09-21.65,13.6-26,13.6.27,13.6,10.28"/><path class="cls-5" d="M2184.47,2151.57c0,10-6.09,21.65-13.6,26s-13.6-.26-13.6-10.28,6.09-21.65,13.6-26,13.6.27,13.6,10.28"/><path class="cls-5" d="M1963.08,2279.13c0,10-6.09,21.65-13.6,26s-13.6-.27-13.6-10.28,6.09-21.65,13.6-26,13.6.27,13.6,10.28"/><path class="cls-5" d="M1931.8,2296.47c0,10-6.09,21.65-13.6,26s-13.6-.27-13.6-10.28,6.09-21.65,13.6-26,13.6.27,13.6,10.28"/><path class="cls-40" d="M1673.6,2181.25c35,14.06,65.49,64.5,72,111,8.86,5,28.82,16.13,33.9,19.44-3.65,18-12.28,29.46-24.23,34.71l-47.09,26.49L1676.2,2302l-.06-.15a178.12,178.12,0,0,1-21.87-48.49l-29.35-65.07c12.25-11.54,29.42-14.81,48.68-7.07"/><path class="cls-41" d="M1598.57,2242.13c0,49,29.77,105.83,66.49,127s66.49-1.3,66.49-50.26-29.77-105.83-66.49-127-66.49,1.3-66.49,50.26"/><path class="cls-42" d="M1621.95,2257.2c0,31.74,19.3,68.61,43.1,82.35s43.1-.84,43.1-32.58-19.3-68.61-43.1-82.36-43.1.85-43.1,32.58"/><path class="cls-32" d="M1634.13,2264.23c0,22.78,13.85,49.23,30.93,59.09s30.93-.61,30.93-23.38-13.85-49.23-30.93-59.09-30.93.61-30.93,23.38"/><path class="cls-43" d="M1650.1,2273.45c0,11,6.69,23.8,15,28.57s15-.29,15-11.3-6.69-23.8-15-28.57-15,.29-15,11.3"/><path class="cls-40" d="M1015.12,1799.9c35,14.07,65.49,64.5,72,111,8.85,5,28.82,16.13,33.9,19.44-3.65,18-12.28,29.46-24.23,34.71l-47.09,26.49-31.95-70.84-.07-.14A178.24,178.24,0,0,1,995.79,1872L966.45,1807c12.25-11.54,29.42-14.82,48.68-7.07"/><path class="cls-41" d="M940.09,1860.78c0,49,29.77,105.83,66.48,127s66.49-1.3,66.49-50.26-29.77-105.84-66.49-127-66.48,1.31-66.48,50.26"/><path class="cls-42" d="M963.47,1875.85c0,31.74,19.3,68.61,43.1,82.35s43.1-.84,43.1-32.58-19.3-68.61-43.1-82.36-43.1.85-43.1,32.59"/><path class="cls-32" d="M975.65,1882.88c0,22.77,13.85,49.23,30.93,59.09s30.93-.61,30.93-23.38-13.85-49.23-30.93-59.09-30.93.61-30.93,23.38"/><path class="cls-43" d="M991.63,1892.1c0,11,6.69,23.8,14.95,28.57s15-.29,15-11.3-6.69-23.8-15-28.57-14.95.29-14.95,11.3"/><path class="cls-3" d="M3532.12,1878.67c-15.25-69.22-122.53-104.42-239.62-78.62s-199.64,102.83-184.39,172.05,122.53,104.42,239.62,78.63,199.64-102.83,184.39-172.05"/><path class="cls-3" d="M2780.82,2088l122.66-70.82,204.3,118L2985.12,2206Zm134.75-149.12-73.86,42.64,0,0-25.85,14.93L3214.25,2145l29.13-16.82Z"/><polygon class="cls-3" points="3214.25 2144.99 3169.51 2170.81 2785.76 2392.37 2677.78 2439.47 2642.46 2419.08 2724.03 2356.74 2812.78 2305.49 2608.47 2187.54 2519.72 2238.78 2411.73 2285.88 2376.43 2265.48 2457.99 2203.14 2815.89 1996.5 3214.25 2144.99"/><path class="cls-44" d="M2664.57,2404c0-14.28,10.09-31.67,22.53-38.85,6.58-3.8,12.5-4,16.62-1.2l14.08,8.15-9.54,15.55a53,53,0,0,1-15.26,24.88l-8.39,13.68-12.37-7.22a10.62,10.62,0,0,1-2.24-1.31c-3.38-2.57-5.43-7.27-5.43-13.69"/><path class="cls-45" d="M2678.49,2412.08c0,14.28,10.08,20,22.53,12.85s22.53-24.58,22.53-38.86-10.09-20-22.53-12.84-22.53,24.58-22.53,38.85"/><path class="cls-46" d="M2680.75,2411.82c0,13.73,9.7,19.27,21.67,12.36s21.67-23.64,21.67-37.38-9.7-19.27-21.67-12.36-21.67,23.65-21.67,37.38"/><path class="cls-47" d="M2685.78,2408.42c0,9.92,7,13.91,15.65,8.92s15.65-17.08,15.65-27-7-13.91-15.65-8.92-15.65,17.08-15.65,27"/><path class="cls-48" d="M2686.83,2407.26c0,9,6.35,12.61,14.18,8.09s14.18-15.47,14.18-24.46-6.35-12.61-14.18-8.09-14.18,15.47-14.18,24.46"/><path class="cls-49" d="M2688.26,2406.44c0,8.08,5.71,11.34,12.76,7.27s12.75-13.92,12.75-22-5.71-11.34-12.75-7.27a18.58,18.58,0,0,0-1.9,1.26,29.15,29.15,0,0,0-10.71,18.39,19.12,19.12,0,0,0-.15,2.35"/><path class="cls-50" d="M2696.41,2410.42c6.67-3.85,12.08-13.18,12.08-20.83,0-3.09-.88-5.44-2.38-6.89,4.51-.35,7.66,3,7.66,9,0,8.08-5.71,17.94-12.75,22-5.13,3-9.56,2-11.58-1.81,2,.47,4.38,0,7-1.48"/><path class="cls-51" d="M2688.41,2404.08c1.34,1.95,3.89,2.31,6.81.63,4.32-2.5,7.83-8.54,7.83-13.5,0-3.33-1.58-5.33-3.93-5.52a29.16,29.16,0,0,0-10.71,18.39"/><polygon class="cls-51" points="2701.01 2386.34 2706.88 2389.74 2695.32 2408.51 2689.53 2405.18 2693.48 2395.74 2701.01 2386.34"/><path class="cls-52" d="M2693.19,2403.59c0,5,3.5,7,7.82,4.46s7.82-8.54,7.82-13.5-3.5-7-7.82-4.46-7.82,8.54-7.82,13.5"/><path class="cls-44" d="M3126.14,2148.65c0-14.28,10.09-31.67,22.53-38.86,6.58-3.8,12.5-4,16.62-1.2l14.09,8.15-9.54,15.55a53,53,0,0,1-15.26,24.88l-8.39,13.68-12.37-7.22a10.63,10.63,0,0,1-2.24-1.31c-3.38-2.57-5.43-7.27-5.43-13.69"/><path class="cls-45" d="M3140.06,2156.68c0,14.28,10.08,20,22.53,12.85s22.53-24.58,22.53-38.86-10.09-20-22.53-12.84-22.53,24.58-22.53,38.85"/><path class="cls-46" d="M3142.32,2156.43c0,13.73,9.7,19.27,21.67,12.36s21.67-23.64,21.67-37.38S3176,2112.14,3164,2119s-21.67,23.65-21.67,37.38"/><path class="cls-47" d="M3147.35,2153c0,9.92,7,13.91,15.65,8.92s15.65-17.08,15.65-27-7-13.91-15.65-8.92-15.65,17.08-15.65,27"/><path class="cls-48" d="M3148.4,2151.87c0,9,6.35,12.61,14.18,8.09s14.18-15.47,14.18-24.46-6.35-12.61-14.18-8.09-14.18,15.47-14.18,24.46"/><path class="cls-49" d="M3149.83,2151c0,8.08,5.71,11.34,12.76,7.27s12.76-13.92,12.76-22-5.71-11.34-12.76-7.27a18.46,18.46,0,0,0-1.9,1.26,29.16,29.16,0,0,0-10.71,18.39,19.34,19.34,0,0,0-.15,2.36"/><path class="cls-50" d="M3158,2155c6.67-3.85,12.07-13.18,12.07-20.83,0-3.09-.88-5.44-2.38-6.89,4.51-.35,7.66,3,7.66,9,0,8.08-5.71,17.94-12.75,22-5.13,3-9.56,2-11.58-1.81,2,.46,4.38,0,7-1.48"/><path class="cls-51" d="M3150,2148.69c1.34,1.95,3.89,2.31,6.81.63,4.32-2.5,7.83-8.54,7.83-13.5,0-3.33-1.58-5.33-3.93-5.52a29.16,29.16,0,0,0-10.71,18.39"/><polygon class="cls-51" points="3162.58 2130.95 3168.45 2134.35 3156.89 2153.12 3151.1 2149.78 3155.05 2140.34 3162.58 2130.95"/><path class="cls-52" d="M3154.76,2148.2c0,5,3.5,7,7.83,4.46s7.82-8.54,7.82-13.5-3.5-7-7.82-4.46-7.83,8.54-7.83,13.5"/><path class="cls-44" d="M2383.66,2251.05c0-14.28,10.09-31.67,22.53-38.85,6.58-3.8,12.5-4,16.62-1.2l14.09,8.15-9.54,15.55a53,53,0,0,1-15.26,24.88l-8.39,13.68-12.37-7.22a10.58,10.58,0,0,1-2.24-1.31c-3.38-2.57-5.43-7.27-5.43-13.69"/><path class="cls-45" d="M2397.58,2259.09c0,14.28,10.08,20,22.53,12.84s22.53-24.58,22.53-38.86-10.09-20-22.53-12.84-22.53,24.58-22.53,38.85"/><path class="cls-46" d="M2399.84,2258.83c0,13.73,9.7,19.27,21.67,12.36s21.67-23.64,21.67-37.38-9.7-19.27-21.67-12.36-21.67,23.65-21.67,37.38"/><path class="cls-47" d="M2404.87,2255.43c0,9.92,7,13.91,15.65,8.92s15.65-17.08,15.65-27-7-13.91-15.65-8.92-15.65,17.08-15.65,27"/><path class="cls-48" d="M2405.92,2254.27c0,9,6.35,12.61,14.18,8.09s14.18-15.47,14.18-24.46-6.35-12.61-14.18-8.09-14.18,15.47-14.18,24.46"/><path class="cls-49" d="M2407.35,2253.44c0,8.08,5.71,11.34,12.76,7.27s12.76-13.92,12.76-22-5.71-11.34-12.76-7.27a18.58,18.58,0,0,0-1.9,1.26,29.15,29.15,0,0,0-10.71,18.39,19.12,19.12,0,0,0-.15,2.35"/><path class="cls-50" d="M2415.5,2257.43c6.67-3.85,12.07-13.18,12.07-20.83,0-3.09-.88-5.44-2.38-6.89,4.51-.35,7.66,3,7.66,9,0,8.08-5.71,17.94-12.75,22-5.13,3-9.56,2-11.58-1.81,2,.47,4.38,0,7-1.48"/><path class="cls-51" d="M2407.5,2251.09c1.34,1.95,3.89,2.31,6.81.63,4.32-2.5,7.83-8.54,7.83-13.5,0-3.33-1.58-5.33-3.93-5.52a29.15,29.15,0,0,0-10.71,18.39"/><polygon class="cls-51" points="2420.11 2233.35 2425.97 2236.75 2414.41 2255.52 2408.62 2252.18 2412.58 2242.74 2420.11 2233.35"/><path class="cls-52" d="M2412.28,2250.6c0,5,3.5,7,7.82,4.46s7.83-8.54,7.83-13.5-3.5-7-7.83-4.46-7.82,8.54-7.82,13.5"/><polygon class="cls-53" points="2960.86 1902.95 2933.08 1918.98 2933.08 1965.22 2960.86 1949.18 2960.86 1902.95"/><path class="cls-54" d="M3022.82,1919.27c0-19.36,13.68-42.94,30.54-52.68,8.05-4.65,15.32-5.2,20.78-2.5l.07-.08.55.31.37.21,13.6,7.84-5.12,8.46c.09,1.06.3,2,.3,3.18,0,19.36-13.68,42.95-30.54,52.68a34.88,34.88,0,0,1-5,2.29l-4.26,7-12.26-7.08-.21-.12-.58-.34v-.14c-5.08-3.32-8.26-9.83-8.26-19.06"/><path class="cls-55" d="M3097,1891.54c0,19.36-13.68,42.94-30.55,52.68s-30.54,1.94-30.54-17.42,13.68-42.94,30.54-52.68,30.55-1.94,30.55,17.41"/><path class="cls-54" d="M3041.12,1929.83c0-19.36,13.68-42.94,30.54-52.68,8.05-4.65,15.32-5.2,20.78-2.5l.07-.08.55.31.37.21,13.6,7.84-5.12,8.46c.09,1.06.3,2,.3,3.18,0,19.36-13.68,42.94-30.55,52.68a34.91,34.91,0,0,1-5,2.29l-4.26,7-12.26-7.08-.21-.12-.58-.34v-.14c-5.08-3.32-8.26-9.83-8.26-19.06"/><path class="cls-55" d="M3115.26,1902.1c0,19.36-13.68,42.94-30.55,52.68s-30.54,1.94-30.54-17.41,13.68-42.94,30.54-52.68,30.55-1.94,30.55,17.41"/><polygon class="cls-56" points="3045.88 1967.21 3045.88 1997.47 3061.92 2006.73 3106.12 1895.32 3075.37 1901.88 3045.88 1967.21"/><polygon class="cls-57" points="3061.92 1976.47 3061.92 2006.74 3122.16 1962.63 3122.16 1904.58 3091.41 1911.15 3061.92 1976.47"/><polygon class="cls-56" points="3048.21 1877.44 3048.21 1885.99 3124.36 1929.96 3124.36 1921.41 3048.21 1877.44"/><rect class="cls-40" x="2946.57" y="1729.52" width="340.19" height="15.8" transform="translate(866.63 4506.81) rotate(-80.05)"/><path class="cls-3" d="M3217.58,1429l-79.21-45.73c-14.62-8.44-29.78-10.12-41.6-4.57-9.59,4.47-15.94,13.15-17.9,24.43l-6.29,36.1a50.44,50.44,0,0,0,1.16,21.26l16.91,66c4.86,19.09,18.93,37.33,36.69,47.59l26.15,15.09c9.13,5.27,18.45,7.89,27,7.89,9.61,0,18.24-3.31,24.53-9.89l9.88-10.32q.81-14.73,2.2-31.33l-26.59,27.76c-5.18,5.41-16,4.8-27-1.51l-26.15-15.09c-13-7.53-23.75-21.34-27.29-35.16l-16.9-66a31,31,0,0,1-.83-12.81l6.27-36.11c.83-4.76,3.06-8,6.62-9.68a15.56,15.56,0,0,1,6.57-1.33c4.89,0,10.66,1.75,16.48,5.11l79.21,45.73a60.13,60.13,0,0,1,19.06,18c1.89-12.23,3.46-20.1,4.7-25.17a75.88,75.88,0,0,0-13.72-10.2"/><path class="cls-3" d="M3190,2080.59v33l-78.34-45.23-.79-33.17-177.8-102.72v32.75l-79.29-45.76v-46.22l141.42-96.72c7.16-3.74,16.74-2.63,26.7,3.11s19.53,15.69,26.75,27.74l135,248.37a52,52,0,0,1,6.32,24.84"/><polygon class="cls-58" points="2917.12 1955.03 2589.53 2144.17 2523.43 2182.33 2412.66 2230.64 2376.42 2209.72 2460.1 2145.77 2542.65 2098.1 2853.8 1918.47 2917.12 1955.03"/><polygon class="cls-58" points="3190.04 2112.6 3149.23 2136.16 2810.99 2331.44 2796.35 2339.9 2685.58 2388.22 2649.34 2367.3 2733.03 2303.34 2758.9 2288.4 3126.72 2076.04 3162.42 2096.65 3190.04 2112.6"/><path class="cls-40" d="M2917.12,1955l-327.6,189.14c-16.42-14.6-32.42-29.7-46.87-46.07l311.14-179.63Z"/><path class="cls-40" d="M3162.42,2096.65a382,382,0,0,1-13.19,39.51L2811,2331.44c-5.12-4-10.16-8.17-15.13-12.3q-18.51-15.33-37-30.75L3126.72,2076Z"/><path class="cls-59" d="M3254.44,1263c-2,6.39-3.65,11.56-16.12,12.78l-.15,12.16c-2.74,10.8-22.36,42.27-44.4,60.83-22.21,18.55-26.16,29.66-26.31,30.26l-.15.16v.15c-.61,3-6.09,23.27-9.43,29.35-3.65,6.38-37,11.56-37,11.56a23.69,23.69,0,0,1-8.06-.92,11.7,11.7,0,0,1-5.47-4.41s-4.26-2-4.57-4.26-4.41-23.26-4.56-23.87,0-7.6,3.34-11.41,33.91-10,35.89-11.4c2.13-1.21,26.46-49.57,39.38-75.89s20.38-31.78,21.44-33.91c0-.15,0-.15.15,0,2.29-5.17,8.37-19,11.11-34.67.9-4.88,2.7-14,5-25.12,1.23-5.86,2.61-12.3,4.09-19q.52-2.29,1-4.62c7-30.56,15.45-64.9,19.79-74.31,7.15-15.67,23.73-15.82,24.33-15.82,32.39,9.73-7,174.73-9.43,182.33"/><path class="cls-60" d="M3257.84,1236.5c-4.06,8.26-10,18.7-19.17,19.43a79.66,79.66,0,0,0-24.06-61.57c1.23-5.86,2.62-12.3,4.09-19q.52-2.3,1-4.62a8.12,8.12,0,0,1,1.54-.55c7.64-1.88,15.73,1.44,21.82,6.41,9.86,8.06,15.76,20.28,17.79,32.85,1.48,9.09,1,18.74-3.07,27"/><path class="cls-60" d="M3166.85,1373.53a11.07,11.07,0,0,1,.45,5.63l.15-.15c.15-.61,4.11-11.71,26.31-30.26,22-18.55,41.67-50,44.4-60.83l.15-12.17c12.47-1.22,14.14-6.39,16.12-12.78,2.43-7.6,41.82-172.6,9.43-182.33-.61,0-17.18.15-24.33,15.81-4.56,9.89-13.68,47.3-20.83,78.93l.15.15c1.06,4,19.62,10.34,19.62,10.34s-3.5,58.24-3.35,62.5c.31,4.26-9.27,14.3-9.27,14.3l.15.15a17.41,17.41,0,0,1,4.11,13.23,17.13,17.13,0,0,1-1.37,6.23c-4.71,12.17-33.46,53.83-42.73,67.52a68.82,68.82,0,0,1-21,20.38Z"/><path class="cls-27" d="M3286.13,1068.25q-8,27.89-17.33,55.43c-1.42,4.2-10.84,25.14-19.07,44.6-4,9.56-8.28,17.34-8.55,28,0,1.48,0,3.76.13,6.4.33,6,1.3,13.79,3.67,18.48a8.13,8.13,0,0,0,2.93,3.51q-2.2-1.28-4.36-2.66a192.53,192.53,0,0,1-27.61-22c-4.88-4.56-9.65-9.25-14.4-13.92,2.36-6.17,3.52-12.6,4.9-19a99.37,99.37,0,0,1,2.72-10.48c3.09-9.33,5.52-18.94,8.39-28.4,6.7-22.12,23.36-54.75,48.18-60.84,9-2.22,14.13-2,17-1.22s3.42,2,3.42,2"/><path class="cls-5" d="M3215.2,1180a71.66,71.66,0,0,0,5.9,7.25,98.47,98.47,0,0,1-5.16,12.83c-4.88-4.56-9.65-9.25-14.4-13.92,2.36-6.17,3.52-12.6,4.9-19,3.19,4,5.77,8.59,8.76,12.8"/><path class="cls-5" d="M3247.9,1224.72q-2.2-1.28-4.36-2.66l.22-.15c.41-.25.8-.48,1.2-.71a8.14,8.14,0,0,0,2.93,3.51"/><path class="cls-6" d="M3245,1221.21c-.4.22-.79.45-1.2.71l-.22.15a192.65,192.65,0,0,1-27.61-22,98.32,98.32,0,0,0,5.16-12.83,75.26,75.26,0,0,0,20.21,15.52c.33,6,1.3,13.79,3.67,18.48"/><g class="cls-61"><g class="cls-62"><path class="cls-26" d="M3252.7,1214.64c-2,3.45-4.66,4.78-7.73,6.57-2.37-4.69-3.34-12.52-3.67-18.48a75.26,75.26,0,0,1-20.21-15.52,153.61,153.61,0,0,0,6.09-30.29,138.28,138.28,0,0,1,17.77-52.37c.86-1.46,1.78-2.9,2.74-4.31-2.84,22.6-1.3,45.44,2,68,1.13,7.75,2.49,15.48,3.95,23.16s3,16.32-1,23.19"/></g></g><path class="cls-40" d="M3243.85,1891.63s-24.14,11.09-28.85,15.09-34.67,29.08-36.67,33-11.38,11.71-11.5,20.32,10.42,16.73,19.29,16.5,37.08-9.28,48.18-20.46,17.81-19.07,19.83-19.68,2.21.57,7.25,1.42,25.44-8.56,27.91-14.09,7.66-28.27,4.53-34.75-50,2.69-50,2.69"/><path class="cls-60" d="M3240.56,1884.52s-22.49,22.88-24.52,28.11c-1.2,3.08,14.14,5.42,16.45,6.38,11.33,4.67,11.62,6.32,22.51-1,13.14-8.85,34.2-22.94,23.21-41.3-6.63-11.09-37.66,7.85-37.66,7.85"/><path class="cls-3" d="M3254.82,1496.76l-6.28,36.11a34.54,34.54,0,0,1-8.86,18.1l-24.79,25.88q.81-14.73,2.19-31.33l8.1-8.46a14.39,14.39,0,0,0,3.57-7.66l6.29-36.09c1.51-8.71-1.94-19.44-8.45-28.93,1.89-12.23,3.46-20.1,4.7-25.17,16.94,15.75,26.81,38.64,23.52,57.53"/><path class="cls-63" d="M3225.19,1537.08l-8.1,8.46q1.42-17.09,3.59-36c2.24-19.39,4.21-34,5.92-45.11,6.51,9.49,10,20.22,8.45,28.93l-6.29,36.09a14.38,14.38,0,0,1-3.56,7.66"/><path class="cls-58" d="M3334.41,1533s-43.79,111.1-40.74,127c10.45,54.75-4.18,218.55-4.53,225.14s-11.94,18.3-24.88,19.18-34.18-4.62-34.32-14.38-13.65-202.8-15.38-227.41c-1.15-16.4-1.86-45.82.34-85.66l24.79-25.88a34.54,34.54,0,0,0,8.86-18.1l6.28-36.11c3.29-18.9-6.58-41.79-23.52-57.54,2.33-9.52,3.52-9.1,3.52-9.1s94-15.35,101.22,2.28-1.63,100.55-1.63,100.55"/><path class="cls-40" d="M3263.71,1904.2h.45c13.08-.76,24.64-12.47,24.94-19.16.3-6.54,15.06-170.32,4.56-225.06-3-16,40.7-127.11,40.7-127.11s.31-3.5.91-9.12l-42.53-9s8.52,15.21-.61,45-10,90.79-11.25,99.61,10.19,12.16,7,78c-2.58,53.83-1.36,135.5-24.18,166.82"/><path class="cls-40" d="M3438.9,1836.68s-16.23,23.36-18.23,27.25-24.9,41.67-25.75,46.71a14,14,0,0,0,3.94,13c3.61,3.61,17.54,8.66,27.19,6.06s24.67-10.8,32.59-19.06,17.19-31.26,17.19-31.26,9.69-10.84,12.32-16.15,9.18-12.27,9.89-19.83,1.52-12.41-5.56-18.21-53.58,11.48-53.58,11.48"/><path class="cls-60" d="M3438.2,1831.07s-9.8,25.69-10,30.45,11.27,9.42,22.18,8,15.25-11.51,18.53-14.58,17.33-26.34,14-33.63-44.64,9.73-44.64,9.73"/><path class="cls-58" d="M3290.39,1441.63s-2.9,35.34-3.68,49-1.35,32.72-1.35,32.72l25.44,32.71s15.69,14.32,39.7,133.17c19.42,38,81.14,148.48,81.14,148.48s17.65,18.26,38.4,8.28c18.11-8.71,24.75-23.2,24.62-26-.36-8-40.12-106.89-45.4-121.09s-25.57-49-25.57-49-.1-52.8,1.48-70.42c2.9-32.27,31-112.45,21.37-128.4s-156.15-9.45-156.15-9.45"/><path class="cls-40" d="M3415.28,1657.87c19.46,20.53,37.56,70,51.4,104.17,11.41,28.29,20.83,49.27,21.75,69.65,4.41-5.48,6.39-10.19,6.23-11.71-.3-8.06-40.15-106.91-45.47-121.2-5.17-14.14-25.55-49-25.55-49s-.15-52.76,1.52-70.41c2.89-32.24,30.87-112.38,21.29-128.34-1.37-2.28-5.93-4.11-12.93-5.48,0,.46-.15.91-.15,1.37,0,0,7,3.34-3.65,49.42s-24.33,121.66-14.45,161.5"/><path class="cls-40" d="M3261.55,1431.58c-17.9,10.7-20.17,21-3.06,33.08,12.71,9,26.23,16.88,40.95,22.1,23.55,8.34,47.38,9.89,69.11,22.24,23,13.05,37.69,32.19,55.39,51.27-2.94-20.61,3.48-41.23,7.63-61.63s5.62-43.14-5.79-60.55c-8.41-12.83-22.82-20.8-37.74-24.34s-30.48-3.08-45.78-2.1c-27.92,1.79-56.68,5.58-80.69,19.93"/><path class="cls-27" d="M3443.91,1388.91c3.65,36,11.32,59.41,11.32,59.41s-24.27,26.18-60.57,29.81c-39.32,3.93-79.84-3.85-111.09-13.92h0c-29.21-9.41-50.31-20.81-54.79-26.52,0,0,1.65-14.22,3.53-33.35,2.54-25.74,5.53-60.36,5.52-81.2,0-27.59,1.37-66.74.94-100.08-.12-8.71-.35-17-.76-24.63-.09-1.65-.19-3.25-.29-4.82-1.89-27.88-3-59.28,7.27-89.05a122.61,122.61,0,0,1,13.68-27.83c5-7.5,13.72-10.18,23.72-10.49h.36c1.7,0,3.43,0,5.18.05a138.85,138.85,0,0,1,18.13,2.23q3.23.57,6.33,1.19l4.8.94c8.11,1.6,15,2.93,19.22,2.47,14.61-1.62,34.55-13.61,55.26,3.2l.1.08c20.74,16.78,60.79,32.31,69.34,56,10,27.75,7.9,64.13-10.91,145.74q-2.09,9.1-3.57,18a349.71,349.71,0,0,0-2.67,92.76"/><g class="cls-61"><g class="cls-64"><path class="cls-26" d="M3287.89,1066.27a138.72,138.72,0,0,1,18.13,2.23,29.5,29.5,0,0,0-4.06,5.6,95,95,0,0,0-8.56,21c-2,7.37-.52,17,6.63,20.75-10.82-2.89-18.17-17.79-17.74-28,.31-7.15.08-14.42.06-21.65h.36c1.7,0,3.43,0,5.18.05"/></g></g><g class="cls-61"><g class="cls-65"><path class="cls-26" d="M3443.91,1388.91c-3.28,2.54-6.54,5.14-9.81,7.77-20.67,16.71-41.4,35.17-64.37,47.78-25.16,13.81-54.16,18.71-82.55,19.61l-3.62.14h0c-29.21-9.41-50.31-20.81-54.79-26.52,0,0,1.65-14.22,3.53-33.35a156.48,156.48,0,0,0,40.13-12.08c25.32-11.23,56.23-26.84,76.1-46.18,24.82-24.15,32.32-59.19,29.34-92.45-1.92-21.43-6-43-3.28-64.33,5.4,21.34,6.58,54.85,22.86,70.47,14.61,14,35.14,22.59,49.15,36.37a349.71,349.71,0,0,0-2.67,92.76"/></g></g><path class="cls-6" d="M3300.12,1105.58c-.05,1.48.26,10.55,2.58,10.73a14.09,14.09,0,0,1-2.68-.46c-7.15-3.74-8.66-13.37-6.63-20.75a94.91,94.91,0,0,1,8.56-21,29.5,29.5,0,0,1,4.06-5.6l2.14.39,2.12.4c2.35.44,4.65.9,6.87,1.34-2.78,8.61-7.69,16.89-13.07,24.1a17.25,17.25,0,0,0-4,10.85"/><path class="cls-5" d="M3391.72,1076.37a60.36,60.36,0,0,1-20.39,28.71c-11.8,9.21-26.55,14.23-41.45,15.57a62.17,62.17,0,0,1-28.57-4.22,13.21,13.21,0,0,1-1.29-.59,14.07,14.07,0,0,0,2.68.46c-2.32-.18-2.64-9.25-2.58-10.73a17.25,17.25,0,0,1,4-10.85c5.38-7.21,10.28-15.49,13.07-24.1,8.11,1.6,15,2.93,19.22,2.47,14.61-1.62,34.55-13.61,55.26,3.2l.11.08"/><path class="cls-59" d="M3301.59,1080.65c.15,14.75-3.65,21-.15,26.46,3,4.41,29,10.34,40.15,5.78,3.8-1.52,7.3-3.19,10.34-4.71a.53.53,0,0,1,.3-.15c21.44-10.95,26-20.37,28.44-24.78a9.26,9.26,0,0,0-.15-9.28s-16.12-21.29-14.45-39.39c.46-4.71.91-14.29,1.22-23.72.46-12,.91-23.57.91-23.57S3358.31,968,3349.34,969c-9,1.22-51.4,46.38-51.4,46.38s1.22,18.25,2.28,36c.61,10,1.06,19.92,1.22,26.31a19.45,19.45,0,0,1,.15,2.89"/><path class="cls-60" d="M3300.22,1051.45c.61,10,1.06,19.92,1.21,26.31,3,.15,7.6-.76,13.84-3.19,27.67-10.95,34.67-9.12,43.34-2.89,7.75,5.78,5,25.55-6.39,36.34,21.44-10.95,26-20.37,28.44-24.78a9.26,9.26,0,0,0-.15-9.28s-16.12-21.29-14.45-39.39c.5-5.39.71-10.81.94-16.22s2.09-11.4,3.93-16.65a19.43,19.43,0,0,1-8.07,6.66c-3.41,1.62-6.67.32-10.38-.18a154.35,154.35,0,0,0-20.06-1.48c-1.47,0-16.68-.58-17.3,1.25l-14.9,43.49"/><path class="cls-59" d="M3358,986s-2.06,46.3-6.59,56.09-37.2,35-68.72,30.62c-8.45-4.49-21.45-27.81-22.94-48.41a185.89,185.89,0,0,1-.27-27.11,12,12,0,0,0,0-2.88c-.46-1.8-6.78-14.4-5.8-20.18,0-.14.05-.31.07-.47,1-6.91,2.84-38.2,13.8-52.08,11.23-14.23,42.27-23,70.13-11.76S3358,986,3358,986"/><path class="cls-60" d="M3346.65,1002.52c-3.66-1.51-4.3-3.71-6.34-7.12-2.54-4.26-4-11.29-9.07-13.63s-10.72,3.3-14.9,5.43a112.41,112.41,0,0,1-13.69,5.91,88.52,88.52,0,0,1-18.13,4.19c-4.75.61-8,4.83-12.72,4.53a19.92,19.92,0,0,1-7.28-2.38,40.9,40.9,0,0,0-5-2.24,12,12,0,0,0,0-2.88c-.46-1.8-6.78-14.4-5.8-20.18,0-.14.05-.31.07-.48a47.2,47.2,0,0,1,11.74-9.23c11.14-6.31,24.41-9.24,37-6.78a26.33,26.33,0,0,1,11.88,5.13c3.35,2.79,5.7,7,5.47,11.35l5.67-7.93c3.3-2.35,8.08-1.78,11.41.55s5.4,6.07,6.76,9.88c2.92,8.23,3,17.16,3,25.88"/><path class="cls-40" d="M3348.89,1002.39s-2.67-18.3,8.82-21.54,10.66,17,10.66,17l-2.74,32.07.39,4.63s11.82-22.87,15.72-30.08,5.75-10.16,7.29-18.16,7.72-42.27,6.1-54.25-22.18-30-37.89-31.36c-7.2-9.66-21.86-12.9-36.05-13s-24.81-.56-41.83,12.69-16.67,23.61-18,26.84-2.6,17.59-2.6,17.59l2.1-7.88s6.75,4.46,27.79,2.64,32.63-10.23,32.63-10.23-3.86,14.9-3.06,20.4,4.05,22.57,4.05,22.57,10.82,6.43,14.42,9,5.3,8.38,5.3,8.38l.82,8.81a4.56,4.56,0,0,0,6.06,3.87"/><path class="cls-66" d="M3255.51,942.72l3,3.8s55.66,16.42,61.29,17.79c2.58.61,6.84,2.58,13.08,4.56a132.69,132.69,0,0,0,32.54,6.39l25.24,2.13s8.06-24.18,4.26-46.38c-3-17.64-23.42-33-47.14-40.15a.15.15,0,0,1-.15-.15,99,99,0,0,0-18.86-3.8c-30.87-3.19-51.7,9.89-61.59,24.79a81.65,81.65,0,0,0-11.71,31"/><path class="cls-27" d="M3348,890.91l-.15,0c6.23,3.65,24.48,8.21,19.46,43.65-1.18,8.32-4.27,16.48-10.85,22-8.65,7.27-19.81,4.85-29.66,1.33-21.18-7.56-41.94-27.19-65.67-14.82a120.93,120.93,0,0,1,60.63,19.91c12.74,8.46,28.66,11,43.73,12.32l25.24,2.13s8.06-24.18,4.26-46.38c-2.43-14.22-15-24.78-26.85-31.54-4.87-2.77-14.52-9.18-20.45-8-6.72,1.39-11.22,13.32-13.45,18.93a42.38,42.38,0,0,1,3.16-14.33c.92-2.22,2.56-4.69,5-4.56-10.43,1.32-21.1,3.35-30.5,8.28-8.45,4.43-14.44,13.37-20.9,20.39-4.43,4.81-8.43,10.43-9.35,16.91a100.25,100.25,0,0,1,24.76-36.24c9.13-8.68,24.23-12.48,36.64-13.07"/><path class="cls-67" d="M3281,998.65a33,33,0,0,1-.88,10.33q-.3,1.27-.72,2.52a16.49,16.49,0,0,1-1,2.49c-.83,1.59-1.84,3-2.6,4.43a11.84,11.84,0,0,0-1,2.16,9.25,9.25,0,0,0-.26,1.11,7.23,7.23,0,0,0,0,1.05,4,4,0,0,0,.65,2,7.8,7.8,0,0,0,1.58,1.63,19.75,19.75,0,0,0,4.34,2.36c1.56.67,3.18,1.22,4.79,1.84a37.41,37.41,0,0,1-5.1-.91,17.18,17.18,0,0,1-4.92-2,8,8,0,0,1-2.12-1.89,5.79,5.79,0,0,1-1.11-2.8,7.1,7.1,0,0,1,0-1.51,11.14,11.14,0,0,1,.3-1.39,13.55,13.55,0,0,1,1.07-2.55c.88-1.57,1.89-3,2.69-4.37a26.68,26.68,0,0,0,1.92-4.55,63.5,63.5,0,0,0,2.37-9.9"/><path class="cls-40" d="M3301,994.23c-1,.83-1.3,2.75-1.39,3.67-.18,1.68-.18,4.74,2.38,5.32,3.89.87,3.83-4.4,3.34-6.21a4.8,4.8,0,0,0-1.78-2.57c-1.14-.8-2-.71-2.54-.2"/><path class="cls-40" d="M3265.58,991a6.17,6.17,0,0,0-1.43,2.63c-.54,1.88-.62,5.63,2.34,6.3,3.89.87,3.83-4.4,3.34-6.21-.29-1.06-1.67-3.42-3.44-3.14a1.63,1.63,0,0,0-.81.42"/><path class="cls-40" d="M3297.57,1050a18.64,18.64,0,0,1-6.23,6.2,7.21,7.21,0,0,1-9.29-1.78c-2.88-3.7-5.54-8.83-5.56-11.94a46.68,46.68,0,0,0,23.7-2.59,17.13,17.13,0,0,1-2.61,10.11"/><path class="cls-40" d="M3320.12,990.15a95.72,95.72,0,0,0-27.68-2.44c.22-1.62.35-3.13.71-4.72a.49.49,0,0,1,.18-.34.5.5,0,0,1,.32,0c3.84.51,7.82,1.09,11.68,1.82,2,.38,4,.79,6,1.26,1.67.4,3.68.43,5.14,1.41,1.27.85,2.12,2.48,3.62,3"/><path class="cls-40" d="M3255.55,986a40.58,40.58,0,0,1,10.09-.94c1.07,0,12.24.5,12.24,1.18,0-1.63,0-3.14-.11-4.77a.52.52,0,0,0-.12-.35.41.41,0,0,0-.28-.06c-3.48.13-7.09.31-10.61.64-2.28.21-4.62.41-6.87.78s-3.1,1.44-4.32,3.52"/><path class="cls-68" d="M3298.63,993.94a7.34,7.34,0,0,1,3.19-1.51,10,10,0,0,1,3.54,0,15.3,15.3,0,0,1,6.46,2.46.05.05,0,0,1,0,.07.05.05,0,0,1-.06,0,16.64,16.64,0,0,0-6.48-1.75,21.5,21.5,0,0,0-3.3.2,26.28,26.28,0,0,0-3.31.61.05.05,0,0,1-.06,0,.05.05,0,0,1,0-.05"/><path class="cls-68" d="M3269.45,989.81a5,5,0,0,0-2.16-.63c-.76-.07-1.55-.29-2.34-.42q-2.37-.37-4.79-.54a.05.05,0,0,1,0-.05,0,0,0,0,1,0,0A30.83,30.83,0,0,1,3265,988a11,11,0,0,1,2.45.24,2.84,2.84,0,0,1,2,1.55.05.05,0,0,1,0,.07h0"/><path class="cls-5" d="M3297.57,1050a18.64,18.64,0,0,1-6.23,6.2,7.11,7.11,0,0,1-8.25-.71,28.45,28.45,0,0,1,14.48-5.5"/><path class="cls-5" d="M3332.89,968.84s-.46.4-1.32,1.11c-7.45,6.14-44.59,35.47-58.28,21.66-.82-.82-1.73-1.65-2.72-2.46-.78-.64-1.61-1.28-2.49-1.91s-1.8-1.26-2.77-1.88c-1.27-.81-2.59-1.6-4-2.36-10.85-6-24.64-10.37-33.6-9.69a15.86,15.86,0,0,0-3.59.61l-11.72,3.48a2.88,2.88,0,0,1-2.17-3.35c.05-.52,1.6-1.9,4.09-3.8,11.15-8.51,41.21-27.56,41.21-27.56s2.66-2.84,9.34-3.71h0a31.27,31.27,0,0,1,4.95-.23c5.83.14,13.69,1.68,24,6.17.51.21,1,.44,1.54.68,9.69,4.38,21.5,11.3,35.72,21.93l1.75,1.32"/><path class="cls-59" d="M3349.4,990.25s6.23-16.41,18.79-10.07-5.46,39.1-13.59,39.55-6.63-7.93-6.63-7.93,8.76-13.78,1.43-21.55"/><path class="cls-59" d="M3463.48,1224.42c-1,19.08-2.52,37.76-3.89,53-.83,9.16-1.62,17-2.24,23-4,38.78-13.91,59-13.91,59-10.14,31.39-137.41,73.42-143.7,77.35s-10.51,11.4-19.12,16.22c-6.28,3.51-17.56,4.53-23.24,4.81-2.12.1-3.46.11-3.46.11l-.5,5-.41,4.19s-.63,4.39-8.25,7.11-10.28-1.34-10.28-1.34a11.69,11.69,0,0,1-6,1c-3.78-.22-5.33-2-5.33-2s-8.63.64-10.62-2a20.47,20.47,0,0,1-2.94-6.11s-8.56-.5-9.24-2-.93-10.29,0-13.78,9.1-22.11,12.23-23.83,28.34-.53,35.72-1.5,21.53-7.36,22.85-8.3c24.62-8.47,113.16-82.64,124.58-91.2a20.52,20.52,0,0,1,2.24-1.47c-.27-1.92-.51-3.91-.68-6-1-11.47-.81-25.25-1.74-41.94-.53-9.31-.43-24.4.2-41.18,1.34-36,5.15-79.93,10.61-91.53,8-17,31.57-33.76,48.93-17.19,10.27,9.8,10.5,56.23,8.14,100.54"/><path class="cls-60" d="M3463.48,1224.42c-1,19.08-2.52,37.76-3.89,53a110.67,110.67,0,0,1-18.38,11.05c-8.13,3.88-19.38,4.53-26.79,8.84-9.66,5.61-6,7.26-14.37,15.76-.9.91-1.79,1.8-2.71,2.69-1-11.47-.81-25.25-1.74-41.94-.53-9.31-.43-24.4.2-41.18a74.75,74.75,0,0,1,8.07-3.78c18.75-7.49,39.72-8.08,59.61-4.41"/><path class="cls-27" d="M3479.46,1240.5c.2,5.16-34.23,22-39.42,24.16a68.32,68.32,0,0,1-38.67,4c-3-.57-6.24-1.49-8.16-3.9-1.45-1.79-1.92-4.16-2.3-6.43,0,0,0-.07,0-.12-5.58-34,2.77-74.72,11.34-107.7,6.41-24.7,28.26-35.06,39.91-35.07,20.59,0,25.38,27.16,27.56,42.73,2.77,19.87,6.13,39.83,8.15,59.87.75,7.46,1.32,14.95,1.6,22.43"/><path class="cls-60" d="M3166.85,1373.53a11.07,11.07,0,0,1,.45,5.63l.15-.15c.15-.61,4.11-11.71,26.31-30.26,22-18.55,41.67-50,44.4-60.83l.15-12.17.15-8.21s-5.48-2.13-12.47-4.71c.91,1.06,5.59,9.08,4.83,16.53a33.46,33.46,0,0,1-2.09,8.59c-4.71,12.17-31.21,50-42.73,61.86-11.68,12-21,20.38-21,20.38Z"/><path class="cls-60" d="M3146.38,1403.45a38.94,38.94,0,0,1-5.37-9.83c-2.25-6-3.84-9.83-3.84-9.83l-2.75,12-.2,10.78-3.69,6.82-5.06,3.68,10.74.2s12-7.31,10.17-13.82"/><path class="cls-59" d="M3163.38,1375.58s-8.14-1-12,9.82-7.47,20-10.23,23.1-9.43,5.92-9.43,5.92-10.49,4.06-11.73,6.06a10.37,10.37,0,0,0-1.74,7.53c.54,3.11,4.8,2.45,5.21,2.24s6.71-2,6.71-2,5.54.37,7.59-.92,18.66-13.38,20.9-17.45,7.36-16.82,8-24.62.11-8.88-3.23-9.64"/><polygon class="cls-5" points="2871.84 2265.02 2558.98 2084.39 2558.98 1900.89 2871.84 2081.52 2871.84 2265.02"/><polygon class="cls-6" points="2871.84 2265.02 3127.71 2117.29 3127.71 1933.8 2871.84 2081.52 2871.84 2265.02"/><polygon class="cls-11" points="2871.84 2081.52 3127.71 1933.8 2814.85 1753.16 2558.98 1900.89 2871.84 2081.52"/><polygon class="cls-11" points="2981.74 2134.06 3022.86 2110.32 3022.86 1994.33 2981.74 2018.07 2981.74 2134.06"/><polygon class="cls-10" points="2981.74 2018.07 2668.88 1837.44 2709.99 1813.7 3022.86 1994.33 2981.74 2018.07"/><polygon class="cls-5" points="2871.84 2073.87 2558.98 1893.23 2558.98 1709.73 2871.84 1890.37 2871.84 2073.87"/><polygon class="cls-6" points="2871.84 2073.87 3127.71 1926.14 3127.71 1742.64 2871.84 1890.37 2871.84 2073.87"/><polygon class="cls-7" points="2871.84 1890.37 3127.71 1742.64 2814.85 1562.01 2558.98 1709.73 2871.84 1890.37"/><polygon class="cls-11" points="2981.74 1942.9 3022.86 1919.17 3022.86 1803.18 2981.74 1826.91 2981.74 1942.9"/><polygon class="cls-10" points="2981.74 1826.91 2668.88 1646.28 2709.99 1622.55 3022.86 1803.18 2981.74 1826.91"/><path class="cls-69" d="M3216.55,1441.86c-.57,1.91-1.19,3.74-1.77,5.57s-1.12,3.67-1.63,5.51-1,3.69-1.42,5.57-.84,3.77-1.33,5.7a23.62,23.62,0,0,1-.21-5.94,31.57,31.57,0,0,1,3.14-11.42,23.71,23.71,0,0,1,3.22-5"/><path class="cls-69" d="M3228.86,1451.2c-.64,1.78-1.28,3.49-1.84,5.22s-1,3.45-1.47,5.2-.77,3.51-1.05,5.3-.49,3.6-.74,5.48a18.32,18.32,0,0,1-.82-5.6,23.94,23.94,0,0,1,2.65-11,18.48,18.48,0,0,1,3.27-4.61"/><path class="cls-69" d="M3236.93,1455.16a51.25,51.25,0,0,1-2.26,9.68,27.73,27.73,0,0,0-1,4.62,10.81,10.81,0,0,0,.46,4.73,7,7,0,0,1-2-4.74,14.84,14.84,0,0,1,.65-5.15,35.68,35.68,0,0,1,1.81-4.69,32.15,32.15,0,0,1,2.37-4.44"/><path class="cls-60" d="M3365.42,1001.74c-2.5,2.94-6.09,4.59-8.25,7.86-.83-6-5.79-16-.8-21.08,8.85-9,14.92,6.33,9.06,13.22"/><path class="cls-5" d="M3352.4,893.55l-10.91-2.2a4.21,4.21,0,0,1-3.3-5l.15-.75a4.21,4.21,0,0,1,5-3.3l10.91,2.2a4.21,4.21,0,0,1,3.3,5l-.15.75a4.21,4.21,0,0,1-5,3.3"/><path class="cls-5" d="M3261.23,981.91l4.07,3.46c-1.26-.81-2.59-1.6-4-2.36,0-.37-.07-.73-.09-1.1"/><path class="cls-6" d="M3332.89,968.84s-.46.4-1.32,1.11c-7.45,6.14-44.59,35.47-58.28,21.66-.82-.82-1.73-1.65-2.72-2.46a64.36,64.36,0,0,0,20.07-9.17c12.59-8.66,12.54-20.68,4.63-33.16a17.67,17.67,0,0,0-1.39-1.91c.51.21,1,.44,1.54.68,9.69,4.38,21.5,11.3,35.72,21.93l1.75,1.32"/><path class="cls-6" d="M3269.87,938.75a17.1,17.1,0,0,1-2.53,2.84c-6.73,6.32-14.87,10.87-22.53,16-6.44,4.35-12.73,9.33-17.09,15.68a15.87,15.87,0,0,0-3.59.61l-11.72,3.48a2.88,2.88,0,0,1-2.17-3.35c.05-.52,1.6-1.9,4.09-3.8,11.15-8.51,41.21-27.56,41.21-27.56s2.66-2.84,9.34-3.71h0a31.38,31.38,0,0,1,4.95-.23"/><path class="cls-5" d="M3479.46,1240.5c.2,5.16-34.23,22-39.42,24.16a68.32,68.32,0,0,1-38.67,4c-3-.57-6.24-1.49-8.16-3.9-1.45-1.79-1.92-4.16-2.3-6.43a49.59,49.59,0,0,0,7.71.35c29-1,60.25-19.43,79.23-40.64.75,7.46,1.32,14.95,1.6,22.43"/><path class="cls-32" d="M1404.75,1106.63l24.52,77.72-13.41-7.74-4.85-16.42-25.64-14.8-4.93,10.77-13.1-7.56,24.79-49.25Zm-15.26,30L1407,1146.7l-8.69-29.35-8.83,19.24"/><polygon class="cls-32" points="1369.48 1086.27 1351.23 1139.29 1337.5 1131.37 1325.48 1081.38 1312.81 1117.11 1299.16 1109.23 1281.19 1035.29 1294.45 1042.95 1306.79 1094.75 1319.93 1057.66 1331.77 1064.49 1344.27 1116.74 1357.25 1079.2 1369.48 1086.27"/><path class="cls-32" d="M1471.61,1188.36l12.33,27.55-13.73-7.93-10.6-23.83-.63-.37-11.12-6.42-.05,17.68-12.78-7.38.18-63.46,23.9,13.8a52.8,52.8,0,0,1,12.74,10.17,45.22,45.22,0,0,1,8.3,12.78,35.19,35.19,0,0,1,2.88,13.92q0,7.07-3,10.49t-8.42,3m-4.54-14.52q3-1.17,3-6.43a17.74,17.74,0,0,0-3-9.93,25.17,25.17,0,0,0-8.75-7.91l-10.42-6-.06,22.12,10.42,6q5.75,3.32,8.77,2.15"/><polygon class="cls-32" points="1534.92 1181.78 1534.89 1193.57 1505.86 1176.81 1505.82 1190.58 1531.46 1205.39 1531.42 1216.81 1505.79 1202.01 1505.74 1216.7 1535.8 1234.05 1535.77 1245.84 1493.01 1221.15 1493.19 1157.69 1534.92 1181.78"/><polygon class="cls-32" points="1596.78 1217.49 1596.6 1280.95 1583.81 1273.58 1583.89 1247.55 1558.8 1233.07 1558.73 1259.09 1545.94 1251.71 1546.13 1188.25 1558.91 1195.63 1558.84 1220.65 1583.92 1235.13 1583.99 1210.11 1596.78 1217.49"/><path class="cls-32" d="M1662.85,1270.58a50.6,50.6,0,0,1,3.9,19.09q0,9.34-4,14.54a13.68,13.68,0,0,1-10.84,5.5q-6.88.3-15.48-4.67a57.88,57.88,0,0,1-15.49-13.21,66,66,0,0,1-10.78-18,50.94,50.94,0,0,1-3.86-19.08q0-9.33,4-14.56a13.54,13.54,0,0,1,10.84-5.5q6.91-.28,15.51,4.69a57.53,57.53,0,0,1,15.45,13.19,67,67,0,0,1,10.77,18m-11.32,20.84q2.26-3.33,2.28-9.22a33,33,0,0,0-2.22-11.81,38.79,38.79,0,0,0-6.17-10.78,32,32,0,0,0-8.83-7.69q-4.89-2.82-8.84-2.52a7.92,7.92,0,0,0-6.21,3.63q-2.26,3.32-2.28,9.22a32.94,32.94,0,0,0,2.22,11.81,38.81,38.81,0,0,0,6.17,10.79,31.91,31.91,0,0,0,8.83,7.69q4.89,2.83,8.85,2.52a7.93,7.93,0,0,0,6.21-3.64"/><path class="cls-32" d="M1726,1292.11l-.1,35.54q0,14-6.65,17.68t-18.44-3.11a48.76,48.76,0,0,1-24.93-43.45l.1-35.54,12.78,7.38-.1,35q0,17,12.26,24.15,6,3.46,9.16,1.16t3.2-11.09l.1-35Z"/><path class="cls-32" d="M1758.67,1309.87a67,67,0,0,1,10.33,7.42,63.58,63.58,0,0,1,8.82,9.27l-4,8.88q-7.64-9.4-15.29-13.82-5.37-3.1-7.94-2.58t-2.58,3.78q0,3.26,2.95,6.56a89.64,89.64,0,0,0,9,8.34q6.3,5.36,10.32,9.41a39.87,39.87,0,0,1,6.89,9.42,24.41,24.41,0,0,1,2.85,11.73q0,5.44-2.67,8.4t-7.95,2.54q-5.29-.43-12.87-4.8a72.77,72.77,0,0,1-12.66-9.35,64.24,64.24,0,0,1-9.81-11l4.37-8.55a64.33,64.33,0,0,0,8.43,9.68,52.42,52.42,0,0,0,9.78,7.46q5.45,3.14,8.06,2.79c1.74-.24,2.61-1.39,2.61-3.44a8.53,8.53,0,0,0-1.53-4.65,25.9,25.9,0,0,0-3.94-4.68q-2.41-2.3-6.5-5.76-6.31-5.37-10.33-9.41a39.27,39.27,0,0,1-6.89-9.51,24.89,24.89,0,0,1-2.85-11.82c0-3.68.89-6.53,2.63-8.51s4.37-2.85,7.87-2.59,7.78,1.86,12.83,4.77"/><polygon class="cls-32" points="1801.75 1335.83 1801.57 1399.3 1788.78 1391.91 1788.96 1328.45 1801.75 1335.83"/><polygon class="cls-32" points="1865.49 1372.64 1865.31 1436.1 1854.82 1430.04 1827.39 1375.61 1827.28 1414.14 1814.66 1406.86 1814.84 1343.39 1825.41 1349.5 1852.76 1403.88 1852.87 1365.35 1865.49 1372.64"/><path class="cls-32" d="M1905.5,1394.64a58.19,58.19,0,0,1,13.16,10.42,61.47,61.47,0,0,1,9.92,13.89l-8.23,4q-5.9-10.57-14.26-15.4-5.29-3.05-9.39-2.88a7.79,7.79,0,0,0-6.41,3.47q-2.31,3.3-2.32,9.29a32.56,32.56,0,0,0,2.26,11.84,38.85,38.85,0,0,0,6.33,10.88,33.91,33.91,0,0,0,9.26,7.94q5.52,3.19,9.95,3l.05-18.58,11.68,6.74-.07,25.75a20.93,20.93,0,0,1-10.43,0,42.4,42.4,0,0,1-11.92-4.79,57.84,57.84,0,0,1-15.45-13.15,65.59,65.59,0,0,1-10.73-17.91,51.06,51.06,0,0,1-3.86-19.16q0-9.42,4-14.65a13.38,13.38,0,0,1,10.89-5.43q6.95-.21,15.63,4.8"/><path class="cls-26" d="M2078.22,1776.18l-45.8,26.47-318.59-39.72,170.71-98.73Z"/><path class="cls-29" d="M2107.44,1907.51a2446.31,2446.31,0,0,1-210.68,273.67L1799.35,1977l267.54-154.59Z"/><g class="cls-70"><g class="cls-71"><path class="cls-29" d="M1746.38,2041.08a496.22,496.22,0,0,1-119.47,26.18l-37.81-21.84v-36.12a676.86,676.86,0,0,0,133.82-8.43,172.94,172.94,0,0,1,21.24,35.28Z"/></g></g></g></g></svg>